<?xml version="1.0" encoding="utf-8"?>
<svg xmlns="http://www.w3.org/2000/svg" xmlns:xlink="http://www.w3.org/1999/xlink" width="600" height="400" viewBox="0 0 2400 1600">
<defs>
  <clipPath id="clip630">
    <rect x="0" y="0" width="2400" height="1600"/>
  </clipPath>
</defs>
<path clip-path="url(#clip630)" d="
M0 1600 L2400 1600 L2400 0 L0 0  Z
  " fill="#ffffff" fill-rule="evenodd" fill-opacity="1"/>
<defs>
  <clipPath id="clip631">
    <rect x="480" y="0" width="1681" height="1600"/>
  </clipPath>
</defs>
<path clip-path="url(#clip630)" d="
M707.951 1486.45 L2352.76 1486.45 L2352.76 123.472 L707.951 123.472  Z
  " fill="#ffffff" fill-rule="evenodd" fill-opacity="1"/>
<defs>
  <clipPath id="clip632">
    <rect x="707" y="123" width="1646" height="1364"/>
  </clipPath>
</defs>
<polyline clip-path="url(#clip632)" style="stroke:#000000; stroke-linecap:butt; stroke-linejoin:round; stroke-width:2; stroke-opacity:0.1; fill:none" points="
  754.502,1486.45 754.502,123.472 
  "/>
<polyline clip-path="url(#clip632)" style="stroke:#000000; stroke-linecap:butt; stroke-linejoin:round; stroke-width:2; stroke-opacity:0.1; fill:none" points="
  1272.47,1486.45 1272.47,123.472 
  "/>
<polyline clip-path="url(#clip632)" style="stroke:#000000; stroke-linecap:butt; stroke-linejoin:round; stroke-width:2; stroke-opacity:0.1; fill:none" points="
  1790.44,1486.45 1790.44,123.472 
  "/>
<polyline clip-path="url(#clip632)" style="stroke:#000000; stroke-linecap:butt; stroke-linejoin:round; stroke-width:2; stroke-opacity:0.1; fill:none" points="
  2308.42,1486.45 2308.42,123.472 
  "/>
<polyline clip-path="url(#clip630)" style="stroke:#000000; stroke-linecap:butt; stroke-linejoin:round; stroke-width:4; stroke-opacity:1; fill:none" points="
  707.951,1486.45 2352.76,1486.45 
  "/>
<polyline clip-path="url(#clip630)" style="stroke:#000000; stroke-linecap:butt; stroke-linejoin:round; stroke-width:4; stroke-opacity:1; fill:none" points="
  754.502,1486.45 754.502,1467.55 
  "/>
<polyline clip-path="url(#clip630)" style="stroke:#000000; stroke-linecap:butt; stroke-linejoin:round; stroke-width:4; stroke-opacity:1; fill:none" points="
  1272.47,1486.45 1272.47,1467.55 
  "/>
<polyline clip-path="url(#clip630)" style="stroke:#000000; stroke-linecap:butt; stroke-linejoin:round; stroke-width:4; stroke-opacity:1; fill:none" points="
  1790.44,1486.45 1790.44,1467.55 
  "/>
<polyline clip-path="url(#clip630)" style="stroke:#000000; stroke-linecap:butt; stroke-linejoin:round; stroke-width:4; stroke-opacity:1; fill:none" points="
  2308.42,1486.45 2308.42,1467.55 
  "/>
<path clip-path="url(#clip630)" d="M754.502 1517.37 Q750.891 1517.37 749.062 1520.93 Q747.257 1524.47 747.257 1531.6 Q747.257 1538.71 749.062 1542.27 Q750.891 1545.82 754.502 1545.82 Q758.136 1545.82 759.942 1542.27 Q761.771 1538.71 761.771 1531.6 Q761.771 1524.47 759.942 1520.93 Q758.136 1517.37 754.502 1517.37 M754.502 1513.66 Q760.312 1513.66 763.368 1518.27 Q766.447 1522.85 766.447 1531.6 Q766.447 1540.33 763.368 1544.94 Q760.312 1549.52 754.502 1549.52 Q748.692 1549.52 745.613 1544.94 Q742.558 1540.33 742.558 1531.6 Q742.558 1522.85 745.613 1518.27 Q748.692 1513.66 754.502 1513.66 Z" fill="#000000" fill-rule="evenodd" fill-opacity="1" /><path clip-path="url(#clip630)" d="M1262.86 1544.91 L1270.49 1544.91 L1270.49 1518.55 L1262.18 1520.21 L1262.18 1515.95 L1270.45 1514.29 L1275.12 1514.29 L1275.12 1544.91 L1282.76 1544.91 L1282.76 1548.85 L1262.86 1548.85 L1262.86 1544.91 Z" fill="#000000" fill-rule="evenodd" fill-opacity="1" /><path clip-path="url(#clip630)" d="M1785.1 1544.91 L1801.42 1544.91 L1801.42 1548.85 L1779.47 1548.85 L1779.47 1544.91 Q1782.13 1542.16 1786.72 1537.53 Q1791.32 1532.88 1792.5 1531.53 Q1794.75 1529.01 1795.63 1527.27 Q1796.53 1525.51 1796.53 1523.82 Q1796.53 1521.07 1794.59 1519.33 Q1792.67 1517.6 1789.56 1517.6 Q1787.37 1517.6 1784.91 1518.36 Q1782.48 1519.13 1779.7 1520.68 L1779.7 1515.95 Q1782.53 1514.82 1784.98 1514.24 Q1787.44 1513.66 1789.47 1513.66 Q1794.84 1513.66 1798.04 1516.35 Q1801.23 1519.03 1801.23 1523.52 Q1801.23 1525.65 1800.42 1527.57 Q1799.63 1529.47 1797.53 1532.07 Q1796.95 1532.74 1793.85 1535.95 Q1790.75 1539.15 1785.1 1544.91 Z" fill="#000000" fill-rule="evenodd" fill-opacity="1" /><path clip-path="url(#clip630)" d="M2312.66 1530.21 Q2316.02 1530.93 2317.89 1533.2 Q2319.79 1535.47 2319.79 1538.8 Q2319.79 1543.92 2316.27 1546.72 Q2312.76 1549.52 2306.27 1549.52 Q2304.1 1549.52 2301.78 1549.08 Q2299.49 1548.66 2297.04 1547.81 L2297.04 1543.29 Q2298.98 1544.43 2301.3 1545.01 Q2303.61 1545.58 2306.14 1545.58 Q2310.53 1545.58 2312.83 1543.85 Q2315.14 1542.11 2315.14 1538.8 Q2315.14 1535.75 2312.99 1534.03 Q2310.86 1532.3 2307.04 1532.3 L2303.01 1532.3 L2303.01 1528.45 L2307.22 1528.45 Q2310.67 1528.45 2312.5 1527.09 Q2314.33 1525.7 2314.33 1523.11 Q2314.33 1520.45 2312.43 1519.03 Q2310.56 1517.6 2307.04 1517.6 Q2305.12 1517.6 2302.92 1518.01 Q2300.72 1518.43 2298.08 1519.31 L2298.08 1515.14 Q2300.74 1514.4 2303.06 1514.03 Q2305.39 1513.66 2307.45 1513.66 Q2312.78 1513.66 2315.88 1516.09 Q2318.98 1518.5 2318.98 1522.62 Q2318.98 1525.49 2317.34 1527.48 Q2315.7 1529.45 2312.66 1530.21 Z" fill="#000000" fill-rule="evenodd" fill-opacity="1" /><polyline clip-path="url(#clip632)" style="stroke:#000000; stroke-linecap:butt; stroke-linejoin:round; stroke-width:2; stroke-opacity:0.1; fill:none" points="
  707.951,1349.03 2352.76,1349.03 
  "/>
<polyline clip-path="url(#clip632)" style="stroke:#000000; stroke-linecap:butt; stroke-linejoin:round; stroke-width:2; stroke-opacity:0.1; fill:none" points="
  707.951,1014.3 2352.76,1014.3 
  "/>
<polyline clip-path="url(#clip632)" style="stroke:#000000; stroke-linecap:butt; stroke-linejoin:round; stroke-width:2; stroke-opacity:0.1; fill:none" points="
  707.951,679.572 2352.76,679.572 
  "/>
<polyline clip-path="url(#clip632)" style="stroke:#000000; stroke-linecap:butt; stroke-linejoin:round; stroke-width:2; stroke-opacity:0.1; fill:none" points="
  707.951,344.845 2352.76,344.845 
  "/>
<polyline clip-path="url(#clip630)" style="stroke:#000000; stroke-linecap:butt; stroke-linejoin:round; stroke-width:4; stroke-opacity:1; fill:none" points="
  707.951,1486.45 707.951,123.472 
  "/>
<polyline clip-path="url(#clip630)" style="stroke:#000000; stroke-linecap:butt; stroke-linejoin:round; stroke-width:4; stroke-opacity:1; fill:none" points="
  707.951,1349.03 722.299,1349.03 
  "/>
<polyline clip-path="url(#clip630)" style="stroke:#000000; stroke-linecap:butt; stroke-linejoin:round; stroke-width:4; stroke-opacity:1; fill:none" points="
  707.951,1014.3 722.299,1014.3 
  "/>
<polyline clip-path="url(#clip630)" style="stroke:#000000; stroke-linecap:butt; stroke-linejoin:round; stroke-width:4; stroke-opacity:1; fill:none" points="
  707.951,679.572 722.299,679.572 
  "/>
<polyline clip-path="url(#clip630)" style="stroke:#000000; stroke-linecap:butt; stroke-linejoin:round; stroke-width:4; stroke-opacity:1; fill:none" points="
  707.951,344.845 722.299,344.845 
  "/>
<path clip-path="url(#clip630)" d="M584.452 1334.83 Q580.841 1334.83 579.012 1338.39 Q577.206 1341.93 577.206 1349.06 Q577.206 1356.17 579.012 1359.73 Q580.841 1363.27 584.452 1363.27 Q588.086 1363.27 589.891 1359.73 Q591.72 1356.17 591.72 1349.06 Q591.72 1341.93 589.891 1338.39 Q588.086 1334.83 584.452 1334.83 M584.452 1331.12 Q590.262 1331.12 593.317 1335.73 Q596.396 1340.31 596.396 1349.06 Q596.396 1357.79 593.317 1362.4 Q590.262 1366.98 584.452 1366.98 Q578.641 1366.98 575.563 1362.4 Q572.507 1357.79 572.507 1349.06 Q572.507 1340.31 575.563 1335.73 Q578.641 1331.12 584.452 1331.12 Z" fill="#000000" fill-rule="evenodd" fill-opacity="1" /><path clip-path="url(#clip630)" d="M604.614 1360.43 L609.498 1360.43 L609.498 1366.31 L604.614 1366.31 L604.614 1360.43 Z" fill="#000000" fill-rule="evenodd" fill-opacity="1" /><path clip-path="url(#clip630)" d="M619.729 1331.75 L638.086 1331.75 L638.086 1335.68 L624.012 1335.68 L624.012 1344.15 Q625.03 1343.81 626.049 1343.65 Q627.067 1343.46 628.086 1343.46 Q633.873 1343.46 637.252 1346.63 Q640.632 1349.8 640.632 1355.22 Q640.632 1360.8 637.16 1363.9 Q633.687 1366.98 627.368 1366.98 Q625.192 1366.98 622.924 1366.61 Q620.678 1366.24 618.271 1365.5 L618.271 1360.8 Q620.354 1361.93 622.576 1362.49 Q624.799 1363.04 627.275 1363.04 Q631.28 1363.04 633.618 1360.94 Q635.956 1358.83 635.956 1355.22 Q635.956 1351.61 633.618 1349.5 Q631.28 1347.4 627.275 1347.4 Q625.4 1347.4 623.525 1347.81 Q621.674 1348.23 619.729 1349.11 L619.729 1331.75 Z" fill="#000000" fill-rule="evenodd" fill-opacity="1" /><path clip-path="url(#clip630)" d="M660.423 1347.16 Q657.275 1347.16 655.423 1349.32 Q653.595 1351.47 653.595 1355.22 Q653.595 1358.95 655.423 1361.12 Q657.275 1363.27 660.423 1363.27 Q663.572 1363.27 665.4 1361.12 Q667.252 1358.95 667.252 1355.22 Q667.252 1351.47 665.4 1349.32 Q663.572 1347.16 660.423 1347.16 M669.706 1332.51 L669.706 1336.77 Q667.947 1335.94 666.141 1335.5 Q664.359 1335.06 662.599 1335.06 Q657.97 1335.06 655.516 1338.18 Q653.085 1341.31 652.738 1347.63 Q654.104 1345.61 656.164 1344.55 Q658.224 1343.46 660.701 1343.46 Q665.909 1343.46 668.919 1346.63 Q671.951 1349.78 671.951 1355.22 Q671.951 1360.54 668.803 1363.76 Q665.655 1366.98 660.423 1366.98 Q654.428 1366.98 651.257 1362.4 Q648.086 1357.79 648.086 1349.06 Q648.086 1340.87 651.974 1336.01 Q655.863 1331.12 662.414 1331.12 Q664.173 1331.12 665.956 1331.47 Q667.761 1331.82 669.706 1332.51 Z" fill="#000000" fill-rule="evenodd" fill-opacity="1" /><path clip-path="url(#clip630)" d="M585.516 1000.1 Q581.905 1000.1 580.077 1003.66 Q578.271 1007.2 578.271 1014.33 Q578.271 1021.44 580.077 1025.01 Q581.905 1028.55 585.516 1028.55 Q589.151 1028.55 590.956 1025.01 Q592.785 1021.44 592.785 1014.33 Q592.785 1007.2 590.956 1003.66 Q589.151 1000.1 585.516 1000.1 M585.516 996.395 Q591.327 996.395 594.382 1001 Q597.461 1005.58 597.461 1014.33 Q597.461 1023.06 594.382 1027.67 Q591.327 1032.25 585.516 1032.25 Q579.706 1032.25 576.628 1027.67 Q573.572 1023.06 573.572 1014.33 Q573.572 1005.58 576.628 1001 Q579.706 996.395 585.516 996.395 Z" fill="#000000" fill-rule="evenodd" fill-opacity="1" /><path clip-path="url(#clip630)" d="M605.678 1025.7 L610.563 1025.7 L610.563 1031.58 L605.678 1031.58 L605.678 1025.7 Z" fill="#000000" fill-rule="evenodd" fill-opacity="1" /><path clip-path="url(#clip630)" d="M620.794 997.02 L639.15 997.02 L639.15 1000.96 L625.076 1000.96 L625.076 1009.43 Q626.095 1009.08 627.113 1008.92 Q628.132 1008.73 629.15 1008.73 Q634.937 1008.73 638.317 1011.9 Q641.697 1015.08 641.697 1020.49 Q641.697 1026.07 638.224 1029.17 Q634.752 1032.25 628.433 1032.25 Q626.257 1032.25 623.988 1031.88 Q621.743 1031.51 619.336 1030.77 L619.336 1026.07 Q621.419 1027.2 623.641 1027.76 Q625.863 1028.32 628.34 1028.32 Q632.345 1028.32 634.683 1026.21 Q637.021 1024.1 637.021 1020.49 Q637.021 1016.88 634.683 1014.77 Q632.345 1012.67 628.34 1012.67 Q626.465 1012.67 624.59 1013.08 Q622.738 1013.5 620.794 1014.38 L620.794 997.02 Z" fill="#000000" fill-rule="evenodd" fill-opacity="1" /><path clip-path="url(#clip630)" d="M649.729 997.02 L671.951 997.02 L671.951 999.011 L659.405 1031.58 L654.521 1031.58 L666.326 1000.96 L649.729 1000.96 L649.729 997.02 Z" fill="#000000" fill-rule="evenodd" fill-opacity="1" /><path clip-path="url(#clip630)" d="M584.706 665.371 Q581.095 665.371 579.266 668.936 Q577.461 672.477 577.461 679.607 Q577.461 686.713 579.266 690.278 Q581.095 693.82 584.706 693.82 Q588.34 693.82 590.146 690.278 Q591.975 686.713 591.975 679.607 Q591.975 672.477 590.146 668.936 Q588.34 665.371 584.706 665.371 M584.706 661.667 Q590.516 661.667 593.572 666.274 Q596.651 670.857 596.651 679.607 Q596.651 688.334 593.572 692.94 Q590.516 697.524 584.706 697.524 Q578.896 697.524 575.817 692.94 Q572.762 688.334 572.762 679.607 Q572.762 670.857 575.817 666.274 Q578.896 661.667 584.706 661.667 Z" fill="#000000" fill-rule="evenodd" fill-opacity="1" /><path clip-path="url(#clip630)" d="M604.868 690.973 L609.752 690.973 L609.752 696.852 L604.868 696.852 L604.868 690.973 Z" fill="#000000" fill-rule="evenodd" fill-opacity="1" /><path clip-path="url(#clip630)" d="M619.984 662.292 L638.34 662.292 L638.34 666.227 L624.266 666.227 L624.266 674.7 Q625.285 674.352 626.303 674.19 Q627.322 674.005 628.34 674.005 Q634.127 674.005 637.507 677.177 Q640.886 680.348 640.886 685.764 Q640.886 691.343 637.414 694.445 Q633.942 697.524 627.623 697.524 Q625.447 697.524 623.178 697.153 Q620.933 696.783 618.525 696.042 L618.525 691.343 Q620.609 692.477 622.831 693.033 Q625.053 693.588 627.53 693.588 Q631.535 693.588 633.873 691.482 Q636.211 689.376 636.211 685.764 Q636.211 682.153 633.873 680.047 Q631.535 677.94 627.53 677.94 Q625.655 677.94 623.78 678.357 Q621.928 678.774 619.984 679.653 L619.984 662.292 Z" fill="#000000" fill-rule="evenodd" fill-opacity="1" /><path clip-path="url(#clip630)" d="M660.099 680.44 Q656.766 680.44 654.845 682.223 Q652.947 684.005 652.947 687.13 Q652.947 690.255 654.845 692.038 Q656.766 693.82 660.099 693.82 Q663.433 693.82 665.354 692.038 Q667.275 690.232 667.275 687.13 Q667.275 684.005 665.354 682.223 Q663.456 680.44 660.099 680.44 M655.423 678.45 Q652.414 677.709 650.724 675.649 Q649.058 673.589 649.058 670.626 Q649.058 666.482 651.998 664.075 Q654.96 661.667 660.099 661.667 Q665.261 661.667 668.201 664.075 Q671.141 666.482 671.141 670.626 Q671.141 673.589 669.451 675.649 Q667.784 677.709 664.798 678.45 Q668.178 679.237 670.053 681.528 Q671.951 683.82 671.951 687.13 Q671.951 692.153 668.872 694.838 Q665.817 697.524 660.099 697.524 Q654.382 697.524 651.303 694.838 Q648.248 692.153 648.248 687.13 Q648.248 683.82 650.146 681.528 Q652.044 679.237 655.423 678.45 M653.71 671.065 Q653.71 673.751 655.377 675.255 Q657.067 676.76 660.099 676.76 Q663.109 676.76 664.798 675.255 Q666.511 673.751 666.511 671.065 Q666.511 668.38 664.798 666.876 Q663.109 665.371 660.099 665.371 Q657.067 665.371 655.377 666.876 Q653.71 668.38 653.71 671.065 Z" fill="#000000" fill-rule="evenodd" fill-opacity="1" /><path clip-path="url(#clip630)" d="M584.799 330.643 Q581.188 330.643 579.359 334.208 Q577.553 337.75 577.553 344.88 Q577.553 351.986 579.359 355.551 Q581.188 359.092 584.799 359.092 Q588.433 359.092 590.239 355.551 Q592.067 351.986 592.067 344.88 Q592.067 337.75 590.239 334.208 Q588.433 330.643 584.799 330.643 M584.799 326.94 Q590.609 326.94 593.665 331.546 Q596.743 336.13 596.743 344.88 Q596.743 353.606 593.665 358.213 Q590.609 362.796 584.799 362.796 Q578.989 362.796 575.91 358.213 Q572.854 353.606 572.854 344.88 Q572.854 336.13 575.91 331.546 Q578.989 326.94 584.799 326.94 Z" fill="#000000" fill-rule="evenodd" fill-opacity="1" /><path clip-path="url(#clip630)" d="M604.961 356.245 L609.845 356.245 L609.845 362.125 L604.961 362.125 L604.961 356.245 Z" fill="#000000" fill-rule="evenodd" fill-opacity="1" /><path clip-path="url(#clip630)" d="M620.076 327.565 L638.433 327.565 L638.433 331.5 L624.359 331.5 L624.359 339.972 Q625.377 339.625 626.396 339.463 Q627.414 339.278 628.433 339.278 Q634.22 339.278 637.599 342.449 Q640.979 345.62 640.979 351.037 Q640.979 356.616 637.507 359.717 Q634.035 362.796 627.715 362.796 Q625.539 362.796 623.271 362.426 Q621.025 362.055 618.618 361.315 L618.618 356.616 Q620.701 357.75 622.924 358.305 Q625.146 358.861 627.623 358.861 Q631.627 358.861 633.965 356.754 Q636.303 354.648 636.303 351.037 Q636.303 347.426 633.965 345.319 Q631.627 343.213 627.623 343.213 Q625.748 343.213 623.873 343.63 Q622.021 344.046 620.076 344.926 L620.076 327.565 Z" fill="#000000" fill-rule="evenodd" fill-opacity="1" /><path clip-path="url(#clip630)" d="M650.331 361.407 L650.331 357.148 Q652.09 357.981 653.896 358.421 Q655.701 358.861 657.437 358.861 Q662.067 358.861 664.497 355.759 Q666.951 352.634 667.298 346.292 Q665.956 348.282 663.896 349.347 Q661.835 350.412 659.335 350.412 Q654.15 350.412 651.118 347.287 Q648.109 344.139 648.109 338.699 Q648.109 333.375 651.257 330.157 Q654.405 326.94 659.636 326.94 Q665.632 326.94 668.78 331.546 Q671.951 336.13 671.951 344.88 Q671.951 353.051 668.062 357.935 Q664.197 362.796 657.646 362.796 Q655.886 362.796 654.081 362.449 Q652.275 362.102 650.331 361.407 M659.636 346.755 Q662.785 346.755 664.613 344.602 Q666.465 342.449 666.465 338.699 Q666.465 334.972 664.613 332.819 Q662.785 330.643 659.636 330.643 Q656.488 330.643 654.636 332.819 Q652.808 334.972 652.808 338.699 Q652.808 342.449 654.636 344.602 Q656.488 346.755 659.636 346.755 Z" fill="#000000" fill-rule="evenodd" fill-opacity="1" /><path clip-path="url(#clip630)" d="M1370.24 20.1573 L1359.14 50.2555 L1381.38 50.2555 L1370.24 20.1573 M1365.62 12.096 L1374.9 12.096 L1397.95 72.576 L1389.44 72.576 L1383.93 57.061 L1356.67 57.061 L1351.16 72.576 L1342.53 72.576 L1365.62 12.096 Z" fill="#000000" fill-rule="evenodd" fill-opacity="1" /><path clip-path="url(#clip630)" d="M1437.65 28.9478 L1437.65 35.9153 Q1434.49 34.1734 1431.29 33.3227 Q1428.13 32.4315 1424.89 32.4315 Q1417.64 32.4315 1413.63 37.0496 Q1409.62 41.6271 1409.62 49.9314 Q1409.62 58.2358 1413.63 62.8538 Q1417.64 67.4314 1424.89 67.4314 Q1428.13 67.4314 1431.29 66.5807 Q1434.49 65.6895 1437.65 63.9476 L1437.65 70.8341 Q1434.53 72.2924 1431.17 73.0216 Q1427.85 73.7508 1424.08 73.7508 Q1413.83 73.7508 1407.79 67.3098 Q1401.76 60.8689 1401.76 49.9314 Q1401.76 38.832 1407.83 32.472 Q1413.95 26.1121 1424.56 26.1121 Q1428.01 26.1121 1431.29 26.8413 Q1434.57 27.5299 1437.65 28.9478 Z" fill="#000000" fill-rule="evenodd" fill-opacity="1" /><path clip-path="url(#clip630)" d="M1483.26 28.9478 L1483.26 35.9153 Q1480.1 34.1734 1476.9 33.3227 Q1473.74 32.4315 1470.5 32.4315 Q1463.25 32.4315 1459.24 37.0496 Q1455.23 41.6271 1455.23 49.9314 Q1455.23 58.2358 1459.24 62.8538 Q1463.25 67.4314 1470.5 67.4314 Q1473.74 67.4314 1476.9 66.5807 Q1480.1 65.6895 1483.26 63.9476 L1483.26 70.8341 Q1480.14 72.2924 1476.78 73.0216 Q1473.46 73.7508 1469.69 73.7508 Q1459.44 73.7508 1453.41 67.3098 Q1447.37 60.8689 1447.37 49.9314 Q1447.37 38.832 1453.45 32.472 Q1459.56 26.1121 1470.18 26.1121 Q1473.62 26.1121 1476.9 26.8413 Q1480.18 27.5299 1483.26 28.9478 Z" fill="#000000" fill-rule="evenodd" fill-opacity="1" /><path clip-path="url(#clip630)" d="M1495.45 54.671 L1495.45 27.2059 L1502.91 27.2059 L1502.91 54.3874 Q1502.91 60.8284 1505.42 64.0691 Q1507.93 67.2693 1512.95 67.2693 Q1518.99 67.2693 1522.47 63.421 Q1526 59.5726 1526 52.9291 L1526 27.2059 L1533.45 27.2059 L1533.45 72.576 L1526 72.576 L1526 65.6084 Q1523.28 69.7404 1519.68 71.7658 Q1516.11 73.7508 1511.38 73.7508 Q1503.56 73.7508 1499.51 68.8897 Q1495.45 64.0286 1495.45 54.671 M1514.21 26.1121 L1514.21 26.1121 Z" fill="#000000" fill-rule="evenodd" fill-opacity="1" /><path clip-path="url(#clip630)" d="M1575.1 34.1734 Q1573.84 33.4443 1572.34 33.1202 Q1570.88 32.7556 1569.1 32.7556 Q1562.78 32.7556 1559.38 36.8875 Q1556.02 40.9789 1556.02 48.6757 L1556.02 72.576 L1548.52 72.576 L1548.52 27.2059 L1556.02 27.2059 L1556.02 34.2544 Q1558.37 30.1225 1562.13 28.1376 Q1565.9 26.1121 1571.29 26.1121 Q1572.06 26.1121 1572.99 26.2337 Q1573.92 26.3147 1575.06 26.5172 L1575.1 34.1734 Z" fill="#000000" fill-rule="evenodd" fill-opacity="1" /><path clip-path="url(#clip630)" d="M1603.53 49.7694 Q1594.5 49.7694 1591.02 51.8354 Q1587.53 53.9013 1587.53 58.8839 Q1587.53 62.8538 1590.12 65.2034 Q1592.76 67.5124 1597.25 67.5124 Q1603.45 67.5124 1607.18 63.1374 Q1610.95 58.7219 1610.95 51.4303 L1610.95 49.7694 L1603.53 49.7694 M1618.4 46.6907 L1618.4 72.576 L1610.95 72.576 L1610.95 65.6895 Q1608.39 69.8214 1604.59 71.8063 Q1600.78 73.7508 1595.27 73.7508 Q1588.3 73.7508 1584.17 69.8619 Q1580.08 65.9325 1580.08 59.3701 Q1580.08 51.7138 1585.18 47.825 Q1590.33 43.9361 1600.49 43.9361 L1610.95 43.9361 L1610.95 43.2069 Q1610.95 38.0623 1607.54 35.2672 Q1604.18 32.4315 1598.06 32.4315 Q1594.18 32.4315 1590.49 33.3632 Q1586.8 34.295 1583.4 36.1584 L1583.4 29.2718 Q1587.49 27.692 1591.34 26.9223 Q1595.19 26.1121 1598.83 26.1121 Q1608.68 26.1121 1613.54 31.2163 Q1618.4 36.3204 1618.4 46.6907 Z" fill="#000000" fill-rule="evenodd" fill-opacity="1" /><path clip-path="url(#clip630)" d="M1666.4 28.9478 L1666.4 35.9153 Q1663.24 34.1734 1660.04 33.3227 Q1656.88 32.4315 1653.64 32.4315 Q1646.39 32.4315 1642.38 37.0496 Q1638.37 41.6271 1638.37 49.9314 Q1638.37 58.2358 1642.38 62.8538 Q1646.39 67.4314 1653.64 67.4314 Q1656.88 67.4314 1660.04 66.5807 Q1663.24 65.6895 1666.4 63.9476 L1666.4 70.8341 Q1663.28 72.2924 1659.92 73.0216 Q1656.6 73.7508 1652.83 73.7508 Q1642.58 73.7508 1636.55 67.3098 Q1630.51 60.8689 1630.51 49.9314 Q1630.51 38.832 1636.59 32.472 Q1642.71 26.1121 1653.32 26.1121 Q1656.76 26.1121 1660.04 26.8413 Q1663.32 27.5299 1666.4 28.9478 Z" fill="#000000" fill-rule="evenodd" fill-opacity="1" /><path clip-path="url(#clip630)" d="M1698.24 76.7889 Q1695.08 84.8907 1692.09 87.3618 Q1689.09 89.8329 1684.07 89.8329 L1678.11 89.8329 L1678.11 83.5945 L1682.49 83.5945 Q1685.56 83.5945 1687.27 82.1361 Q1688.97 80.6778 1691.03 75.2496 L1692.37 71.8468 L1674.02 27.2059 L1681.92 27.2059 L1696.1 62.6918 L1710.27 27.2059 L1718.17 27.2059 L1698.24 76.7889 Z" fill="#000000" fill-rule="evenodd" fill-opacity="1" /><polyline clip-path="url(#clip632)" style="stroke:#009af9; stroke-linecap:butt; stroke-linejoin:round; stroke-width:4; stroke-opacity:1; fill:none" points="
  754.502,459.416 1113.53,1447.87 1323.55,566.124 1472.56,476.265 1588.14,324.626 1682.58,324.626 1762.43,324.626 1831.59,324.626 1892.6,324.626 1947.17,324.626 
  1996.54,324.626 2041.61,324.626 2083.07,324.626 2121.46,324.626 2157.19,324.626 2190.62,324.626 2222.02,324.626 2251.63,324.626 2279.64,324.626 2306.2,324.626 
  
  "/>
<polyline clip-path="url(#clip632)" style="stroke:#e26f46; stroke-linecap:butt; stroke-linejoin:round; stroke-width:4; stroke-opacity:1; fill:none" points="
  754.502,531.019 1113.53,1155.62 1323.55,408.028 1472.56,427.321 1588.14,162.047 1682.58,162.047 1762.43,162.047 1831.59,162.047 1892.6,162.047 1947.17,162.047 
  1996.54,162.047 2041.61,162.047 2083.07,162.047 2121.46,162.047 2157.19,162.047 2190.62,162.047 2222.02,162.047 2251.63,162.047 2279.64,162.047 2306.2,162.047 
  
  "/>
<path clip-path="url(#clip630)" d="
M114.225 324.425 L464.086 324.425 L464.086 168.905 L114.225 168.905  Z
  " fill="#ffffff" fill-rule="evenodd" fill-opacity="1"/>
<polyline clip-path="url(#clip630)" style="stroke:#000000; stroke-linecap:butt; stroke-linejoin:round; stroke-width:4; stroke-opacity:1; fill:none" points="
  114.225,324.425 464.086,324.425 464.086,168.905 114.225,168.905 114.225,324.425 
  "/>
<polyline clip-path="url(#clip630)" style="stroke:#009af9; stroke-linecap:butt; stroke-linejoin:round; stroke-width:4; stroke-opacity:1; fill:none" points="
  138.225,220.745 282.225,220.745 
  "/>
<path clip-path="url(#clip630)" d="M306.225 203.465 L335.461 203.465 L335.461 207.4 L323.193 207.4 L323.193 238.025 L318.494 238.025 L318.494 207.4 L306.225 207.4 L306.225 203.465 Z" fill="#000000" fill-rule="evenodd" fill-opacity="1" /><path clip-path="url(#clip630)" d="M353.91 223.997 L353.91 226.08 L334.327 226.08 Q334.605 230.478 336.966 232.793 Q339.35 235.085 343.586 235.085 Q346.04 235.085 348.332 234.483 Q350.646 233.881 352.915 232.677 L352.915 236.705 Q350.623 237.677 348.216 238.187 Q345.808 238.696 343.332 238.696 Q337.128 238.696 333.494 235.085 Q329.883 231.474 329.883 225.316 Q329.883 218.951 333.309 215.224 Q336.758 211.474 342.591 211.474 Q347.822 211.474 350.855 214.853 Q353.91 218.21 353.91 223.997 M349.651 222.747 Q349.605 219.252 347.683 217.168 Q345.785 215.085 342.637 215.085 Q339.072 215.085 336.92 217.099 Q334.79 219.113 334.466 222.77 L349.651 222.747 Z" fill="#000000" fill-rule="evenodd" fill-opacity="1" /><path clip-path="url(#clip630)" d="M377.429 212.863 L377.429 216.891 Q375.623 215.965 373.679 215.502 Q371.734 215.039 369.651 215.039 Q366.48 215.039 364.882 216.011 Q363.308 216.983 363.308 218.928 Q363.308 220.409 364.443 221.265 Q365.577 222.099 369.003 222.863 L370.461 223.187 Q374.998 224.159 376.896 225.941 Q378.818 227.701 378.818 230.872 Q378.818 234.483 375.947 236.589 Q373.1 238.696 368.1 238.696 Q366.017 238.696 363.748 238.279 Q361.503 237.886 359.003 237.076 L359.003 232.677 Q361.364 233.904 363.656 234.529 Q365.947 235.131 368.193 235.131 Q371.202 235.131 372.822 234.113 Q374.443 233.071 374.443 231.196 Q374.443 229.46 373.262 228.534 Q372.105 227.608 368.146 226.752 L366.665 226.404 Q362.707 225.571 360.947 223.858 Q359.188 222.122 359.188 219.113 Q359.188 215.455 361.781 213.465 Q364.373 211.474 369.142 211.474 Q371.503 211.474 373.586 211.821 Q375.669 212.168 377.429 212.863 Z" fill="#000000" fill-rule="evenodd" fill-opacity="1" /><path clip-path="url(#clip630)" d="M389.813 204.738 L389.813 212.099 L398.586 212.099 L398.586 215.409 L389.813 215.409 L389.813 229.483 Q389.813 232.654 390.669 233.557 Q391.549 234.46 394.211 234.46 L398.586 234.46 L398.586 238.025 L394.211 238.025 Q389.28 238.025 387.405 236.196 Q385.531 234.344 385.531 229.483 L385.531 215.409 L382.406 215.409 L382.406 212.099 L385.531 212.099 L385.531 204.738 L389.813 204.738 Z" fill="#000000" fill-rule="evenodd" fill-opacity="1" /><polyline clip-path="url(#clip630)" style="stroke:#e26f46; stroke-linecap:butt; stroke-linejoin:round; stroke-width:4; stroke-opacity:1; fill:none" points="
  138.225,272.585 282.225,272.585 
  "/>
<path clip-path="url(#clip630)" d="M306.225 255.305 L335.461 255.305 L335.461 259.24 L323.193 259.24 L323.193 289.865 L318.494 289.865 L318.494 259.24 L306.225 259.24 L306.225 255.305 Z" fill="#000000" fill-rule="evenodd" fill-opacity="1" /><path clip-path="url(#clip630)" d="M347.846 267.92 Q347.128 267.504 346.271 267.318 Q345.438 267.11 344.42 267.11 Q340.809 267.11 338.864 269.471 Q336.943 271.809 336.943 276.207 L336.943 289.865 L332.66 289.865 L332.66 263.939 L336.943 263.939 L336.943 267.967 Q338.285 265.606 340.438 264.471 Q342.591 263.314 345.67 263.314 Q346.109 263.314 346.642 263.383 Q347.174 263.43 347.822 263.545 L347.846 267.92 Z" fill="#000000" fill-rule="evenodd" fill-opacity="1" /><path clip-path="url(#clip630)" d="M364.095 276.832 Q358.933 276.832 356.943 278.013 Q354.952 279.193 354.952 282.041 Q354.952 284.309 356.433 285.652 Q357.938 286.971 360.507 286.971 Q364.049 286.971 366.179 284.471 Q368.332 281.948 368.332 277.781 L368.332 276.832 L364.095 276.832 M372.591 275.073 L372.591 289.865 L368.332 289.865 L368.332 285.929 Q366.873 288.291 364.697 289.425 Q362.521 290.536 359.373 290.536 Q355.392 290.536 353.031 288.314 Q350.693 286.068 350.693 282.318 Q350.693 277.943 353.609 275.721 Q356.549 273.499 362.359 273.499 L368.332 273.499 L368.332 273.082 Q368.332 270.143 366.387 268.545 Q364.466 266.925 360.97 266.925 Q358.748 266.925 356.642 267.457 Q354.535 267.99 352.591 269.055 L352.591 265.119 Q354.929 264.217 357.128 263.777 Q359.327 263.314 361.41 263.314 Q367.035 263.314 369.813 266.231 Q372.591 269.147 372.591 275.073 Z" fill="#000000" fill-rule="evenodd" fill-opacity="1" /><path clip-path="url(#clip630)" d="M381.364 263.939 L385.623 263.939 L385.623 289.865 L381.364 289.865 L381.364 263.939 M381.364 253.846 L385.623 253.846 L385.623 259.24 L381.364 259.24 L381.364 253.846 Z" fill="#000000" fill-rule="evenodd" fill-opacity="1" /><path clip-path="url(#clip630)" d="M416.086 274.217 L416.086 289.865 L411.827 289.865 L411.827 274.355 Q411.827 270.675 410.391 268.846 Q408.956 267.018 406.086 267.018 Q402.637 267.018 400.646 269.217 Q398.655 271.416 398.655 275.212 L398.655 289.865 L394.373 289.865 L394.373 263.939 L398.655 263.939 L398.655 267.967 Q400.183 265.629 402.243 264.471 Q404.327 263.314 407.035 263.314 Q411.503 263.314 413.794 266.092 Q416.086 268.846 416.086 274.217 Z" fill="#000000" fill-rule="evenodd" fill-opacity="1" /></svg>
