<?xml version="1.0" encoding="utf-8"?>
<svg xmlns="http://www.w3.org/2000/svg" xmlns:xlink="http://www.w3.org/1999/xlink" width="600" height="400" viewBox="0 0 2400 1600">
<defs>
  <clipPath id="clip360">
    <rect x="0" y="0" width="2400" height="1600"/>
  </clipPath>
</defs>
<path clip-path="url(#clip360)" d="
M0 1600 L2400 1600 L2400 0 L0 0  Z
  " fill="#ffffff" fill-rule="evenodd" fill-opacity="1"/>
<defs>
  <clipPath id="clip361">
    <rect x="480" y="0" width="1681" height="1600"/>
  </clipPath>
</defs>
<path clip-path="url(#clip360)" d="
M692.373 1486.45 L2352.76 1486.45 L2352.76 123.472 L692.373 123.472  Z
  " fill="#ffffff" fill-rule="evenodd" fill-opacity="1"/>
<defs>
  <clipPath id="clip362">
    <rect x="692" y="123" width="1661" height="1364"/>
  </clipPath>
</defs>
<polyline clip-path="url(#clip362)" style="stroke:#000000; stroke-linecap:butt; stroke-linejoin:round; stroke-width:2; stroke-opacity:0.1; fill:none" points="
  723.542,1486.45 723.542,123.472 
  "/>
<polyline clip-path="url(#clip362)" style="stroke:#000000; stroke-linecap:butt; stroke-linejoin:round; stroke-width:2; stroke-opacity:0.1; fill:none" points="
  1119.1,1486.45 1119.1,123.472 
  "/>
<polyline clip-path="url(#clip362)" style="stroke:#000000; stroke-linecap:butt; stroke-linejoin:round; stroke-width:2; stroke-opacity:0.1; fill:none" points="
  1514.65,1486.45 1514.65,123.472 
  "/>
<polyline clip-path="url(#clip362)" style="stroke:#000000; stroke-linecap:butt; stroke-linejoin:round; stroke-width:2; stroke-opacity:0.1; fill:none" points="
  1910.21,1486.45 1910.21,123.472 
  "/>
<polyline clip-path="url(#clip362)" style="stroke:#000000; stroke-linecap:butt; stroke-linejoin:round; stroke-width:2; stroke-opacity:0.1; fill:none" points="
  2305.76,1486.45 2305.76,123.472 
  "/>
<polyline clip-path="url(#clip360)" style="stroke:#000000; stroke-linecap:butt; stroke-linejoin:round; stroke-width:4; stroke-opacity:1; fill:none" points="
  692.373,1486.45 2352.76,1486.45 
  "/>
<polyline clip-path="url(#clip360)" style="stroke:#000000; stroke-linecap:butt; stroke-linejoin:round; stroke-width:4; stroke-opacity:1; fill:none" points="
  723.542,1486.45 723.542,1467.55 
  "/>
<polyline clip-path="url(#clip360)" style="stroke:#000000; stroke-linecap:butt; stroke-linejoin:round; stroke-width:4; stroke-opacity:1; fill:none" points="
  1119.1,1486.45 1119.1,1467.55 
  "/>
<polyline clip-path="url(#clip360)" style="stroke:#000000; stroke-linecap:butt; stroke-linejoin:round; stroke-width:4; stroke-opacity:1; fill:none" points="
  1514.65,1486.45 1514.65,1467.55 
  "/>
<polyline clip-path="url(#clip360)" style="stroke:#000000; stroke-linecap:butt; stroke-linejoin:round; stroke-width:4; stroke-opacity:1; fill:none" points="
  1910.21,1486.45 1910.21,1467.55 
  "/>
<polyline clip-path="url(#clip360)" style="stroke:#000000; stroke-linecap:butt; stroke-linejoin:round; stroke-width:4; stroke-opacity:1; fill:none" points="
  2305.76,1486.45 2305.76,1467.55 
  "/>
<path clip-path="url(#clip360)" d="M723.542 1517.37 Q719.931 1517.37 718.102 1520.93 Q716.297 1524.47 716.297 1531.6 Q716.297 1538.71 718.102 1542.27 Q719.931 1545.82 723.542 1545.82 Q727.177 1545.82 728.982 1542.27 Q730.811 1538.71 730.811 1531.6 Q730.811 1524.47 728.982 1520.93 Q727.177 1517.37 723.542 1517.37 M723.542 1513.66 Q729.352 1513.66 732.408 1518.27 Q735.487 1522.85 735.487 1531.6 Q735.487 1540.33 732.408 1544.94 Q729.352 1549.52 723.542 1549.52 Q717.732 1549.52 714.653 1544.94 Q711.598 1540.33 711.598 1531.6 Q711.598 1522.85 714.653 1518.27 Q717.732 1513.66 723.542 1513.66 Z" fill="#000000" fill-rule="evenodd" fill-opacity="1" /><path clip-path="url(#clip360)" d="M1098.37 1544.91 L1114.69 1544.91 L1114.69 1548.85 L1092.74 1548.85 L1092.74 1544.91 Q1095.41 1542.16 1099.99 1537.53 Q1104.6 1532.88 1105.78 1531.53 Q1108.02 1529.01 1108.9 1527.27 Q1109.8 1525.51 1109.8 1523.82 Q1109.8 1521.07 1107.86 1519.33 Q1105.94 1517.6 1102.84 1517.6 Q1100.64 1517.6 1098.18 1518.36 Q1095.75 1519.13 1092.98 1520.68 L1092.98 1515.95 Q1095.8 1514.82 1098.25 1514.24 Q1100.71 1513.66 1102.74 1513.66 Q1108.11 1513.66 1111.31 1516.35 Q1114.5 1519.03 1114.5 1523.52 Q1114.5 1525.65 1113.69 1527.57 Q1112.91 1529.47 1110.8 1532.07 Q1110.22 1532.74 1107.12 1535.95 Q1104.02 1539.15 1098.37 1544.91 Z" fill="#000000" fill-rule="evenodd" fill-opacity="1" /><path clip-path="url(#clip360)" d="M1124.55 1514.29 L1142.91 1514.29 L1142.91 1518.22 L1128.83 1518.22 L1128.83 1526.7 Q1129.85 1526.35 1130.87 1526.19 Q1131.89 1526 1132.91 1526 Q1138.69 1526 1142.07 1529.17 Q1145.45 1532.34 1145.45 1537.76 Q1145.45 1543.34 1141.98 1546.44 Q1138.51 1549.52 1132.19 1549.52 Q1130.01 1549.52 1127.74 1549.15 Q1125.5 1548.78 1123.09 1548.04 L1123.09 1543.34 Q1125.17 1544.47 1127.4 1545.03 Q1129.62 1545.58 1132.1 1545.58 Q1136.1 1545.58 1138.44 1543.48 Q1140.78 1541.37 1140.78 1537.76 Q1140.78 1534.15 1138.44 1532.04 Q1136.1 1529.94 1132.1 1529.94 Q1130.22 1529.94 1128.35 1530.35 Q1126.49 1530.77 1124.55 1531.65 L1124.55 1514.29 Z" fill="#000000" fill-rule="evenodd" fill-opacity="1" /><path clip-path="url(#clip360)" d="M1489.35 1514.29 L1507.71 1514.29 L1507.71 1518.22 L1493.63 1518.22 L1493.63 1526.7 Q1494.65 1526.35 1495.67 1526.19 Q1496.69 1526 1497.71 1526 Q1503.5 1526 1506.88 1529.17 Q1510.25 1532.34 1510.25 1537.76 Q1510.25 1543.34 1506.78 1546.44 Q1503.31 1549.52 1496.99 1549.52 Q1494.82 1549.52 1492.55 1549.15 Q1490.3 1548.78 1487.89 1548.04 L1487.89 1543.34 Q1489.98 1544.47 1492.2 1545.03 Q1494.42 1545.58 1496.9 1545.58 Q1500.9 1545.58 1503.24 1543.48 Q1505.58 1541.37 1505.58 1537.76 Q1505.58 1534.15 1503.24 1532.04 Q1500.9 1529.94 1496.9 1529.94 Q1495.02 1529.94 1493.15 1530.35 Q1491.3 1530.77 1489.35 1531.65 L1489.35 1514.29 Z" fill="#000000" fill-rule="evenodd" fill-opacity="1" /><path clip-path="url(#clip360)" d="M1529.47 1517.37 Q1525.86 1517.37 1524.03 1520.93 Q1522.22 1524.47 1522.22 1531.6 Q1522.22 1538.71 1524.03 1542.27 Q1525.86 1545.82 1529.47 1545.82 Q1533.1 1545.82 1534.91 1542.27 Q1536.74 1538.71 1536.74 1531.6 Q1536.74 1524.47 1534.91 1520.93 Q1533.1 1517.37 1529.47 1517.37 M1529.47 1513.66 Q1535.28 1513.66 1538.33 1518.27 Q1541.41 1522.85 1541.41 1531.6 Q1541.41 1540.33 1538.33 1544.94 Q1535.28 1549.52 1529.47 1549.52 Q1523.66 1549.52 1520.58 1544.94 Q1517.52 1540.33 1517.52 1531.6 Q1517.52 1522.85 1520.58 1518.27 Q1523.66 1513.66 1529.47 1513.66 Z" fill="#000000" fill-rule="evenodd" fill-opacity="1" /><path clip-path="url(#clip360)" d="M1884.06 1514.29 L1906.28 1514.29 L1906.28 1516.28 L1893.74 1548.85 L1888.85 1548.85 L1900.66 1518.22 L1884.06 1518.22 L1884.06 1514.29 Z" fill="#000000" fill-rule="evenodd" fill-opacity="1" /><path clip-path="url(#clip360)" d="M1915.45 1514.29 L1933.81 1514.29 L1933.81 1518.22 L1919.73 1518.22 L1919.73 1526.7 Q1920.75 1526.35 1921.77 1526.19 Q1922.79 1526 1923.81 1526 Q1929.59 1526 1932.97 1529.17 Q1936.35 1532.34 1936.35 1537.76 Q1936.35 1543.34 1932.88 1546.44 Q1929.41 1549.52 1923.09 1549.52 Q1920.91 1549.52 1918.65 1549.15 Q1916.4 1548.78 1913.99 1548.04 L1913.99 1543.34 Q1916.08 1544.47 1918.3 1545.03 Q1920.52 1545.58 1923 1545.58 Q1927 1545.58 1929.34 1543.48 Q1931.68 1541.37 1931.68 1537.76 Q1931.68 1534.15 1929.34 1532.04 Q1927 1529.94 1923 1529.94 Q1921.12 1529.94 1919.25 1530.35 Q1917.4 1530.77 1915.45 1531.65 L1915.45 1514.29 Z" fill="#000000" fill-rule="evenodd" fill-opacity="1" /><path clip-path="url(#clip360)" d="M2265.37 1544.91 L2273.01 1544.91 L2273.01 1518.55 L2264.7 1520.21 L2264.7 1515.95 L2272.96 1514.29 L2277.64 1514.29 L2277.64 1544.91 L2285.28 1544.91 L2285.28 1548.85 L2265.37 1548.85 L2265.37 1544.91 Z" fill="#000000" fill-rule="evenodd" fill-opacity="1" /><path clip-path="url(#clip360)" d="M2304.72 1517.37 Q2301.11 1517.37 2299.28 1520.93 Q2297.48 1524.47 2297.48 1531.6 Q2297.48 1538.71 2299.28 1542.27 Q2301.11 1545.82 2304.72 1545.82 Q2308.36 1545.82 2310.16 1542.27 Q2311.99 1538.71 2311.99 1531.6 Q2311.99 1524.47 2310.16 1520.93 Q2308.36 1517.37 2304.72 1517.37 M2304.72 1513.66 Q2310.53 1513.66 2313.59 1518.27 Q2316.67 1522.85 2316.67 1531.6 Q2316.67 1540.33 2313.59 1544.94 Q2310.53 1549.52 2304.72 1549.52 Q2298.91 1549.52 2295.83 1544.94 Q2292.78 1540.33 2292.78 1531.6 Q2292.78 1522.85 2295.83 1518.27 Q2298.91 1513.66 2304.72 1513.66 Z" fill="#000000" fill-rule="evenodd" fill-opacity="1" /><path clip-path="url(#clip360)" d="M2334.88 1517.37 Q2331.27 1517.37 2329.44 1520.93 Q2327.64 1524.47 2327.64 1531.6 Q2327.64 1538.71 2329.44 1542.27 Q2331.27 1545.82 2334.88 1545.82 Q2338.52 1545.82 2340.32 1542.27 Q2342.15 1538.71 2342.15 1531.6 Q2342.15 1524.47 2340.32 1520.93 Q2338.52 1517.37 2334.88 1517.37 M2334.88 1513.66 Q2340.69 1513.66 2343.75 1518.27 Q2346.83 1522.85 2346.83 1531.6 Q2346.83 1540.33 2343.75 1544.94 Q2340.69 1549.52 2334.88 1549.52 Q2329.07 1549.52 2326 1544.94 Q2322.94 1540.33 2322.94 1531.6 Q2322.94 1522.85 2326 1518.27 Q2329.07 1513.66 2334.88 1513.66 Z" fill="#000000" fill-rule="evenodd" fill-opacity="1" /><polyline clip-path="url(#clip362)" style="stroke:#000000; stroke-linecap:butt; stroke-linejoin:round; stroke-width:2; stroke-opacity:0.1; fill:none" points="
  692.373,1368.5 2352.76,1368.5 
  "/>
<polyline clip-path="url(#clip362)" style="stroke:#000000; stroke-linecap:butt; stroke-linejoin:round; stroke-width:2; stroke-opacity:0.1; fill:none" points="
  692.373,1096.72 2352.76,1096.72 
  "/>
<polyline clip-path="url(#clip362)" style="stroke:#000000; stroke-linecap:butt; stroke-linejoin:round; stroke-width:2; stroke-opacity:0.1; fill:none" points="
  692.373,824.933 2352.76,824.933 
  "/>
<polyline clip-path="url(#clip362)" style="stroke:#000000; stroke-linecap:butt; stroke-linejoin:round; stroke-width:2; stroke-opacity:0.1; fill:none" points="
  692.373,553.147 2352.76,553.147 
  "/>
<polyline clip-path="url(#clip362)" style="stroke:#000000; stroke-linecap:butt; stroke-linejoin:round; stroke-width:2; stroke-opacity:0.1; fill:none" points="
  692.373,281.361 2352.76,281.361 
  "/>
<polyline clip-path="url(#clip360)" style="stroke:#000000; stroke-linecap:butt; stroke-linejoin:round; stroke-width:4; stroke-opacity:1; fill:none" points="
  692.373,1486.45 692.373,123.472 
  "/>
<polyline clip-path="url(#clip360)" style="stroke:#000000; stroke-linecap:butt; stroke-linejoin:round; stroke-width:4; stroke-opacity:1; fill:none" points="
  692.373,1368.5 706.857,1368.5 
  "/>
<polyline clip-path="url(#clip360)" style="stroke:#000000; stroke-linecap:butt; stroke-linejoin:round; stroke-width:4; stroke-opacity:1; fill:none" points="
  692.373,1096.72 706.857,1096.72 
  "/>
<polyline clip-path="url(#clip360)" style="stroke:#000000; stroke-linecap:butt; stroke-linejoin:round; stroke-width:4; stroke-opacity:1; fill:none" points="
  692.373,824.933 706.857,824.933 
  "/>
<polyline clip-path="url(#clip360)" style="stroke:#000000; stroke-linecap:butt; stroke-linejoin:round; stroke-width:4; stroke-opacity:1; fill:none" points="
  692.373,553.147 706.857,553.147 
  "/>
<polyline clip-path="url(#clip360)" style="stroke:#000000; stroke-linecap:butt; stroke-linejoin:round; stroke-width:4; stroke-opacity:1; fill:none" points="
  692.373,281.361 706.857,281.361 
  "/>
<path clip-path="url(#clip360)" d="M569.938 1354.3 Q566.327 1354.3 564.498 1357.87 Q562.692 1361.41 562.692 1368.54 Q562.692 1375.65 564.498 1379.21 Q566.327 1382.75 569.938 1382.75 Q573.572 1382.75 575.378 1379.21 Q577.206 1375.65 577.206 1368.54 Q577.206 1361.41 575.378 1357.87 Q573.572 1354.3 569.938 1354.3 M569.938 1350.6 Q575.748 1350.6 578.803 1355.21 Q581.882 1359.79 581.882 1368.54 Q581.882 1377.27 578.803 1381.87 Q575.748 1386.46 569.938 1386.46 Q564.128 1386.46 561.049 1381.87 Q557.993 1377.27 557.993 1368.54 Q557.993 1359.79 561.049 1355.21 Q564.128 1350.6 569.938 1350.6 Z" fill="#000000" fill-rule="evenodd" fill-opacity="1" /><path clip-path="url(#clip360)" d="M590.1 1379.9 L594.984 1379.9 L594.984 1385.78 L590.1 1385.78 L590.1 1379.9 Z" fill="#000000" fill-rule="evenodd" fill-opacity="1" /><path clip-path="url(#clip360)" d="M605.215 1351.22 L623.572 1351.22 L623.572 1355.16 L609.498 1355.16 L609.498 1363.63 Q610.516 1363.28 611.535 1363.12 Q612.553 1362.94 613.572 1362.94 Q619.359 1362.94 622.738 1366.11 Q626.118 1369.28 626.118 1374.7 Q626.118 1380.28 622.646 1383.38 Q619.174 1386.46 612.854 1386.46 Q610.678 1386.46 608.41 1386.09 Q606.164 1385.71 603.757 1384.97 L603.757 1380.28 Q605.84 1381.41 608.063 1381.96 Q610.285 1382.52 612.762 1382.52 Q616.766 1382.52 619.104 1380.41 Q621.442 1378.31 621.442 1374.7 Q621.442 1371.09 619.104 1368.98 Q616.766 1366.87 612.762 1366.87 Q610.887 1366.87 609.012 1367.29 Q607.16 1367.71 605.215 1368.59 L605.215 1351.22 Z" fill="#000000" fill-rule="evenodd" fill-opacity="1" /><path clip-path="url(#clip360)" d="M634.15 1351.22 L656.373 1351.22 L656.373 1353.22 L643.826 1385.78 L638.942 1385.78 L650.748 1355.16 L634.15 1355.16 L634.15 1351.22 Z" fill="#000000" fill-rule="evenodd" fill-opacity="1" /><path clip-path="url(#clip360)" d="M569.035 1082.52 Q565.424 1082.52 563.595 1086.08 Q561.79 1089.62 561.79 1096.75 Q561.79 1103.86 563.595 1107.42 Q565.424 1110.97 569.035 1110.97 Q572.669 1110.97 574.475 1107.42 Q576.303 1103.86 576.303 1096.75 Q576.303 1089.62 574.475 1086.08 Q572.669 1082.52 569.035 1082.52 M569.035 1078.81 Q574.845 1078.81 577.901 1083.42 Q580.979 1088 580.979 1096.75 Q580.979 1105.48 577.901 1110.09 Q574.845 1114.67 569.035 1114.67 Q563.225 1114.67 560.146 1110.09 Q557.091 1105.48 557.091 1096.75 Q557.091 1088 560.146 1083.42 Q563.225 1078.81 569.035 1078.81 Z" fill="#000000" fill-rule="evenodd" fill-opacity="1" /><path clip-path="url(#clip360)" d="M589.197 1108.12 L594.081 1108.12 L594.081 1114 L589.197 1114 L589.197 1108.12 Z" fill="#000000" fill-rule="evenodd" fill-opacity="1" /><path clip-path="url(#clip360)" d="M614.845 1094.86 Q611.697 1094.86 609.845 1097.01 Q608.016 1099.16 608.016 1102.91 Q608.016 1106.64 609.845 1108.81 Q611.697 1110.97 614.845 1110.97 Q617.993 1110.97 619.822 1108.81 Q621.674 1106.64 621.674 1102.91 Q621.674 1099.16 619.822 1097.01 Q617.993 1094.86 614.845 1094.86 M624.127 1080.2 L624.127 1084.46 Q622.368 1083.63 620.563 1083.19 Q618.78 1082.75 617.021 1082.75 Q612.391 1082.75 609.938 1085.87 Q607.507 1089 607.16 1095.32 Q608.526 1093.3 610.586 1092.24 Q612.646 1091.15 615.123 1091.15 Q620.331 1091.15 623.34 1094.32 Q626.373 1097.47 626.373 1102.91 Q626.373 1108.23 623.225 1111.45 Q620.076 1114.67 614.845 1114.67 Q608.85 1114.67 605.678 1110.09 Q602.507 1105.48 602.507 1096.75 Q602.507 1088.56 606.396 1083.7 Q610.285 1078.81 616.836 1078.81 Q618.595 1078.81 620.377 1079.16 Q622.183 1079.51 624.127 1080.2 Z" fill="#000000" fill-rule="evenodd" fill-opacity="1" /><path clip-path="url(#clip360)" d="M644.428 1082.52 Q640.817 1082.52 638.988 1086.08 Q637.183 1089.62 637.183 1096.75 Q637.183 1103.86 638.988 1107.42 Q640.817 1110.97 644.428 1110.97 Q648.062 1110.97 649.868 1107.42 Q651.697 1103.86 651.697 1096.75 Q651.697 1089.62 649.868 1086.08 Q648.062 1082.52 644.428 1082.52 M644.428 1078.81 Q650.238 1078.81 653.294 1083.42 Q656.373 1088 656.373 1096.75 Q656.373 1105.48 653.294 1110.09 Q650.238 1114.67 644.428 1114.67 Q638.618 1114.67 635.539 1110.09 Q632.484 1105.48 632.484 1096.75 Q632.484 1088 635.539 1083.42 Q638.618 1078.81 644.428 1078.81 Z" fill="#000000" fill-rule="evenodd" fill-opacity="1" /><path clip-path="url(#clip360)" d="M569.683 810.731 Q566.072 810.731 564.243 814.296 Q562.438 817.838 562.438 824.967 Q562.438 832.074 564.243 835.639 Q566.072 839.18 569.683 839.18 Q573.317 839.18 575.123 835.639 Q576.952 832.074 576.952 824.967 Q576.952 817.838 575.123 814.296 Q573.317 810.731 569.683 810.731 M569.683 807.028 Q575.493 807.028 578.549 811.634 Q581.628 816.218 581.628 824.967 Q581.628 833.694 578.549 838.301 Q575.493 842.884 569.683 842.884 Q563.873 842.884 560.794 838.301 Q557.739 833.694 557.739 824.967 Q557.739 816.218 560.794 811.634 Q563.873 807.028 569.683 807.028 Z" fill="#000000" fill-rule="evenodd" fill-opacity="1" /><path clip-path="url(#clip360)" d="M589.845 836.333 L594.729 836.333 L594.729 842.213 L589.845 842.213 L589.845 836.333 Z" fill="#000000" fill-rule="evenodd" fill-opacity="1" /><path clip-path="url(#clip360)" d="M615.493 823.069 Q612.345 823.069 610.493 825.222 Q608.664 827.375 608.664 831.125 Q608.664 834.852 610.493 837.028 Q612.345 839.18 615.493 839.18 Q618.641 839.18 620.47 837.028 Q622.322 834.852 622.322 831.125 Q622.322 827.375 620.47 825.222 Q618.641 823.069 615.493 823.069 M624.775 808.417 L624.775 812.676 Q623.016 811.843 621.211 811.403 Q619.428 810.963 617.669 810.963 Q613.039 810.963 610.586 814.088 Q608.155 817.213 607.808 823.532 Q609.174 821.518 611.234 820.454 Q613.294 819.366 615.771 819.366 Q620.979 819.366 623.988 822.537 Q627.021 825.685 627.021 831.125 Q627.021 836.449 623.873 839.666 Q620.725 842.884 615.493 842.884 Q609.498 842.884 606.326 838.301 Q603.155 833.694 603.155 824.967 Q603.155 816.773 607.044 811.912 Q610.933 807.028 617.484 807.028 Q619.243 807.028 621.025 807.375 Q622.831 807.722 624.775 808.417 Z" fill="#000000" fill-rule="evenodd" fill-opacity="1" /><path clip-path="url(#clip360)" d="M649.243 823.579 Q652.599 824.296 654.474 826.565 Q656.373 828.833 656.373 832.166 Q656.373 837.282 652.854 840.083 Q649.336 842.884 642.854 842.884 Q640.678 842.884 638.363 842.444 Q636.072 842.028 633.618 841.171 L633.618 836.657 Q635.562 837.791 637.877 838.37 Q640.192 838.949 642.715 838.949 Q647.113 838.949 649.405 837.213 Q651.72 835.477 651.72 832.166 Q651.72 829.111 649.567 827.398 Q647.437 825.662 643.618 825.662 L639.59 825.662 L639.59 821.819 L643.803 821.819 Q647.252 821.819 649.081 820.454 Q650.91 819.065 650.91 816.472 Q650.91 813.81 649.011 812.398 Q647.136 810.963 643.618 810.963 Q641.697 810.963 639.498 811.38 Q637.299 811.796 634.66 812.676 L634.66 808.509 Q637.322 807.768 639.636 807.398 Q641.974 807.028 644.035 807.028 Q649.359 807.028 652.46 809.458 Q655.562 811.866 655.562 815.986 Q655.562 818.856 653.919 820.847 Q652.275 822.815 649.243 823.579 Z" fill="#000000" fill-rule="evenodd" fill-opacity="1" /><path clip-path="url(#clip360)" d="M568.873 538.946 Q565.262 538.946 563.433 542.51 Q561.628 546.052 561.628 553.182 Q561.628 560.288 563.433 563.853 Q565.262 567.395 568.873 567.395 Q572.507 567.395 574.313 563.853 Q576.141 560.288 576.141 553.182 Q576.141 546.052 574.313 542.51 Q572.507 538.946 568.873 538.946 M568.873 535.242 Q574.683 535.242 577.739 539.848 Q580.817 544.432 580.817 553.182 Q580.817 561.908 577.739 566.515 Q574.683 571.098 568.873 571.098 Q563.063 571.098 559.984 566.515 Q556.929 561.908 556.929 553.182 Q556.929 544.432 559.984 539.848 Q563.063 535.242 568.873 535.242 Z" fill="#000000" fill-rule="evenodd" fill-opacity="1" /><path clip-path="url(#clip360)" d="M589.035 564.547 L593.919 564.547 L593.919 570.427 L589.035 570.427 L589.035 564.547 Z" fill="#000000" fill-rule="evenodd" fill-opacity="1" /><path clip-path="url(#clip360)" d="M614.683 551.284 Q611.535 551.284 609.683 553.436 Q607.854 555.589 607.854 559.339 Q607.854 563.066 609.683 565.242 Q611.535 567.395 614.683 567.395 Q617.831 567.395 619.66 565.242 Q621.512 563.066 621.512 559.339 Q621.512 555.589 619.66 553.436 Q617.831 551.284 614.683 551.284 M623.965 536.631 L623.965 540.89 Q622.206 540.057 620.4 539.617 Q618.618 539.177 616.859 539.177 Q612.229 539.177 609.776 542.302 Q607.345 545.427 606.998 551.746 Q608.364 549.733 610.424 548.668 Q612.484 547.58 614.961 547.58 Q620.169 547.58 623.178 550.751 Q626.211 553.899 626.211 559.339 Q626.211 564.663 623.063 567.881 Q619.914 571.098 614.683 571.098 Q608.688 571.098 605.516 566.515 Q602.345 561.908 602.345 553.182 Q602.345 544.987 606.234 540.126 Q610.123 535.242 616.674 535.242 Q618.433 535.242 620.215 535.589 Q622.021 535.936 623.965 536.631 Z" fill="#000000" fill-rule="evenodd" fill-opacity="1" /><path clip-path="url(#clip360)" d="M644.845 551.284 Q641.697 551.284 639.845 553.436 Q638.016 555.589 638.016 559.339 Q638.016 563.066 639.845 565.242 Q641.697 567.395 644.845 567.395 Q647.993 567.395 649.822 565.242 Q651.673 563.066 651.673 559.339 Q651.673 555.589 649.822 553.436 Q647.993 551.284 644.845 551.284 M654.127 536.631 L654.127 540.89 Q652.368 540.057 650.562 539.617 Q648.78 539.177 647.021 539.177 Q642.391 539.177 639.937 542.302 Q637.507 545.427 637.16 551.746 Q638.525 549.733 640.586 548.668 Q642.646 547.58 645.123 547.58 Q650.331 547.58 653.34 550.751 Q656.373 553.899 656.373 559.339 Q656.373 564.663 653.224 567.881 Q650.076 571.098 644.845 571.098 Q638.849 571.098 635.678 566.515 Q632.507 561.908 632.507 553.182 Q632.507 544.987 636.396 540.126 Q640.285 535.242 646.836 535.242 Q648.595 535.242 650.377 535.589 Q652.183 535.936 654.127 536.631 Z" fill="#000000" fill-rule="evenodd" fill-opacity="1" /><path clip-path="url(#clip360)" d="M569.22 267.16 Q565.609 267.16 563.78 270.725 Q561.975 274.266 561.975 281.396 Q561.975 288.502 563.78 292.067 Q565.609 295.609 569.22 295.609 Q572.854 295.609 574.66 292.067 Q576.489 288.502 576.489 281.396 Q576.489 274.266 574.66 270.725 Q572.854 267.16 569.22 267.16 M569.22 263.456 Q575.03 263.456 578.086 268.063 Q581.165 272.646 581.165 281.396 Q581.165 290.123 578.086 294.729 Q575.03 299.312 569.22 299.312 Q563.41 299.312 560.331 294.729 Q557.276 290.123 557.276 281.396 Q557.276 272.646 560.331 268.063 Q563.41 263.456 569.22 263.456 Z" fill="#000000" fill-rule="evenodd" fill-opacity="1" /><path clip-path="url(#clip360)" d="M589.382 292.762 L594.266 292.762 L594.266 298.641 L589.382 298.641 L589.382 292.762 Z" fill="#000000" fill-rule="evenodd" fill-opacity="1" /><path clip-path="url(#clip360)" d="M615.03 279.498 Q611.882 279.498 610.03 281.65 Q608.201 283.803 608.201 287.553 Q608.201 291.28 610.03 293.456 Q611.882 295.609 615.03 295.609 Q618.178 295.609 620.007 293.456 Q621.859 291.28 621.859 287.553 Q621.859 283.803 620.007 281.65 Q618.178 279.498 615.03 279.498 M624.313 264.845 L624.313 269.104 Q622.553 268.271 620.748 267.831 Q618.965 267.391 617.206 267.391 Q612.576 267.391 610.123 270.516 Q607.692 273.641 607.345 279.961 Q608.711 277.947 610.771 276.882 Q612.831 275.794 615.308 275.794 Q620.516 275.794 623.525 278.965 Q626.558 282.113 626.558 287.553 Q626.558 292.877 623.41 296.095 Q620.262 299.312 615.03 299.312 Q609.035 299.312 605.864 294.729 Q602.692 290.123 602.692 281.396 Q602.692 273.201 606.581 268.34 Q610.47 263.456 617.021 263.456 Q618.78 263.456 620.563 263.803 Q622.368 264.151 624.313 264.845 Z" fill="#000000" fill-rule="evenodd" fill-opacity="1" /><path clip-path="url(#clip360)" d="M634.752 297.924 L634.752 293.664 Q636.512 294.498 638.317 294.937 Q640.123 295.377 641.859 295.377 Q646.488 295.377 648.919 292.275 Q651.373 289.15 651.72 282.808 Q650.377 284.799 648.317 285.863 Q646.257 286.928 643.757 286.928 Q638.572 286.928 635.539 283.803 Q632.53 280.655 632.53 275.215 Q632.53 269.891 635.678 266.674 Q638.826 263.456 644.058 263.456 Q650.053 263.456 653.201 268.063 Q656.373 272.646 656.373 281.396 Q656.373 289.567 652.484 294.451 Q648.618 299.312 642.067 299.312 Q640.308 299.312 638.502 298.965 Q636.697 298.618 634.752 297.924 M644.058 283.271 Q647.206 283.271 649.035 281.118 Q650.886 278.965 650.886 275.215 Q650.886 271.489 649.035 269.336 Q647.206 267.16 644.058 267.16 Q640.91 267.16 639.058 269.336 Q637.229 271.489 637.229 275.215 Q637.229 278.965 639.058 281.118 Q640.91 283.271 644.058 283.271 Z" fill="#000000" fill-rule="evenodd" fill-opacity="1" /><path clip-path="url(#clip360)" d="M1362.45 20.1573 L1351.35 50.2555 L1373.59 50.2555 L1362.45 20.1573 M1357.83 12.096 L1367.11 12.096 L1390.16 72.576 L1381.65 72.576 L1376.14 57.061 L1348.88 57.061 L1343.37 72.576 L1334.74 72.576 L1357.83 12.096 Z" fill="#000000" fill-rule="evenodd" fill-opacity="1" /><path clip-path="url(#clip360)" d="M1429.86 28.9478 L1429.86 35.9153 Q1426.7 34.1734 1423.5 33.3227 Q1420.34 32.4315 1417.1 32.4315 Q1409.85 32.4315 1405.84 37.0496 Q1401.83 41.6271 1401.83 49.9314 Q1401.83 58.2358 1405.84 62.8538 Q1409.85 67.4314 1417.1 67.4314 Q1420.34 67.4314 1423.5 66.5807 Q1426.7 65.6895 1429.86 63.9476 L1429.86 70.8341 Q1426.74 72.2924 1423.38 73.0216 Q1420.06 73.7508 1416.29 73.7508 Q1406.04 73.7508 1400 67.3098 Q1393.97 60.8689 1393.97 49.9314 Q1393.97 38.832 1400.04 32.472 Q1406.16 26.1121 1416.77 26.1121 Q1420.22 26.1121 1423.5 26.8413 Q1426.78 27.5299 1429.86 28.9478 Z" fill="#000000" fill-rule="evenodd" fill-opacity="1" /><path clip-path="url(#clip360)" d="M1475.47 28.9478 L1475.47 35.9153 Q1472.31 34.1734 1469.11 33.3227 Q1465.95 32.4315 1462.71 32.4315 Q1455.46 32.4315 1451.45 37.0496 Q1447.44 41.6271 1447.44 49.9314 Q1447.44 58.2358 1451.45 62.8538 Q1455.46 67.4314 1462.71 67.4314 Q1465.95 67.4314 1469.11 66.5807 Q1472.31 65.6895 1475.47 63.9476 L1475.47 70.8341 Q1472.35 72.2924 1468.99 73.0216 Q1465.67 73.7508 1461.9 73.7508 Q1451.65 73.7508 1445.62 67.3098 Q1439.58 60.8689 1439.58 49.9314 Q1439.58 38.832 1445.66 32.472 Q1451.77 26.1121 1462.39 26.1121 Q1465.83 26.1121 1469.11 26.8413 Q1472.39 27.5299 1475.47 28.9478 Z" fill="#000000" fill-rule="evenodd" fill-opacity="1" /><path clip-path="url(#clip360)" d="M1487.67 54.671 L1487.67 27.2059 L1495.12 27.2059 L1495.12 54.3874 Q1495.12 60.8284 1497.63 64.0691 Q1500.14 67.2693 1505.17 67.2693 Q1511.2 67.2693 1514.69 63.421 Q1518.21 59.5726 1518.21 52.9291 L1518.21 27.2059 L1525.66 27.2059 L1525.66 72.576 L1518.21 72.576 L1518.21 65.6084 Q1515.5 69.7404 1511.89 71.7658 Q1508.33 73.7508 1503.59 73.7508 Q1495.77 73.7508 1491.72 68.8897 Q1487.67 64.0286 1487.67 54.671 M1506.42 26.1121 L1506.42 26.1121 Z" fill="#000000" fill-rule="evenodd" fill-opacity="1" /><path clip-path="url(#clip360)" d="M1567.31 34.1734 Q1566.05 33.4443 1564.55 33.1202 Q1563.09 32.7556 1561.31 32.7556 Q1554.99 32.7556 1551.59 36.8875 Q1548.23 40.9789 1548.23 48.6757 L1548.23 72.576 L1540.73 72.576 L1540.73 27.2059 L1548.23 27.2059 L1548.23 34.2544 Q1550.58 30.1225 1554.34 28.1376 Q1558.11 26.1121 1563.5 26.1121 Q1564.27 26.1121 1565.2 26.2337 Q1566.13 26.3147 1567.27 26.5172 L1567.31 34.1734 Z" fill="#000000" fill-rule="evenodd" fill-opacity="1" /><path clip-path="url(#clip360)" d="M1595.74 49.7694 Q1586.71 49.7694 1583.23 51.8354 Q1579.74 53.9013 1579.74 58.8839 Q1579.74 62.8538 1582.34 65.2034 Q1584.97 67.5124 1589.46 67.5124 Q1595.66 67.5124 1599.39 63.1374 Q1603.16 58.7219 1603.16 51.4303 L1603.16 49.7694 L1595.74 49.7694 M1610.61 46.6907 L1610.61 72.576 L1603.16 72.576 L1603.16 65.6895 Q1600.6 69.8214 1596.8 71.8063 Q1592.99 73.7508 1587.48 73.7508 Q1580.51 73.7508 1576.38 69.8619 Q1572.29 65.9325 1572.29 59.3701 Q1572.29 51.7138 1577.39 47.825 Q1582.54 43.9361 1592.71 43.9361 L1603.16 43.9361 L1603.16 43.2069 Q1603.16 38.0623 1599.75 35.2672 Q1596.39 32.4315 1590.28 32.4315 Q1586.39 32.4315 1582.7 33.3632 Q1579.01 34.295 1575.61 36.1584 L1575.61 29.2718 Q1579.7 27.692 1583.55 26.9223 Q1587.4 26.1121 1591.04 26.1121 Q1600.89 26.1121 1605.75 31.2163 Q1610.61 36.3204 1610.61 46.6907 Z" fill="#000000" fill-rule="evenodd" fill-opacity="1" /><path clip-path="url(#clip360)" d="M1658.61 28.9478 L1658.61 35.9153 Q1655.45 34.1734 1652.25 33.3227 Q1649.09 32.4315 1645.85 32.4315 Q1638.6 32.4315 1634.59 37.0496 Q1630.58 41.6271 1630.58 49.9314 Q1630.58 58.2358 1634.59 62.8538 Q1638.6 67.4314 1645.85 67.4314 Q1649.09 67.4314 1652.25 66.5807 Q1655.45 65.6895 1658.61 63.9476 L1658.61 70.8341 Q1655.49 72.2924 1652.13 73.0216 Q1648.81 73.7508 1645.04 73.7508 Q1634.79 73.7508 1628.76 67.3098 Q1622.72 60.8689 1622.72 49.9314 Q1622.72 38.832 1628.8 32.472 Q1634.92 26.1121 1645.53 26.1121 Q1648.97 26.1121 1652.25 26.8413 Q1655.54 27.5299 1658.61 28.9478 Z" fill="#000000" fill-rule="evenodd" fill-opacity="1" /><path clip-path="url(#clip360)" d="M1690.45 76.7889 Q1687.29 84.8907 1684.3 87.3618 Q1681.3 89.8329 1676.28 89.8329 L1670.32 89.8329 L1670.32 83.5945 L1674.7 83.5945 Q1677.77 83.5945 1679.48 82.1361 Q1681.18 80.6778 1683.24 75.2496 L1684.58 71.8468 L1666.23 27.2059 L1674.13 27.2059 L1688.31 62.6918 L1702.49 27.2059 L1710.38 27.2059 L1690.45 76.7889 Z" fill="#000000" fill-rule="evenodd" fill-opacity="1" /><polyline clip-path="url(#clip362)" style="stroke:#009af9; stroke-linecap:butt; stroke-linejoin:round; stroke-width:4; stroke-opacity:1; fill:none" points="
  739.364,1252.06 755.187,834.332 771.009,834.332 786.831,834.332 802.653,834.332 818.476,834.332 834.298,834.332 850.12,834.332 865.942,834.332 881.764,834.332 
  897.587,834.332 913.409,834.332 929.231,834.332 945.053,834.332 960.876,834.332 976.698,834.332 992.52,834.332 1008.34,834.332 1024.16,834.332 1039.99,834.332 
  1055.81,834.332 1071.63,834.332 1087.45,834.332 1103.28,834.332 1119.1,834.332 1134.92,834.332 1150.74,834.332 1166.56,834.332 1182.39,834.332 1198.21,834.332 
  1214.03,834.332 1229.85,834.332 1245.68,834.332 1261.5,834.332 1277.32,834.332 1293.14,834.332 1308.96,834.332 1324.79,834.332 1340.61,834.332 1356.43,834.332 
  1372.25,834.332 1388.08,834.332 1403.9,834.332 1419.72,834.332 1435.54,834.332 1451.36,834.332 1467.19,834.332 1483.01,834.332 1498.83,834.332 1514.65,834.332 
  1530.48,834.332 1546.3,834.332 1562.12,834.332 1577.94,834.332 1593.76,834.332 1609.59,834.332 1625.41,834.332 1641.23,834.332 1657.05,834.332 1672.88,834.332 
  1688.7,834.332 1704.52,834.332 1720.34,834.332 1736.16,834.332 1751.99,834.332 1767.81,834.332 1783.63,834.332 1799.45,834.332 1815.28,834.332 1831.1,834.332 
  1846.92,834.332 1862.74,834.332 1878.56,834.332 1894.39,834.332 1910.21,834.332 1926.03,834.332 1941.85,834.332 1957.68,834.332 1973.5,834.332 1989.32,834.332 
  2005.14,834.332 2020.96,834.332 2036.79,834.332 2052.61,834.332 2068.43,834.332 2084.25,834.332 2100.08,834.332 2115.9,834.332 2131.72,834.332 2147.54,834.332 
  2163.36,834.332 2179.19,834.332 2195.01,834.332 2210.83,834.332 2226.65,834.332 2242.48,834.332 2258.3,834.332 2274.12,834.332 2289.94,834.332 2305.76,834.332 
  
  "/>
<polyline clip-path="url(#clip362)" style="stroke:#e26f46; stroke-linecap:butt; stroke-linejoin:round; stroke-width:4; stroke-opacity:1; fill:none" points="
  739.364,1447.87 755.187,1049.72 771.009,958.345 786.831,932.237 802.653,880.021 818.476,834.332 834.298,827.805 850.12,801.696 865.942,782.115 881.764,710.318 
  897.587,690.737 913.409,723.372 929.231,723.372 945.053,703.791 960.876,658.102 976.698,658.102 992.52,671.156 1008.34,651.575 1024.16,605.885 1039.99,618.939 
  1055.81,586.304 1071.63,573.25 1087.45,566.723 1103.28,553.669 1119.1,566.723 1134.92,560.196 1150.74,521.034 1166.56,514.507 1182.39,514.507 1198.21,494.926 
  1214.03,488.399 1229.85,488.399 1245.68,488.399 1261.5,494.926 1277.32,475.345 1293.14,449.237 1308.96,429.655 1324.79,403.547 1340.61,377.439 1356.43,397.02 
  1372.25,423.128 1388.08,423.128 1403.9,410.074 1419.72,416.601 1435.54,423.128 1451.36,410.074 1467.19,410.074 1483.01,390.493 1498.83,390.493 1514.65,383.966 
  1530.48,390.493 1546.3,383.966 1562.12,370.912 1577.94,351.331 1593.76,357.858 1609.59,351.331 1625.41,344.804 1641.23,351.331 1657.05,351.331 1672.88,357.858 
  1688.7,338.277 1704.52,331.75 1720.34,331.75 1736.16,338.277 1751.99,338.277 1767.81,331.75 1783.63,331.75 1799.45,318.696 1815.28,312.169 1831.1,312.169 
  1846.92,312.169 1862.74,305.642 1878.56,299.115 1894.39,299.115 1910.21,286.061 1926.03,279.534 1941.85,259.952 1957.68,273.007 1973.5,259.952 1989.32,259.952 
  2005.14,259.952 2020.96,259.952 2036.79,253.425 2052.61,246.898 2068.43,246.898 2084.25,246.898 2100.08,233.844 2115.9,246.898 2131.72,246.898 2147.54,220.79 
  2163.36,214.263 2179.19,220.79 2195.01,220.79 2210.83,188.155 2226.65,188.155 2242.48,188.155 2258.3,181.628 2274.12,175.101 2289.94,168.574 2305.76,162.047 
  
  "/>
<path clip-path="url(#clip360)" d="
M114.225 324.425 L448.507 324.425 L448.507 168.905 L114.225 168.905  Z
  " fill="#ffffff" fill-rule="evenodd" fill-opacity="1"/>
<polyline clip-path="url(#clip360)" style="stroke:#000000; stroke-linecap:butt; stroke-linejoin:round; stroke-width:4; stroke-opacity:1; fill:none" points="
  114.225,324.425 448.507,324.425 448.507,168.905 114.225,168.905 114.225,324.425 
  "/>
<polyline clip-path="url(#clip360)" style="stroke:#009af9; stroke-linecap:butt; stroke-linejoin:round; stroke-width:4; stroke-opacity:1; fill:none" points="
  138.225,220.745 282.225,220.745 
  "/>
<path clip-path="url(#clip360)" d="M322.059 208.071 L315.716 225.27 L328.424 225.27 L322.059 208.071 M319.42 203.465 L324.721 203.465 L337.892 238.025 L333.031 238.025 L329.883 229.159 L314.304 229.159 L311.156 238.025 L306.225 238.025 L319.42 203.465 Z" fill="#000000" fill-rule="evenodd" fill-opacity="1" /><path clip-path="url(#clip360)" d="M347.614 221.52 L347.614 234.182 L355.114 234.182 Q358.887 234.182 360.693 232.631 Q362.521 231.057 362.521 227.84 Q362.521 224.599 360.693 223.071 Q358.887 221.52 355.114 221.52 L347.614 221.52 M347.614 207.307 L347.614 217.724 L354.535 217.724 Q357.961 217.724 359.628 216.451 Q361.318 215.154 361.318 212.516 Q361.318 209.9 359.628 208.604 Q357.961 207.307 354.535 207.307 L347.614 207.307 M342.938 203.465 L354.883 203.465 Q360.23 203.465 363.123 205.687 Q366.017 207.909 366.017 212.006 Q366.017 215.178 364.535 217.053 Q363.054 218.928 360.183 219.39 Q363.632 220.131 365.531 222.492 Q367.452 224.83 367.452 228.349 Q367.452 232.978 364.304 235.502 Q361.156 238.025 355.345 238.025 L342.938 238.025 L342.938 203.465 Z" fill="#000000" fill-rule="evenodd" fill-opacity="1" /><path clip-path="url(#clip360)" d="M400.507 206.127 L400.507 211.057 Q398.146 208.858 395.461 207.77 Q392.799 206.682 389.79 206.682 Q383.864 206.682 380.716 210.316 Q377.568 213.928 377.568 220.779 Q377.568 227.608 380.716 231.242 Q383.864 234.853 389.79 234.853 Q392.799 234.853 395.461 233.765 Q398.146 232.677 400.507 230.478 L400.507 235.363 Q398.054 237.029 395.299 237.863 Q392.568 238.696 389.512 238.696 Q381.665 238.696 377.151 233.904 Q372.637 229.09 372.637 220.779 Q372.637 212.446 377.151 207.654 Q381.665 202.84 389.512 202.84 Q392.614 202.84 395.345 203.673 Q398.1 204.483 400.507 206.127 Z" fill="#000000" fill-rule="evenodd" fill-opacity="1" /><polyline clip-path="url(#clip360)" style="stroke:#e26f46; stroke-linecap:butt; stroke-linejoin:round; stroke-width:4; stroke-opacity:1; fill:none" points="
  138.225,272.585 282.225,272.585 
  "/>
<path clip-path="url(#clip360)" d="M310.901 273.36 L310.901 286.022 L318.401 286.022 Q322.174 286.022 323.98 284.471 Q325.809 282.897 325.809 279.68 Q325.809 276.439 323.98 274.911 Q322.174 273.36 318.401 273.36 L310.901 273.36 M310.901 259.147 L310.901 269.564 L317.823 269.564 Q321.248 269.564 322.915 268.291 Q324.605 266.994 324.605 264.356 Q324.605 261.74 322.915 260.444 Q321.248 259.147 317.823 259.147 L310.901 259.147 M306.225 255.305 L318.17 255.305 Q323.517 255.305 326.41 257.527 Q329.304 259.749 329.304 263.846 Q329.304 267.018 327.822 268.893 Q326.341 270.768 323.471 271.23 Q326.92 271.971 328.818 274.332 Q330.739 276.67 330.739 280.189 Q330.739 284.818 327.591 287.342 Q324.443 289.865 318.633 289.865 L306.225 289.865 L306.225 255.305 Z" fill="#000000" fill-rule="evenodd" fill-opacity="1" /><path clip-path="url(#clip360)" d="M343.424 259.147 L343.424 272.133 L349.304 272.133 Q352.568 272.133 354.35 270.443 Q356.133 268.754 356.133 265.629 Q356.133 262.527 354.35 260.837 Q352.568 259.147 349.304 259.147 L343.424 259.147 M338.748 255.305 L349.304 255.305 Q355.114 255.305 358.077 257.944 Q361.063 260.559 361.063 265.629 Q361.063 270.744 358.077 273.36 Q355.114 275.976 349.304 275.976 L343.424 275.976 L343.424 289.865 L338.748 289.865 L338.748 255.305 Z" fill="#000000" fill-rule="evenodd" fill-opacity="1" /></svg>
