<?xml version="1.0" encoding="utf-8"?>
<svg xmlns="http://www.w3.org/2000/svg" xmlns:xlink="http://www.w3.org/1999/xlink" width="600" height="400" viewBox="0 0 2400 1600">
<defs>
  <clipPath id="clip440">
    <rect x="0" y="0" width="2400" height="1600"/>
  </clipPath>
</defs>
<path clip-path="url(#clip440)" d="
M0 1600 L2400 1600 L2400 0 L0 0  Z
  " fill="#ffffff" fill-rule="evenodd" fill-opacity="1"/>
<defs>
  <clipPath id="clip441">
    <rect x="480" y="0" width="1681" height="1600"/>
  </clipPath>
</defs>
<path clip-path="url(#clip440)" d="
M751.372 1486.45 L2352.76 1486.45 L2352.76 123.472 L751.372 123.472  Z
  " fill="#ffffff" fill-rule="evenodd" fill-opacity="1"/>
<defs>
  <clipPath id="clip442">
    <rect x="751" y="123" width="1602" height="1364"/>
  </clipPath>
</defs>
<polyline clip-path="url(#clip442)" style="stroke:#000000; stroke-linecap:butt; stroke-linejoin:round; stroke-width:2; stroke-opacity:0.1; fill:none" points="
  781.434,1486.45 781.434,123.472 
  "/>
<polyline clip-path="url(#clip442)" style="stroke:#000000; stroke-linecap:butt; stroke-linejoin:round; stroke-width:2; stroke-opacity:0.1; fill:none" points="
  1162.93,1486.45 1162.93,123.472 
  "/>
<polyline clip-path="url(#clip442)" style="stroke:#000000; stroke-linecap:butt; stroke-linejoin:round; stroke-width:2; stroke-opacity:0.1; fill:none" points="
  1544.43,1486.45 1544.43,123.472 
  "/>
<polyline clip-path="url(#clip442)" style="stroke:#000000; stroke-linecap:butt; stroke-linejoin:round; stroke-width:2; stroke-opacity:0.1; fill:none" points="
  1925.93,1486.45 1925.93,123.472 
  "/>
<polyline clip-path="url(#clip442)" style="stroke:#000000; stroke-linecap:butt; stroke-linejoin:round; stroke-width:2; stroke-opacity:0.1; fill:none" points="
  2307.43,1486.45 2307.43,123.472 
  "/>
<polyline clip-path="url(#clip440)" style="stroke:#000000; stroke-linecap:butt; stroke-linejoin:round; stroke-width:4; stroke-opacity:1; fill:none" points="
  751.372,1486.45 2352.76,1486.45 
  "/>
<polyline clip-path="url(#clip440)" style="stroke:#000000; stroke-linecap:butt; stroke-linejoin:round; stroke-width:4; stroke-opacity:1; fill:none" points="
  781.434,1486.45 781.434,1467.55 
  "/>
<polyline clip-path="url(#clip440)" style="stroke:#000000; stroke-linecap:butt; stroke-linejoin:round; stroke-width:4; stroke-opacity:1; fill:none" points="
  1162.93,1486.45 1162.93,1467.55 
  "/>
<polyline clip-path="url(#clip440)" style="stroke:#000000; stroke-linecap:butt; stroke-linejoin:round; stroke-width:4; stroke-opacity:1; fill:none" points="
  1544.43,1486.45 1544.43,1467.55 
  "/>
<polyline clip-path="url(#clip440)" style="stroke:#000000; stroke-linecap:butt; stroke-linejoin:round; stroke-width:4; stroke-opacity:1; fill:none" points="
  1925.93,1486.45 1925.93,1467.55 
  "/>
<polyline clip-path="url(#clip440)" style="stroke:#000000; stroke-linecap:butt; stroke-linejoin:round; stroke-width:4; stroke-opacity:1; fill:none" points="
  2307.43,1486.45 2307.43,1467.55 
  "/>
<path clip-path="url(#clip440)" d="M781.434 1517.37 Q777.823 1517.37 775.995 1520.93 Q774.189 1524.47 774.189 1531.6 Q774.189 1538.71 775.995 1542.27 Q777.823 1545.82 781.434 1545.82 Q785.069 1545.82 786.874 1542.27 Q788.703 1538.71 788.703 1531.6 Q788.703 1524.47 786.874 1520.93 Q785.069 1517.37 781.434 1517.37 M781.434 1513.66 Q787.245 1513.66 790.3 1518.27 Q793.379 1522.85 793.379 1531.6 Q793.379 1540.33 790.3 1544.94 Q787.245 1549.52 781.434 1549.52 Q775.624 1549.52 772.546 1544.94 Q769.49 1540.33 769.49 1531.6 Q769.49 1522.85 772.546 1518.27 Q775.624 1513.66 781.434 1513.66 Z" fill="#000000" fill-rule="evenodd" fill-opacity="1" /><path clip-path="url(#clip440)" d="M1142.21 1544.91 L1158.52 1544.91 L1158.52 1548.85 L1136.58 1548.85 L1136.58 1544.91 Q1139.24 1542.16 1143.83 1537.53 Q1148.43 1532.88 1149.61 1531.53 Q1151.86 1529.01 1152.74 1527.27 Q1153.64 1525.51 1153.64 1523.82 Q1153.64 1521.07 1151.7 1519.33 Q1149.77 1517.6 1146.67 1517.6 Q1144.47 1517.6 1142.02 1518.36 Q1139.59 1519.13 1136.81 1520.68 L1136.81 1515.95 Q1139.64 1514.82 1142.09 1514.24 Q1144.54 1513.66 1146.58 1513.66 Q1151.95 1513.66 1155.14 1516.35 Q1158.34 1519.03 1158.34 1523.52 Q1158.34 1525.65 1157.53 1527.57 Q1156.74 1529.47 1154.64 1532.07 Q1154.06 1532.74 1150.96 1535.95 Q1147.85 1539.15 1142.21 1544.91 Z" fill="#000000" fill-rule="evenodd" fill-opacity="1" /><path clip-path="url(#clip440)" d="M1168.39 1514.29 L1186.74 1514.29 L1186.74 1518.22 L1172.67 1518.22 L1172.67 1526.7 Q1173.69 1526.35 1174.7 1526.19 Q1175.72 1526 1176.74 1526 Q1182.53 1526 1185.91 1529.17 Q1189.29 1532.34 1189.29 1537.76 Q1189.29 1543.34 1185.82 1546.44 Q1182.34 1549.52 1176.02 1549.52 Q1173.85 1549.52 1171.58 1549.15 Q1169.33 1548.78 1166.93 1548.04 L1166.93 1543.34 Q1169.01 1544.47 1171.23 1545.03 Q1173.45 1545.58 1175.93 1545.58 Q1179.94 1545.58 1182.27 1543.48 Q1184.61 1541.37 1184.61 1537.76 Q1184.61 1534.15 1182.27 1532.04 Q1179.94 1529.94 1175.93 1529.94 Q1174.06 1529.94 1172.18 1530.35 Q1170.33 1530.77 1168.39 1531.65 L1168.39 1514.29 Z" fill="#000000" fill-rule="evenodd" fill-opacity="1" /><path clip-path="url(#clip440)" d="M1519.13 1514.29 L1537.49 1514.29 L1537.49 1518.22 L1523.42 1518.22 L1523.42 1526.7 Q1524.43 1526.35 1525.45 1526.19 Q1526.47 1526 1527.49 1526 Q1533.28 1526 1536.66 1529.17 Q1540.04 1532.34 1540.04 1537.76 Q1540.04 1543.34 1536.56 1546.44 Q1533.09 1549.52 1526.77 1549.52 Q1524.6 1549.52 1522.33 1549.15 Q1520.08 1548.78 1517.67 1548.04 L1517.67 1543.34 Q1519.76 1544.47 1521.98 1545.03 Q1524.2 1545.58 1526.68 1545.58 Q1530.68 1545.58 1533.02 1543.48 Q1535.36 1541.37 1535.36 1537.76 Q1535.36 1534.15 1533.02 1532.04 Q1530.68 1529.94 1526.68 1529.94 Q1524.8 1529.94 1522.93 1530.35 Q1521.08 1530.77 1519.13 1531.65 L1519.13 1514.29 Z" fill="#000000" fill-rule="evenodd" fill-opacity="1" /><path clip-path="url(#clip440)" d="M1559.25 1517.37 Q1555.64 1517.37 1553.81 1520.93 Q1552 1524.47 1552 1531.6 Q1552 1538.71 1553.81 1542.27 Q1555.64 1545.82 1559.25 1545.82 Q1562.88 1545.82 1564.69 1542.27 Q1566.52 1538.71 1566.52 1531.6 Q1566.52 1524.47 1564.69 1520.93 Q1562.88 1517.37 1559.25 1517.37 M1559.25 1513.66 Q1565.06 1513.66 1568.11 1518.27 Q1571.19 1522.85 1571.19 1531.6 Q1571.19 1540.33 1568.11 1544.94 Q1565.06 1549.52 1559.25 1549.52 Q1553.44 1549.52 1550.36 1544.94 Q1547.3 1540.33 1547.3 1531.6 Q1547.3 1522.85 1550.36 1518.27 Q1553.44 1513.66 1559.25 1513.66 Z" fill="#000000" fill-rule="evenodd" fill-opacity="1" /><path clip-path="url(#clip440)" d="M1899.79 1514.29 L1922.01 1514.29 L1922.01 1516.28 L1909.46 1548.85 L1904.58 1548.85 L1916.39 1518.22 L1899.79 1518.22 L1899.79 1514.29 Z" fill="#000000" fill-rule="evenodd" fill-opacity="1" /><path clip-path="url(#clip440)" d="M1931.18 1514.29 L1949.53 1514.29 L1949.53 1518.22 L1935.46 1518.22 L1935.46 1526.7 Q1936.48 1526.35 1937.5 1526.19 Q1938.51 1526 1939.53 1526 Q1945.32 1526 1948.7 1529.17 Q1952.08 1532.34 1952.08 1537.76 Q1952.08 1543.34 1948.61 1546.44 Q1945.14 1549.52 1938.82 1549.52 Q1936.64 1549.52 1934.37 1549.15 Q1932.13 1548.78 1929.72 1548.04 L1929.72 1543.34 Q1931.8 1544.47 1934.02 1545.03 Q1936.25 1545.58 1938.72 1545.58 Q1942.73 1545.58 1945.07 1543.48 Q1947.4 1541.37 1947.4 1537.76 Q1947.4 1534.15 1945.07 1532.04 Q1942.73 1529.94 1938.72 1529.94 Q1936.85 1529.94 1934.97 1530.35 Q1933.12 1530.77 1931.18 1531.65 L1931.18 1514.29 Z" fill="#000000" fill-rule="evenodd" fill-opacity="1" /><path clip-path="url(#clip440)" d="M2267.04 1544.91 L2274.68 1544.91 L2274.68 1518.55 L2266.37 1520.21 L2266.37 1515.95 L2274.63 1514.29 L2279.31 1514.29 L2279.31 1544.91 L2286.95 1544.91 L2286.95 1548.85 L2267.04 1548.85 L2267.04 1544.91 Z" fill="#000000" fill-rule="evenodd" fill-opacity="1" /><path clip-path="url(#clip440)" d="M2306.39 1517.37 Q2302.78 1517.37 2300.95 1520.93 Q2299.15 1524.47 2299.15 1531.6 Q2299.15 1538.71 2300.95 1542.27 Q2302.78 1545.82 2306.39 1545.82 Q2310.03 1545.82 2311.83 1542.27 Q2313.66 1538.71 2313.66 1531.6 Q2313.66 1524.47 2311.83 1520.93 Q2310.03 1517.37 2306.39 1517.37 M2306.39 1513.66 Q2312.2 1513.66 2315.26 1518.27 Q2318.34 1522.85 2318.34 1531.6 Q2318.34 1540.33 2315.26 1544.94 Q2312.2 1549.52 2306.39 1549.52 Q2300.58 1549.52 2297.5 1544.94 Q2294.45 1540.33 2294.45 1531.6 Q2294.45 1522.85 2297.5 1518.27 Q2300.58 1513.66 2306.39 1513.66 Z" fill="#000000" fill-rule="evenodd" fill-opacity="1" /><path clip-path="url(#clip440)" d="M2336.55 1517.37 Q2332.94 1517.37 2331.11 1520.93 Q2329.31 1524.47 2329.31 1531.6 Q2329.31 1538.71 2331.11 1542.27 Q2332.94 1545.82 2336.55 1545.82 Q2340.19 1545.82 2341.99 1542.27 Q2343.82 1538.71 2343.82 1531.6 Q2343.82 1524.47 2341.99 1520.93 Q2340.19 1517.37 2336.55 1517.37 M2336.55 1513.66 Q2342.36 1513.66 2345.42 1518.27 Q2348.5 1522.85 2348.5 1531.6 Q2348.5 1540.33 2345.42 1544.94 Q2342.36 1549.52 2336.55 1549.52 Q2330.74 1549.52 2327.67 1544.94 Q2324.61 1540.33 2324.61 1531.6 Q2324.61 1522.85 2327.67 1518.27 Q2330.74 1513.66 2336.55 1513.66 Z" fill="#000000" fill-rule="evenodd" fill-opacity="1" /><polyline clip-path="url(#clip442)" style="stroke:#000000; stroke-linecap:butt; stroke-linejoin:round; stroke-width:2; stroke-opacity:0.1; fill:none" points="
  751.372,1408.84 2352.76,1408.84 
  "/>
<polyline clip-path="url(#clip442)" style="stroke:#000000; stroke-linecap:butt; stroke-linejoin:round; stroke-width:2; stroke-opacity:0.1; fill:none" points="
  751.372,1143.25 2352.76,1143.25 
  "/>
<polyline clip-path="url(#clip442)" style="stroke:#000000; stroke-linecap:butt; stroke-linejoin:round; stroke-width:2; stroke-opacity:0.1; fill:none" points="
  751.372,877.67 2352.76,877.67 
  "/>
<polyline clip-path="url(#clip442)" style="stroke:#000000; stroke-linecap:butt; stroke-linejoin:round; stroke-width:2; stroke-opacity:0.1; fill:none" points="
  751.372,612.086 2352.76,612.086 
  "/>
<polyline clip-path="url(#clip442)" style="stroke:#000000; stroke-linecap:butt; stroke-linejoin:round; stroke-width:2; stroke-opacity:0.1; fill:none" points="
  751.372,346.502 2352.76,346.502 
  "/>
<polyline clip-path="url(#clip440)" style="stroke:#000000; stroke-linecap:butt; stroke-linejoin:round; stroke-width:4; stroke-opacity:1; fill:none" points="
  751.372,1486.45 751.372,123.472 
  "/>
<polyline clip-path="url(#clip440)" style="stroke:#000000; stroke-linecap:butt; stroke-linejoin:round; stroke-width:4; stroke-opacity:1; fill:none" points="
  751.372,1408.84 765.538,1408.84 
  "/>
<polyline clip-path="url(#clip440)" style="stroke:#000000; stroke-linecap:butt; stroke-linejoin:round; stroke-width:4; stroke-opacity:1; fill:none" points="
  751.372,1143.25 765.538,1143.25 
  "/>
<polyline clip-path="url(#clip440)" style="stroke:#000000; stroke-linecap:butt; stroke-linejoin:round; stroke-width:4; stroke-opacity:1; fill:none" points="
  751.372,877.67 765.538,877.67 
  "/>
<polyline clip-path="url(#clip440)" style="stroke:#000000; stroke-linecap:butt; stroke-linejoin:round; stroke-width:4; stroke-opacity:1; fill:none" points="
  751.372,612.086 765.538,612.086 
  "/>
<polyline clip-path="url(#clip440)" style="stroke:#000000; stroke-linecap:butt; stroke-linejoin:round; stroke-width:4; stroke-opacity:1; fill:none" points="
  751.372,346.502 765.538,346.502 
  "/>
<path clip-path="url(#clip440)" d="M598.868 1394.64 Q595.257 1394.64 593.428 1398.2 Q591.623 1401.74 591.623 1408.87 Q591.623 1415.98 593.428 1419.55 Q595.257 1423.09 598.868 1423.09 Q602.502 1423.09 604.308 1419.55 Q606.137 1415.98 606.137 1408.87 Q606.137 1401.74 604.308 1398.2 Q602.502 1394.64 598.868 1394.64 M598.868 1390.93 Q604.678 1390.93 607.734 1395.54 Q610.813 1400.12 610.813 1408.87 Q610.813 1417.6 607.734 1422.21 Q604.678 1426.79 598.868 1426.79 Q593.058 1426.79 589.979 1422.21 Q586.924 1417.6 586.924 1408.87 Q586.924 1400.12 589.979 1395.54 Q593.058 1390.93 598.868 1390.93 Z" fill="#000000" fill-rule="evenodd" fill-opacity="1" /><path clip-path="url(#clip440)" d="M619.03 1420.24 L623.914 1420.24 L623.914 1426.12 L619.03 1426.12 L619.03 1420.24 Z" fill="#000000" fill-rule="evenodd" fill-opacity="1" /><path clip-path="url(#clip440)" d="M634.146 1391.56 L652.502 1391.56 L652.502 1395.49 L638.428 1395.49 L638.428 1403.97 Q639.447 1403.62 640.465 1403.46 Q641.484 1403.27 642.502 1403.27 Q648.289 1403.27 651.669 1406.44 Q655.048 1409.61 655.048 1415.03 Q655.048 1420.61 651.576 1423.71 Q648.104 1426.79 641.785 1426.79 Q639.609 1426.79 637.34 1426.42 Q635.095 1426.05 632.687 1425.31 L632.687 1420.61 Q634.771 1421.74 636.993 1422.3 Q639.215 1422.86 641.692 1422.86 Q645.697 1422.86 648.035 1420.75 Q650.373 1418.64 650.373 1415.03 Q650.373 1411.42 648.035 1409.31 Q645.697 1407.21 641.692 1407.21 Q639.817 1407.21 637.942 1407.62 Q636.09 1408.04 634.146 1408.92 L634.146 1391.56 Z" fill="#000000" fill-rule="evenodd" fill-opacity="1" /><path clip-path="url(#clip440)" d="M663.081 1391.56 L685.303 1391.56 L685.303 1393.55 L672.757 1426.12 L667.872 1426.12 L679.678 1395.49 L663.081 1395.49 L663.081 1391.56 Z" fill="#000000" fill-rule="evenodd" fill-opacity="1" /><path clip-path="url(#clip440)" d="M694.47 1391.56 L712.826 1391.56 L712.826 1395.49 L698.752 1395.49 L698.752 1403.97 Q699.77 1403.62 700.789 1403.46 Q701.807 1403.27 702.826 1403.27 Q708.613 1403.27 711.993 1406.44 Q715.372 1409.61 715.372 1415.03 Q715.372 1420.61 711.9 1423.71 Q708.428 1426.79 702.108 1426.79 Q699.932 1426.79 697.664 1426.42 Q695.419 1426.05 693.011 1425.31 L693.011 1420.61 Q695.095 1421.74 697.317 1422.3 Q699.539 1422.86 702.016 1422.86 Q706.02 1422.86 708.358 1420.75 Q710.696 1418.64 710.696 1415.03 Q710.696 1411.42 708.358 1409.31 Q706.02 1407.21 702.016 1407.21 Q700.141 1407.21 698.266 1407.62 Q696.414 1408.04 694.47 1408.92 L694.47 1391.56 Z" fill="#000000" fill-rule="evenodd" fill-opacity="1" /><path clip-path="url(#clip440)" d="M597.873 1129.05 Q594.262 1129.05 592.433 1132.62 Q590.627 1136.16 590.627 1143.29 Q590.627 1150.4 592.433 1153.96 Q594.262 1157.5 597.873 1157.5 Q601.507 1157.5 603.313 1153.96 Q605.141 1150.4 605.141 1143.29 Q605.141 1136.16 603.313 1132.62 Q601.507 1129.05 597.873 1129.05 M597.873 1125.35 Q603.683 1125.35 606.739 1129.96 Q609.817 1134.54 609.817 1143.29 Q609.817 1152.02 606.739 1156.62 Q603.683 1161.21 597.873 1161.21 Q592.063 1161.21 588.984 1156.62 Q585.928 1152.02 585.928 1143.29 Q585.928 1134.54 588.984 1129.96 Q592.063 1125.35 597.873 1125.35 Z" fill="#000000" fill-rule="evenodd" fill-opacity="1" /><path clip-path="url(#clip440)" d="M618.035 1154.66 L622.919 1154.66 L622.919 1160.53 L618.035 1160.53 L618.035 1154.66 Z" fill="#000000" fill-rule="evenodd" fill-opacity="1" /><path clip-path="url(#clip440)" d="M643.683 1141.39 Q640.535 1141.39 638.683 1143.54 Q636.854 1145.7 636.854 1149.45 Q636.854 1153.17 638.683 1155.35 Q640.535 1157.5 643.683 1157.5 Q646.831 1157.5 648.66 1155.35 Q650.511 1153.17 650.511 1149.45 Q650.511 1145.7 648.66 1143.54 Q646.831 1141.39 643.683 1141.39 M652.965 1126.74 L652.965 1131 Q651.206 1130.16 649.4 1129.72 Q647.618 1129.28 645.859 1129.28 Q641.229 1129.28 638.775 1132.41 Q636.345 1135.53 635.998 1141.85 Q637.363 1139.84 639.424 1138.78 Q641.484 1137.69 643.961 1137.69 Q649.169 1137.69 652.178 1140.86 Q655.21 1144.01 655.21 1149.45 Q655.21 1154.77 652.062 1157.99 Q648.914 1161.21 643.683 1161.21 Q637.687 1161.21 634.516 1156.62 Q631.345 1152.02 631.345 1143.29 Q631.345 1135.1 635.234 1130.23 Q639.123 1125.35 645.673 1125.35 Q647.433 1125.35 649.215 1125.7 Q651.021 1126.04 652.965 1126.74 Z" fill="#000000" fill-rule="evenodd" fill-opacity="1" /><path clip-path="url(#clip440)" d="M673.266 1129.05 Q669.655 1129.05 667.826 1132.62 Q666.021 1136.16 666.021 1143.29 Q666.021 1150.4 667.826 1153.96 Q669.655 1157.5 673.266 1157.5 Q676.9 1157.5 678.706 1153.96 Q680.534 1150.4 680.534 1143.29 Q680.534 1136.16 678.706 1132.62 Q676.9 1129.05 673.266 1129.05 M673.266 1125.35 Q679.076 1125.35 682.132 1129.96 Q685.21 1134.54 685.21 1143.29 Q685.21 1152.02 682.132 1156.62 Q679.076 1161.21 673.266 1161.21 Q667.456 1161.21 664.377 1156.62 Q661.322 1152.02 661.322 1143.29 Q661.322 1134.54 664.377 1129.96 Q667.456 1125.35 673.266 1125.35 Z" fill="#000000" fill-rule="evenodd" fill-opacity="1" /><path clip-path="url(#clip440)" d="M703.428 1129.05 Q699.817 1129.05 697.988 1132.62 Q696.182 1136.16 696.182 1143.29 Q696.182 1150.4 697.988 1153.96 Q699.817 1157.5 703.428 1157.5 Q707.062 1157.5 708.868 1153.96 Q710.696 1150.4 710.696 1143.29 Q710.696 1136.16 708.868 1132.62 Q707.062 1129.05 703.428 1129.05 M703.428 1125.35 Q709.238 1125.35 712.294 1129.96 Q715.372 1134.54 715.372 1143.29 Q715.372 1152.02 712.294 1156.62 Q709.238 1161.21 703.428 1161.21 Q697.618 1161.21 694.539 1156.62 Q691.483 1152.02 691.483 1143.29 Q691.483 1134.54 694.539 1129.96 Q697.618 1125.35 703.428 1125.35 Z" fill="#000000" fill-rule="evenodd" fill-opacity="1" /><path clip-path="url(#clip440)" d="M598.868 863.469 Q595.257 863.469 593.428 867.034 Q591.623 870.576 591.623 877.705 Q591.623 884.812 593.428 888.376 Q595.257 891.918 598.868 891.918 Q602.502 891.918 604.308 888.376 Q606.137 884.812 606.137 877.705 Q606.137 870.576 604.308 867.034 Q602.502 863.469 598.868 863.469 M598.868 859.765 Q604.678 859.765 607.734 864.372 Q610.813 868.955 610.813 877.705 Q610.813 886.432 607.734 891.038 Q604.678 895.622 598.868 895.622 Q593.058 895.622 589.979 891.038 Q586.924 886.432 586.924 877.705 Q586.924 868.955 589.979 864.372 Q593.058 859.765 598.868 859.765 Z" fill="#000000" fill-rule="evenodd" fill-opacity="1" /><path clip-path="url(#clip440)" d="M619.03 889.071 L623.914 889.071 L623.914 894.95 L619.03 894.95 L619.03 889.071 Z" fill="#000000" fill-rule="evenodd" fill-opacity="1" /><path clip-path="url(#clip440)" d="M644.678 875.807 Q641.53 875.807 639.678 877.96 Q637.849 880.113 637.849 883.863 Q637.849 887.589 639.678 889.765 Q641.53 891.918 644.678 891.918 Q647.826 891.918 649.655 889.765 Q651.507 887.589 651.507 883.863 Q651.507 880.113 649.655 877.96 Q647.826 875.807 644.678 875.807 M653.96 861.154 L653.96 865.414 Q652.201 864.58 650.396 864.14 Q648.613 863.701 646.854 863.701 Q642.224 863.701 639.771 866.826 Q637.34 869.951 636.993 876.27 Q638.359 874.256 640.419 873.191 Q642.479 872.103 644.956 872.103 Q650.164 872.103 653.173 875.275 Q656.206 878.423 656.206 883.863 Q656.206 889.187 653.058 892.404 Q649.91 895.622 644.678 895.622 Q638.683 895.622 635.512 891.038 Q632.34 886.432 632.34 877.705 Q632.34 869.511 636.229 864.65 Q640.118 859.765 646.669 859.765 Q648.428 859.765 650.211 860.113 Q652.016 860.46 653.96 861.154 Z" fill="#000000" fill-rule="evenodd" fill-opacity="1" /><path clip-path="url(#clip440)" d="M668.289 891.015 L684.608 891.015 L684.608 894.95 L662.664 894.95 L662.664 891.015 Q665.326 888.261 669.909 883.631 Q674.516 878.978 675.696 877.636 Q677.942 875.113 678.821 873.376 Q679.724 871.617 679.724 869.927 Q679.724 867.173 677.78 865.437 Q675.859 863.701 672.757 863.701 Q670.558 863.701 668.104 864.464 Q665.673 865.228 662.896 866.779 L662.896 862.057 Q665.72 860.923 668.173 860.344 Q670.627 859.765 672.664 859.765 Q678.034 859.765 681.229 862.451 Q684.423 865.136 684.423 869.626 Q684.423 871.756 683.613 873.677 Q682.826 875.576 680.72 878.168 Q680.141 878.839 677.039 882.057 Q673.937 885.251 668.289 891.015 Z" fill="#000000" fill-rule="evenodd" fill-opacity="1" /><path clip-path="url(#clip440)" d="M694.47 860.39 L712.826 860.39 L712.826 864.326 L698.752 864.326 L698.752 872.798 Q699.77 872.451 700.789 872.288 Q701.807 872.103 702.826 872.103 Q708.613 872.103 711.993 875.275 Q715.372 878.446 715.372 883.863 Q715.372 889.441 711.9 892.543 Q708.428 895.622 702.108 895.622 Q699.932 895.622 697.664 895.251 Q695.419 894.881 693.011 894.14 L693.011 889.441 Q695.095 890.575 697.317 891.131 Q699.539 891.687 702.016 891.687 Q706.02 891.687 708.358 889.58 Q710.696 887.474 710.696 883.863 Q710.696 880.251 708.358 878.145 Q706.02 876.038 702.016 876.038 Q700.141 876.038 698.266 876.455 Q696.414 876.872 694.47 877.751 L694.47 860.39 Z" fill="#000000" fill-rule="evenodd" fill-opacity="1" /><path clip-path="url(#clip440)" d="M597.873 597.885 Q594.262 597.885 592.433 601.45 Q590.627 604.991 590.627 612.121 Q590.627 619.227 592.433 622.792 Q594.262 626.334 597.873 626.334 Q601.507 626.334 603.313 622.792 Q605.141 619.227 605.141 612.121 Q605.141 604.991 603.313 601.45 Q601.507 597.885 597.873 597.885 M597.873 594.181 Q603.683 594.181 606.739 598.788 Q609.817 603.371 609.817 612.121 Q609.817 620.848 606.739 625.454 Q603.683 630.037 597.873 630.037 Q592.063 630.037 588.984 625.454 Q585.928 620.848 585.928 612.121 Q585.928 603.371 588.984 598.788 Q592.063 594.181 597.873 594.181 Z" fill="#000000" fill-rule="evenodd" fill-opacity="1" /><path clip-path="url(#clip440)" d="M618.035 623.486 L622.919 623.486 L622.919 629.366 L618.035 629.366 L618.035 623.486 Z" fill="#000000" fill-rule="evenodd" fill-opacity="1" /><path clip-path="url(#clip440)" d="M643.683 610.223 Q640.535 610.223 638.683 612.375 Q636.854 614.528 636.854 618.278 Q636.854 622.005 638.683 624.181 Q640.535 626.334 643.683 626.334 Q646.831 626.334 648.66 624.181 Q650.511 622.005 650.511 618.278 Q650.511 614.528 648.66 612.375 Q646.831 610.223 643.683 610.223 M652.965 595.57 L652.965 599.829 Q651.206 598.996 649.4 598.556 Q647.618 598.116 645.859 598.116 Q641.229 598.116 638.775 601.241 Q636.345 604.366 635.998 610.686 Q637.363 608.672 639.424 607.607 Q641.484 606.519 643.961 606.519 Q649.169 606.519 652.178 609.69 Q655.21 612.838 655.21 618.278 Q655.21 623.602 652.062 626.82 Q648.914 630.037 643.683 630.037 Q637.687 630.037 634.516 625.454 Q631.345 620.848 631.345 612.121 Q631.345 603.926 635.234 599.065 Q639.123 594.181 645.673 594.181 Q647.433 594.181 649.215 594.528 Q651.021 594.876 652.965 595.57 Z" fill="#000000" fill-rule="evenodd" fill-opacity="1" /><path clip-path="url(#clip440)" d="M663.312 594.806 L681.669 594.806 L681.669 598.741 L667.595 598.741 L667.595 607.213 Q668.613 606.866 669.632 606.704 Q670.65 606.519 671.669 606.519 Q677.456 606.519 680.835 609.69 Q684.215 612.862 684.215 618.278 Q684.215 623.857 680.743 626.959 Q677.271 630.037 670.951 630.037 Q668.775 630.037 666.507 629.667 Q664.261 629.297 661.854 628.556 L661.854 623.857 Q663.937 624.991 666.159 625.547 Q668.382 626.102 670.859 626.102 Q674.863 626.102 677.201 623.996 Q679.539 621.889 679.539 618.278 Q679.539 614.667 677.201 612.561 Q674.863 610.454 670.859 610.454 Q668.984 610.454 667.109 610.871 Q665.257 611.287 663.312 612.167 L663.312 594.806 Z" fill="#000000" fill-rule="evenodd" fill-opacity="1" /><path clip-path="url(#clip440)" d="M703.428 597.885 Q699.817 597.885 697.988 601.45 Q696.182 604.991 696.182 612.121 Q696.182 619.227 697.988 622.792 Q699.817 626.334 703.428 626.334 Q707.062 626.334 708.868 622.792 Q710.696 619.227 710.696 612.121 Q710.696 604.991 708.868 601.45 Q707.062 597.885 703.428 597.885 M703.428 594.181 Q709.238 594.181 712.294 598.788 Q715.372 603.371 715.372 612.121 Q715.372 620.848 712.294 625.454 Q709.238 630.037 703.428 630.037 Q697.618 630.037 694.539 625.454 Q691.483 620.848 691.483 612.121 Q691.483 603.371 694.539 598.788 Q697.618 594.181 703.428 594.181 Z" fill="#000000" fill-rule="evenodd" fill-opacity="1" /><path clip-path="url(#clip440)" d="M598.868 332.3 Q595.257 332.3 593.428 335.865 Q591.623 339.407 591.623 346.536 Q591.623 353.643 593.428 357.208 Q595.257 360.749 598.868 360.749 Q602.502 360.749 604.308 357.208 Q606.137 353.643 606.137 346.536 Q606.137 339.407 604.308 335.865 Q602.502 332.3 598.868 332.3 M598.868 328.597 Q604.678 328.597 607.734 333.203 Q610.813 337.787 610.813 346.536 Q610.813 355.263 607.734 359.87 Q604.678 364.453 598.868 364.453 Q593.058 364.453 589.979 359.87 Q586.924 355.263 586.924 346.536 Q586.924 337.787 589.979 333.203 Q593.058 328.597 598.868 328.597 Z" fill="#000000" fill-rule="evenodd" fill-opacity="1" /><path clip-path="url(#clip440)" d="M619.03 357.902 L623.914 357.902 L623.914 363.782 L619.03 363.782 L619.03 357.902 Z" fill="#000000" fill-rule="evenodd" fill-opacity="1" /><path clip-path="url(#clip440)" d="M644.678 344.638 Q641.53 344.638 639.678 346.791 Q637.849 348.944 637.849 352.694 Q637.849 356.421 639.678 358.597 Q641.53 360.749 644.678 360.749 Q647.826 360.749 649.655 358.597 Q651.507 356.421 651.507 352.694 Q651.507 348.944 649.655 346.791 Q647.826 344.638 644.678 344.638 M653.96 329.986 L653.96 334.245 Q652.201 333.412 650.396 332.972 Q648.613 332.532 646.854 332.532 Q642.224 332.532 639.771 335.657 Q637.34 338.782 636.993 345.101 Q638.359 343.087 640.419 342.023 Q642.479 340.935 644.956 340.935 Q650.164 340.935 653.173 344.106 Q656.206 347.254 656.206 352.694 Q656.206 358.018 653.058 361.235 Q649.91 364.453 644.678 364.453 Q638.683 364.453 635.512 359.87 Q632.34 355.263 632.34 346.536 Q632.34 338.342 636.229 333.481 Q640.118 328.597 646.669 328.597 Q648.428 328.597 650.211 328.944 Q652.016 329.291 653.96 329.986 Z" fill="#000000" fill-rule="evenodd" fill-opacity="1" /><path clip-path="url(#clip440)" d="M663.081 329.222 L685.303 329.222 L685.303 331.212 L672.757 363.782 L667.872 363.782 L679.678 333.157 L663.081 333.157 L663.081 329.222 Z" fill="#000000" fill-rule="evenodd" fill-opacity="1" /><path clip-path="url(#clip440)" d="M694.47 329.222 L712.826 329.222 L712.826 333.157 L698.752 333.157 L698.752 341.629 Q699.77 341.282 700.789 341.12 Q701.807 340.935 702.826 340.935 Q708.613 340.935 711.993 344.106 Q715.372 347.277 715.372 352.694 Q715.372 358.273 711.9 361.374 Q708.428 364.453 702.108 364.453 Q699.932 364.453 697.664 364.083 Q695.419 363.712 693.011 362.972 L693.011 358.273 Q695.095 359.407 697.317 359.962 Q699.539 360.518 702.016 360.518 Q706.02 360.518 708.358 358.411 Q710.696 356.305 710.696 352.694 Q710.696 349.083 708.358 346.976 Q706.02 344.87 702.016 344.87 Q700.141 344.87 698.266 345.286 Q696.414 345.703 694.47 346.583 L694.47 329.222 Z" fill="#000000" fill-rule="evenodd" fill-opacity="1" /><path clip-path="url(#clip440)" d="M1391.95 20.1573 L1380.85 50.2555 L1403.09 50.2555 L1391.95 20.1573 M1387.33 12.096 L1396.61 12.096 L1419.66 72.576 L1411.15 72.576 L1405.64 57.061 L1378.38 57.061 L1372.87 72.576 L1364.24 72.576 L1387.33 12.096 Z" fill="#000000" fill-rule="evenodd" fill-opacity="1" /><path clip-path="url(#clip440)" d="M1459.36 28.9478 L1459.36 35.9153 Q1456.2 34.1734 1453 33.3227 Q1449.84 32.4315 1446.6 32.4315 Q1439.35 32.4315 1435.34 37.0496 Q1431.33 41.6271 1431.33 49.9314 Q1431.33 58.2358 1435.34 62.8538 Q1439.35 67.4314 1446.6 67.4314 Q1449.84 67.4314 1453 66.5807 Q1456.2 65.6895 1459.36 63.9476 L1459.36 70.8341 Q1456.24 72.2924 1452.88 73.0216 Q1449.56 73.7508 1445.79 73.7508 Q1435.54 73.7508 1429.5 67.3098 Q1423.47 60.8689 1423.47 49.9314 Q1423.47 38.832 1429.54 32.472 Q1435.66 26.1121 1446.27 26.1121 Q1449.72 26.1121 1453 26.8413 Q1456.28 27.5299 1459.36 28.9478 Z" fill="#000000" fill-rule="evenodd" fill-opacity="1" /><path clip-path="url(#clip440)" d="M1504.97 28.9478 L1504.97 35.9153 Q1501.81 34.1734 1498.61 33.3227 Q1495.45 32.4315 1492.21 32.4315 Q1484.96 32.4315 1480.95 37.0496 Q1476.94 41.6271 1476.94 49.9314 Q1476.94 58.2358 1480.95 62.8538 Q1484.96 67.4314 1492.21 67.4314 Q1495.45 67.4314 1498.61 66.5807 Q1501.81 65.6895 1504.97 63.9476 L1504.97 70.8341 Q1501.85 72.2924 1498.49 73.0216 Q1495.17 73.7508 1491.4 73.7508 Q1481.15 73.7508 1475.12 67.3098 Q1469.08 60.8689 1469.08 49.9314 Q1469.08 38.832 1475.16 32.472 Q1481.27 26.1121 1491.89 26.1121 Q1495.33 26.1121 1498.61 26.8413 Q1501.89 27.5299 1504.97 28.9478 Z" fill="#000000" fill-rule="evenodd" fill-opacity="1" /><path clip-path="url(#clip440)" d="M1517.17 54.671 L1517.17 27.2059 L1524.62 27.2059 L1524.62 54.3874 Q1524.62 60.8284 1527.13 64.0691 Q1529.64 67.2693 1534.67 67.2693 Q1540.7 67.2693 1544.19 63.421 Q1547.71 59.5726 1547.71 52.9291 L1547.71 27.2059 L1555.16 27.2059 L1555.16 72.576 L1547.71 72.576 L1547.71 65.6084 Q1545 69.7404 1541.39 71.7658 Q1537.83 73.7508 1533.09 73.7508 Q1525.27 73.7508 1521.22 68.8897 Q1517.17 64.0286 1517.17 54.671 M1535.92 26.1121 L1535.92 26.1121 Z" fill="#000000" fill-rule="evenodd" fill-opacity="1" /><path clip-path="url(#clip440)" d="M1596.81 34.1734 Q1595.55 33.4443 1594.05 33.1202 Q1592.59 32.7556 1590.81 32.7556 Q1584.49 32.7556 1581.09 36.8875 Q1577.73 40.9789 1577.73 48.6757 L1577.73 72.576 L1570.23 72.576 L1570.23 27.2059 L1577.73 27.2059 L1577.73 34.2544 Q1580.08 30.1225 1583.84 28.1376 Q1587.61 26.1121 1593 26.1121 Q1593.77 26.1121 1594.7 26.2337 Q1595.63 26.3147 1596.77 26.5172 L1596.81 34.1734 Z" fill="#000000" fill-rule="evenodd" fill-opacity="1" /><path clip-path="url(#clip440)" d="M1625.24 49.7694 Q1616.21 49.7694 1612.73 51.8354 Q1609.24 53.9013 1609.24 58.8839 Q1609.24 62.8538 1611.84 65.2034 Q1614.47 67.5124 1618.96 67.5124 Q1625.16 67.5124 1628.89 63.1374 Q1632.66 58.7219 1632.66 51.4303 L1632.66 49.7694 L1625.24 49.7694 M1640.11 46.6907 L1640.11 72.576 L1632.66 72.576 L1632.66 65.6895 Q1630.1 69.8214 1626.3 71.8063 Q1622.49 73.7508 1616.98 73.7508 Q1610.01 73.7508 1605.88 69.8619 Q1601.79 65.9325 1601.79 59.3701 Q1601.79 51.7138 1606.89 47.825 Q1612.04 43.9361 1622.21 43.9361 L1632.66 43.9361 L1632.66 43.2069 Q1632.66 38.0623 1629.25 35.2672 Q1625.89 32.4315 1619.77 32.4315 Q1615.89 32.4315 1612.2 33.3632 Q1608.51 34.295 1605.11 36.1584 L1605.11 29.2718 Q1609.2 27.692 1613.05 26.9223 Q1616.9 26.1121 1620.54 26.1121 Q1630.39 26.1121 1635.25 31.2163 Q1640.11 36.3204 1640.11 46.6907 Z" fill="#000000" fill-rule="evenodd" fill-opacity="1" /><path clip-path="url(#clip440)" d="M1688.11 28.9478 L1688.11 35.9153 Q1684.95 34.1734 1681.75 33.3227 Q1678.59 32.4315 1675.35 32.4315 Q1668.1 32.4315 1664.09 37.0496 Q1660.08 41.6271 1660.08 49.9314 Q1660.08 58.2358 1664.09 62.8538 Q1668.1 67.4314 1675.35 67.4314 Q1678.59 67.4314 1681.75 66.5807 Q1684.95 65.6895 1688.11 63.9476 L1688.11 70.8341 Q1684.99 72.2924 1681.63 73.0216 Q1678.31 73.7508 1674.54 73.7508 Q1664.29 73.7508 1658.26 67.3098 Q1652.22 60.8689 1652.22 49.9314 Q1652.22 38.832 1658.3 32.472 Q1664.42 26.1121 1675.03 26.1121 Q1678.47 26.1121 1681.75 26.8413 Q1685.03 27.5299 1688.11 28.9478 Z" fill="#000000" fill-rule="evenodd" fill-opacity="1" /><path clip-path="url(#clip440)" d="M1719.95 76.7889 Q1716.79 84.8907 1713.8 87.3618 Q1710.8 89.8329 1705.78 89.8329 L1699.82 89.8329 L1699.82 83.5945 L1704.2 83.5945 Q1707.27 83.5945 1708.98 82.1361 Q1710.68 80.6778 1712.74 75.2496 L1714.08 71.8468 L1695.73 27.2059 L1703.63 27.2059 L1717.81 62.6918 L1731.98 27.2059 L1739.88 27.2059 L1719.95 76.7889 Z" fill="#000000" fill-rule="evenodd" fill-opacity="1" /><polyline clip-path="url(#clip442)" style="stroke:#009af9; stroke-linecap:butt; stroke-linejoin:round; stroke-width:4; stroke-opacity:1; fill:none" points="
  796.694,1447.87 811.954,1080.49 827.214,1080.49 842.474,1080.49 857.734,1080.49 872.994,1080.49 888.254,1080.49 903.514,1080.49 918.774,1080.49 934.034,1080.49 
  949.294,1080.49 964.554,1080.49 979.814,1080.49 995.074,1080.49 1010.33,1080.49 1025.59,1080.49 1040.85,1080.49 1056.11,1080.49 1071.37,1080.49 1086.63,1080.49 
  1101.89,1080.49 1117.15,1080.49 1132.41,1080.49 1147.67,1080.49 1162.93,1080.49 1178.19,1080.49 1193.45,1080.49 1208.71,1080.49 1223.97,1080.49 1239.23,1080.49 
  1254.49,1080.49 1269.75,1080.49 1285.01,904.458 1300.27,904.458 1315.53,904.458 1330.79,904.458 1346.05,904.458 1361.31,904.458 1376.57,904.458 1391.83,904.458 
  1407.09,904.458 1422.35,904.458 1437.61,904.458 1452.87,904.458 1468.13,904.458 1483.39,904.458 1498.65,904.458 1513.91,904.458 1529.17,904.458 1544.43,904.458 
  1559.69,904.458 1574.95,904.458 1590.21,904.458 1605.47,904.458 1620.73,904.458 1635.99,904.458 1651.25,904.458 1666.51,904.458 1681.77,904.458 1697.03,904.458 
  1712.29,904.458 1727.55,904.458 1742.81,904.458 1758.07,904.458 1773.33,904.458 1788.59,904.458 1803.85,904.458 1819.11,904.458 1834.37,904.458 1849.63,904.458 
  1864.89,904.458 1880.15,904.458 1895.41,904.458 1910.67,904.458 1925.93,904.458 1941.19,904.458 1956.45,904.458 1971.71,904.458 1986.97,904.458 2002.23,904.458 
  2017.49,904.458 2032.75,904.458 2048.01,904.458 2063.27,904.458 2078.53,904.458 2093.79,904.458 2109.05,743.73 2124.31,743.73 2139.57,743.73 2154.83,743.73 
  2170.09,743.73 2185.35,743.73 2200.61,743.73 2215.87,743.73 2231.13,743.73 2246.39,743.73 2261.65,743.73 2276.91,743.73 2292.17,743.73 2307.43,743.73 
  
  "/>
<polyline clip-path="url(#clip442)" style="stroke:#e26f46; stroke-linecap:butt; stroke-linejoin:round; stroke-width:4; stroke-opacity:1; fill:none" points="
  796.694,1271.84 811.954,881.497 827.214,881.497 842.474,812.614 857.734,858.536 872.994,843.229 888.254,774.345 903.514,751.384 918.774,781.999 934.034,720.769 
  949.294,697.808 964.554,628.924 979.814,636.578 995.074,644.232 1010.33,651.885 1025.59,659.539 1040.85,667.193 1056.11,667.193 1071.37,667.193 1086.63,659.539 
  1101.89,651.885 1117.15,674.847 1132.41,659.539 1147.67,628.924 1162.93,605.963 1178.19,605.963 1193.45,605.963 1208.71,583.002 1223.97,575.348 1239.23,575.348 
  1254.49,552.387 1269.75,560.041 1285.01,521.772 1300.27,514.118 1315.53,514.118 1330.79,483.503 1346.05,491.157 1361.31,468.196 1376.57,475.85 1391.83,475.85 
  1407.09,452.889 1422.35,468.196 1437.61,445.235 1452.87,445.235 1468.13,422.274 1483.39,414.62 1498.65,406.966 1513.91,391.659 1529.17,384.005 1544.43,391.659 
  1559.69,406.966 1574.95,406.966 1590.21,384.005 1605.47,368.698 1620.73,376.351 1635.99,376.351 1651.25,353.39 1666.51,353.39 1681.77,338.083 1697.03,330.429 
  1712.29,299.814 1727.55,307.468 1742.81,284.507 1758.07,269.199 1773.33,261.545 1788.59,261.545 1803.85,261.545 1819.11,269.199 1834.37,276.853 1849.63,299.814 
  1864.89,322.775 1880.15,322.775 1895.41,315.121 1910.67,307.468 1925.93,307.468 1941.19,299.814 1956.45,284.507 1971.71,261.545 1986.97,269.199 2002.23,284.507 
  2017.49,284.507 2032.75,269.199 2048.01,253.892 2063.27,253.892 2078.53,261.545 2093.79,238.584 2109.05,215.623 2124.31,215.623 2139.57,200.316 2154.83,177.354 
  2170.09,169.701 2185.35,169.701 2200.61,185.008 2215.87,177.354 2231.13,169.701 2246.39,169.701 2261.65,177.354 2276.91,177.354 2292.17,162.047 2307.43,169.701 
  
  "/>
<path clip-path="url(#clip440)" d="
M145.225 324.425 L479.507 324.425 L479.507 168.905 L145.225 168.905  Z
  " fill="#ffffff" fill-rule="evenodd" fill-opacity="1"/>
<polyline clip-path="url(#clip440)" style="stroke:#000000; stroke-linecap:butt; stroke-linejoin:round; stroke-width:4; stroke-opacity:1; fill:none" points="
  145.225,324.425 479.507,324.425 479.507,168.905 145.225,168.905 145.225,324.425 
  "/>
<polyline clip-path="url(#clip440)" style="stroke:#009af9; stroke-linecap:butt; stroke-linejoin:round; stroke-width:4; stroke-opacity:1; fill:none" points="
  169.225,220.745 313.225,220.745 
  "/>
<path clip-path="url(#clip440)" d="M353.058 208.071 L346.716 225.27 L359.424 225.27 L353.058 208.071 M350.42 203.465 L355.72 203.465 L368.892 238.025 L364.031 238.025 L360.882 229.159 L345.304 229.159 L342.156 238.025 L337.225 238.025 L350.42 203.465 Z" fill="#000000" fill-rule="evenodd" fill-opacity="1" /><path clip-path="url(#clip440)" d="M378.614 221.52 L378.614 234.182 L386.114 234.182 Q389.887 234.182 391.693 232.631 Q393.521 231.057 393.521 227.84 Q393.521 224.599 391.693 223.071 Q389.887 221.52 386.114 221.52 L378.614 221.52 M378.614 207.307 L378.614 217.724 L385.535 217.724 Q388.961 217.724 390.628 216.451 Q392.318 215.154 392.318 212.516 Q392.318 209.9 390.628 208.604 Q388.961 207.307 385.535 207.307 L378.614 207.307 M373.938 203.465 L385.882 203.465 Q391.23 203.465 394.123 205.687 Q397.017 207.909 397.017 212.006 Q397.017 215.178 395.535 217.053 Q394.054 218.928 391.183 219.39 Q394.632 220.131 396.53 222.492 Q398.452 224.83 398.452 228.349 Q398.452 232.978 395.304 235.502 Q392.155 238.025 386.345 238.025 L373.938 238.025 L373.938 203.465 Z" fill="#000000" fill-rule="evenodd" fill-opacity="1" /><path clip-path="url(#clip440)" d="M431.507 206.127 L431.507 211.057 Q429.146 208.858 426.461 207.77 Q423.799 206.682 420.79 206.682 Q414.864 206.682 411.716 210.316 Q408.567 213.928 408.567 220.779 Q408.567 227.608 411.716 231.242 Q414.864 234.853 420.79 234.853 Q423.799 234.853 426.461 233.765 Q429.146 232.677 431.507 230.478 L431.507 235.363 Q429.053 237.029 426.299 237.863 Q423.567 238.696 420.512 238.696 Q412.665 238.696 408.151 233.904 Q403.637 229.09 403.637 220.779 Q403.637 212.446 408.151 207.654 Q412.665 202.84 420.512 202.84 Q423.614 202.84 426.345 203.673 Q429.1 204.483 431.507 206.127 Z" fill="#000000" fill-rule="evenodd" fill-opacity="1" /><polyline clip-path="url(#clip440)" style="stroke:#e26f46; stroke-linecap:butt; stroke-linejoin:round; stroke-width:4; stroke-opacity:1; fill:none" points="
  169.225,272.585 313.225,272.585 
  "/>
<path clip-path="url(#clip440)" d="M341.901 273.36 L341.901 286.022 L349.401 286.022 Q353.174 286.022 354.98 284.471 Q356.808 282.897 356.808 279.68 Q356.808 276.439 354.98 274.911 Q353.174 273.36 349.401 273.36 L341.901 273.36 M341.901 259.147 L341.901 269.564 L348.822 269.564 Q352.248 269.564 353.915 268.291 Q355.605 266.994 355.605 264.356 Q355.605 261.74 353.915 260.444 Q352.248 259.147 348.822 259.147 L341.901 259.147 M337.225 255.305 L349.17 255.305 Q354.517 255.305 357.41 257.527 Q360.304 259.749 360.304 263.846 Q360.304 267.018 358.822 268.893 Q357.341 270.768 354.47 271.23 Q357.92 271.971 359.818 274.332 Q361.739 276.67 361.739 280.189 Q361.739 284.818 358.591 287.342 Q355.443 289.865 349.633 289.865 L337.225 289.865 L337.225 255.305 Z" fill="#000000" fill-rule="evenodd" fill-opacity="1" /><path clip-path="url(#clip440)" d="M374.424 259.147 L374.424 272.133 L380.304 272.133 Q383.568 272.133 385.35 270.443 Q387.132 268.754 387.132 265.629 Q387.132 262.527 385.35 260.837 Q383.568 259.147 380.304 259.147 L374.424 259.147 M369.748 255.305 L380.304 255.305 Q386.114 255.305 389.077 257.944 Q392.063 260.559 392.063 265.629 Q392.063 270.744 389.077 273.36 Q386.114 275.976 380.304 275.976 L374.424 275.976 L374.424 289.865 L369.748 289.865 L369.748 255.305 Z" fill="#000000" fill-rule="evenodd" fill-opacity="1" /></svg>
