<?xml version="1.0" encoding="utf-8"?>
<svg xmlns="http://www.w3.org/2000/svg" xmlns:xlink="http://www.w3.org/1999/xlink" width="600" height="400" viewBox="0 0 2400 1600">
<defs>
  <clipPath id="clip480">
    <rect x="0" y="0" width="2400" height="1600"/>
  </clipPath>
</defs>
<path clip-path="url(#clip480)" d="
M0 1600 L2400 1600 L2400 0 L0 0  Z
  " fill="#ffffff" fill-rule="evenodd" fill-opacity="1"/>
<defs>
  <clipPath id="clip481">
    <rect x="480" y="0" width="1681" height="1600"/>
  </clipPath>
</defs>
<path clip-path="url(#clip480)" d="
M692.054 1486.45 L2352.76 1486.45 L2352.76 123.472 L692.054 123.472  Z
  " fill="#ffffff" fill-rule="evenodd" fill-opacity="1"/>
<defs>
  <clipPath id="clip482">
    <rect x="692" y="123" width="1662" height="1364"/>
  </clipPath>
</defs>
<polyline clip-path="url(#clip482)" style="stroke:#000000; stroke-linecap:butt; stroke-linejoin:round; stroke-width:2; stroke-opacity:0.1; fill:none" points="
  723.23,1486.45 723.23,123.472 
  "/>
<polyline clip-path="url(#clip482)" style="stroke:#000000; stroke-linecap:butt; stroke-linejoin:round; stroke-width:2; stroke-opacity:0.1; fill:none" points="
  1118.86,1486.45 1118.86,123.472 
  "/>
<polyline clip-path="url(#clip482)" style="stroke:#000000; stroke-linecap:butt; stroke-linejoin:round; stroke-width:2; stroke-opacity:0.1; fill:none" points="
  1514.49,1486.45 1514.49,123.472 
  "/>
<polyline clip-path="url(#clip482)" style="stroke:#000000; stroke-linecap:butt; stroke-linejoin:round; stroke-width:2; stroke-opacity:0.1; fill:none" points="
  1910.12,1486.45 1910.12,123.472 
  "/>
<polyline clip-path="url(#clip482)" style="stroke:#000000; stroke-linecap:butt; stroke-linejoin:round; stroke-width:2; stroke-opacity:0.1; fill:none" points="
  2305.75,1486.45 2305.75,123.472 
  "/>
<polyline clip-path="url(#clip480)" style="stroke:#000000; stroke-linecap:butt; stroke-linejoin:round; stroke-width:4; stroke-opacity:1; fill:none" points="
  692.054,1486.45 2352.76,1486.45 
  "/>
<polyline clip-path="url(#clip480)" style="stroke:#000000; stroke-linecap:butt; stroke-linejoin:round; stroke-width:4; stroke-opacity:1; fill:none" points="
  723.23,1486.45 723.23,1467.55 
  "/>
<polyline clip-path="url(#clip480)" style="stroke:#000000; stroke-linecap:butt; stroke-linejoin:round; stroke-width:4; stroke-opacity:1; fill:none" points="
  1118.86,1486.45 1118.86,1467.55 
  "/>
<polyline clip-path="url(#clip480)" style="stroke:#000000; stroke-linecap:butt; stroke-linejoin:round; stroke-width:4; stroke-opacity:1; fill:none" points="
  1514.49,1486.45 1514.49,1467.55 
  "/>
<polyline clip-path="url(#clip480)" style="stroke:#000000; stroke-linecap:butt; stroke-linejoin:round; stroke-width:4; stroke-opacity:1; fill:none" points="
  1910.12,1486.45 1910.12,1467.55 
  "/>
<polyline clip-path="url(#clip480)" style="stroke:#000000; stroke-linecap:butt; stroke-linejoin:round; stroke-width:4; stroke-opacity:1; fill:none" points="
  2305.75,1486.45 2305.75,1467.55 
  "/>
<path clip-path="url(#clip480)" d="M723.23 1517.37 Q719.618 1517.37 717.79 1520.93 Q715.984 1524.47 715.984 1531.6 Q715.984 1538.71 717.79 1542.27 Q719.618 1545.82 723.23 1545.82 Q726.864 1545.82 728.669 1542.27 Q730.498 1538.71 730.498 1531.6 Q730.498 1524.47 728.669 1520.93 Q726.864 1517.37 723.23 1517.37 M723.23 1513.66 Q729.04 1513.66 732.095 1518.27 Q735.174 1522.85 735.174 1531.6 Q735.174 1540.33 732.095 1544.94 Q729.04 1549.52 723.23 1549.52 Q717.419 1549.52 714.341 1544.94 Q711.285 1540.33 711.285 1531.6 Q711.285 1522.85 714.341 1518.27 Q717.419 1513.66 723.23 1513.66 Z" fill="#000000" fill-rule="evenodd" fill-opacity="1" /><path clip-path="url(#clip480)" d="M1098.13 1544.91 L1114.45 1544.91 L1114.45 1548.85 L1092.51 1548.85 L1092.51 1544.91 Q1095.17 1542.16 1099.75 1537.53 Q1104.36 1532.88 1105.54 1531.53 Q1107.78 1529.01 1108.66 1527.27 Q1109.57 1525.51 1109.57 1523.82 Q1109.57 1521.07 1107.62 1519.33 Q1105.7 1517.6 1102.6 1517.6 Q1100.4 1517.6 1097.95 1518.36 Q1095.52 1519.13 1092.74 1520.68 L1092.74 1515.95 Q1095.56 1514.82 1098.02 1514.24 Q1100.47 1513.66 1102.51 1513.66 Q1107.88 1513.66 1111.07 1516.35 Q1114.27 1519.03 1114.27 1523.52 Q1114.27 1525.65 1113.46 1527.57 Q1112.67 1529.47 1110.56 1532.07 Q1109.98 1532.74 1106.88 1535.95 Q1103.78 1539.15 1098.13 1544.91 Z" fill="#000000" fill-rule="evenodd" fill-opacity="1" /><path clip-path="url(#clip480)" d="M1124.31 1514.29 L1142.67 1514.29 L1142.67 1518.22 L1128.59 1518.22 L1128.59 1526.7 Q1129.61 1526.35 1130.63 1526.19 Q1131.65 1526 1132.67 1526 Q1138.46 1526 1141.84 1529.17 Q1145.21 1532.34 1145.21 1537.76 Q1145.21 1543.34 1141.74 1546.44 Q1138.27 1549.52 1131.95 1549.52 Q1129.78 1549.52 1127.51 1549.15 Q1125.26 1548.78 1122.85 1548.04 L1122.85 1543.34 Q1124.94 1544.47 1127.16 1545.03 Q1129.38 1545.58 1131.86 1545.58 Q1135.86 1545.58 1138.2 1543.48 Q1140.54 1541.37 1140.54 1537.76 Q1140.54 1534.15 1138.2 1532.04 Q1135.86 1529.94 1131.86 1529.94 Q1129.98 1529.94 1128.11 1530.35 Q1126.26 1530.77 1124.31 1531.65 L1124.31 1514.29 Z" fill="#000000" fill-rule="evenodd" fill-opacity="1" /><path clip-path="url(#clip480)" d="M1489.19 1514.29 L1507.55 1514.29 L1507.55 1518.22 L1493.47 1518.22 L1493.47 1526.7 Q1494.49 1526.35 1495.51 1526.19 Q1496.53 1526 1497.55 1526 Q1503.33 1526 1506.71 1529.17 Q1510.09 1532.34 1510.09 1537.76 Q1510.09 1543.34 1506.62 1546.44 Q1503.15 1549.52 1496.83 1549.52 Q1494.65 1549.52 1492.39 1549.15 Q1490.14 1548.78 1487.73 1548.04 L1487.73 1543.34 Q1489.82 1544.47 1492.04 1545.03 Q1494.26 1545.58 1496.74 1545.58 Q1500.74 1545.58 1503.08 1543.48 Q1505.42 1541.37 1505.42 1537.76 Q1505.42 1534.15 1503.08 1532.04 Q1500.74 1529.94 1496.74 1529.94 Q1494.86 1529.94 1492.99 1530.35 Q1491.14 1530.77 1489.19 1531.65 L1489.19 1514.29 Z" fill="#000000" fill-rule="evenodd" fill-opacity="1" /><path clip-path="url(#clip480)" d="M1529.31 1517.37 Q1525.7 1517.37 1523.87 1520.93 Q1522.06 1524.47 1522.06 1531.6 Q1522.06 1538.71 1523.87 1542.27 Q1525.7 1545.82 1529.31 1545.82 Q1532.94 1545.82 1534.75 1542.27 Q1536.58 1538.71 1536.58 1531.6 Q1536.58 1524.47 1534.75 1520.93 Q1532.94 1517.37 1529.31 1517.37 M1529.31 1513.66 Q1535.12 1513.66 1538.17 1518.27 Q1541.25 1522.85 1541.25 1531.6 Q1541.25 1540.33 1538.17 1544.94 Q1535.12 1549.52 1529.31 1549.52 Q1523.5 1549.52 1520.42 1544.94 Q1517.36 1540.33 1517.36 1531.6 Q1517.36 1522.85 1520.42 1518.27 Q1523.5 1513.66 1529.31 1513.66 Z" fill="#000000" fill-rule="evenodd" fill-opacity="1" /><path clip-path="url(#clip480)" d="M1883.98 1514.29 L1906.2 1514.29 L1906.2 1516.28 L1893.65 1548.85 L1888.77 1548.85 L1900.58 1518.22 L1883.98 1518.22 L1883.98 1514.29 Z" fill="#000000" fill-rule="evenodd" fill-opacity="1" /><path clip-path="url(#clip480)" d="M1915.37 1514.29 L1933.72 1514.29 L1933.72 1518.22 L1919.65 1518.22 L1919.65 1526.7 Q1920.67 1526.35 1921.69 1526.19 Q1922.7 1526 1923.72 1526 Q1929.51 1526 1932.89 1529.17 Q1936.27 1532.34 1936.27 1537.76 Q1936.27 1543.34 1932.8 1546.44 Q1929.32 1549.52 1923.01 1549.52 Q1920.83 1549.52 1918.56 1549.15 Q1916.32 1548.78 1913.91 1548.04 L1913.91 1543.34 Q1915.99 1544.47 1918.21 1545.03 Q1920.44 1545.58 1922.91 1545.58 Q1926.92 1545.58 1929.26 1543.48 Q1931.59 1541.37 1931.59 1537.76 Q1931.59 1534.15 1929.26 1532.04 Q1926.92 1529.94 1922.91 1529.94 Q1921.04 1529.94 1919.16 1530.35 Q1917.31 1530.77 1915.37 1531.65 L1915.37 1514.29 Z" fill="#000000" fill-rule="evenodd" fill-opacity="1" /><path clip-path="url(#clip480)" d="M2265.36 1544.91 L2273 1544.91 L2273 1518.55 L2264.69 1520.21 L2264.69 1515.95 L2272.95 1514.29 L2277.63 1514.29 L2277.63 1544.91 L2285.27 1544.91 L2285.27 1548.85 L2265.36 1548.85 L2265.36 1544.91 Z" fill="#000000" fill-rule="evenodd" fill-opacity="1" /><path clip-path="url(#clip480)" d="M2304.71 1517.37 Q2301.1 1517.37 2299.27 1520.93 Q2297.47 1524.47 2297.47 1531.6 Q2297.47 1538.71 2299.27 1542.27 Q2301.1 1545.82 2304.71 1545.82 Q2308.35 1545.82 2310.15 1542.27 Q2311.98 1538.71 2311.98 1531.6 Q2311.98 1524.47 2310.15 1520.93 Q2308.35 1517.37 2304.71 1517.37 M2304.71 1513.66 Q2310.52 1513.66 2313.58 1518.27 Q2316.66 1522.85 2316.66 1531.6 Q2316.66 1540.33 2313.58 1544.94 Q2310.52 1549.52 2304.71 1549.52 Q2298.9 1549.52 2295.82 1544.94 Q2292.77 1540.33 2292.77 1531.6 Q2292.77 1522.85 2295.82 1518.27 Q2298.9 1513.66 2304.71 1513.66 Z" fill="#000000" fill-rule="evenodd" fill-opacity="1" /><path clip-path="url(#clip480)" d="M2334.88 1517.37 Q2331.26 1517.37 2329.44 1520.93 Q2327.63 1524.47 2327.63 1531.6 Q2327.63 1538.71 2329.44 1542.27 Q2331.26 1545.82 2334.88 1545.82 Q2338.51 1545.82 2340.31 1542.27 Q2342.14 1538.71 2342.14 1531.6 Q2342.14 1524.47 2340.31 1520.93 Q2338.51 1517.37 2334.88 1517.37 M2334.88 1513.66 Q2340.69 1513.66 2343.74 1518.27 Q2346.82 1522.85 2346.82 1531.6 Q2346.82 1540.33 2343.74 1544.94 Q2340.69 1549.52 2334.88 1549.52 Q2329.06 1549.52 2325.99 1544.94 Q2322.93 1540.33 2322.93 1531.6 Q2322.93 1522.85 2325.99 1518.27 Q2329.06 1513.66 2334.88 1513.66 Z" fill="#000000" fill-rule="evenodd" fill-opacity="1" /><polyline clip-path="url(#clip482)" style="stroke:#000000; stroke-linecap:butt; stroke-linejoin:round; stroke-width:2; stroke-opacity:0.1; fill:none" points="
  692.054,1473.59 2352.76,1473.59 
  "/>
<polyline clip-path="url(#clip482)" style="stroke:#000000; stroke-linecap:butt; stroke-linejoin:round; stroke-width:2; stroke-opacity:0.1; fill:none" points="
  692.054,1279.6 2352.76,1279.6 
  "/>
<polyline clip-path="url(#clip482)" style="stroke:#000000; stroke-linecap:butt; stroke-linejoin:round; stroke-width:2; stroke-opacity:0.1; fill:none" points="
  692.054,1085.61 2352.76,1085.61 
  "/>
<polyline clip-path="url(#clip482)" style="stroke:#000000; stroke-linecap:butt; stroke-linejoin:round; stroke-width:2; stroke-opacity:0.1; fill:none" points="
  692.054,891.614 2352.76,891.614 
  "/>
<polyline clip-path="url(#clip482)" style="stroke:#000000; stroke-linecap:butt; stroke-linejoin:round; stroke-width:2; stroke-opacity:0.1; fill:none" points="
  692.054,697.621 2352.76,697.621 
  "/>
<polyline clip-path="url(#clip482)" style="stroke:#000000; stroke-linecap:butt; stroke-linejoin:round; stroke-width:2; stroke-opacity:0.1; fill:none" points="
  692.054,503.629 2352.76,503.629 
  "/>
<polyline clip-path="url(#clip482)" style="stroke:#000000; stroke-linecap:butt; stroke-linejoin:round; stroke-width:2; stroke-opacity:0.1; fill:none" points="
  692.054,309.637 2352.76,309.637 
  "/>
<polyline clip-path="url(#clip480)" style="stroke:#000000; stroke-linecap:butt; stroke-linejoin:round; stroke-width:4; stroke-opacity:1; fill:none" points="
  692.054,1486.45 692.054,123.472 
  "/>
<polyline clip-path="url(#clip480)" style="stroke:#000000; stroke-linecap:butt; stroke-linejoin:round; stroke-width:4; stroke-opacity:1; fill:none" points="
  692.054,1473.59 706.54,1473.59 
  "/>
<polyline clip-path="url(#clip480)" style="stroke:#000000; stroke-linecap:butt; stroke-linejoin:round; stroke-width:4; stroke-opacity:1; fill:none" points="
  692.054,1279.6 706.54,1279.6 
  "/>
<polyline clip-path="url(#clip480)" style="stroke:#000000; stroke-linecap:butt; stroke-linejoin:round; stroke-width:4; stroke-opacity:1; fill:none" points="
  692.054,1085.61 706.54,1085.61 
  "/>
<polyline clip-path="url(#clip480)" style="stroke:#000000; stroke-linecap:butt; stroke-linejoin:round; stroke-width:4; stroke-opacity:1; fill:none" points="
  692.054,891.614 706.54,891.614 
  "/>
<polyline clip-path="url(#clip480)" style="stroke:#000000; stroke-linecap:butt; stroke-linejoin:round; stroke-width:4; stroke-opacity:1; fill:none" points="
  692.054,697.621 706.54,697.621 
  "/>
<polyline clip-path="url(#clip480)" style="stroke:#000000; stroke-linecap:butt; stroke-linejoin:round; stroke-width:4; stroke-opacity:1; fill:none" points="
  692.054,503.629 706.54,503.629 
  "/>
<polyline clip-path="url(#clip480)" style="stroke:#000000; stroke-linecap:butt; stroke-linejoin:round; stroke-width:4; stroke-opacity:1; fill:none" points="
  692.054,309.637 706.54,309.637 
  "/>
<path clip-path="url(#clip480)" d="M569.619 1459.39 Q566.008 1459.39 564.179 1462.95 Q562.374 1466.49 562.374 1473.62 Q562.374 1480.73 564.179 1484.3 Q566.008 1487.84 569.619 1487.84 Q573.253 1487.84 575.059 1484.3 Q576.888 1480.73 576.888 1473.62 Q576.888 1466.49 575.059 1462.95 Q573.253 1459.39 569.619 1459.39 M569.619 1455.68 Q575.429 1455.68 578.485 1460.29 Q581.564 1464.87 581.564 1473.62 Q581.564 1482.35 578.485 1486.96 Q575.429 1491.54 569.619 1491.54 Q563.809 1491.54 560.73 1486.96 Q557.675 1482.35 557.675 1473.62 Q557.675 1464.87 560.73 1460.29 Q563.809 1455.68 569.619 1455.68 Z" fill="#000000" fill-rule="evenodd" fill-opacity="1" /><path clip-path="url(#clip480)" d="M589.781 1484.99 L594.665 1484.99 L594.665 1490.87 L589.781 1490.87 L589.781 1484.99 Z" fill="#000000" fill-rule="evenodd" fill-opacity="1" /><path clip-path="url(#clip480)" d="M604.897 1456.31 L623.253 1456.31 L623.253 1460.24 L609.179 1460.24 L609.179 1468.72 Q610.198 1468.37 611.216 1468.21 Q612.235 1468.02 613.253 1468.02 Q619.04 1468.02 622.42 1471.19 Q625.799 1474.37 625.799 1479.78 Q625.799 1485.36 622.327 1488.46 Q618.855 1491.54 612.536 1491.54 Q610.36 1491.54 608.091 1491.17 Q605.846 1490.8 603.438 1490.06 L603.438 1485.36 Q605.522 1486.49 607.744 1487.05 Q609.966 1487.61 612.443 1487.61 Q616.448 1487.61 618.786 1485.5 Q621.123 1483.39 621.123 1479.78 Q621.123 1476.17 618.786 1474.06 Q616.448 1471.96 612.443 1471.96 Q610.568 1471.96 608.693 1472.37 Q606.841 1472.79 604.897 1473.67 L604.897 1456.31 Z" fill="#000000" fill-rule="evenodd" fill-opacity="1" /><path clip-path="url(#clip480)" d="M633.832 1456.31 L656.054 1456.31 L656.054 1458.3 L643.508 1490.87 L638.623 1490.87 L650.429 1460.24 L633.832 1460.24 L633.832 1456.31 Z" fill="#000000" fill-rule="evenodd" fill-opacity="1" /><path clip-path="url(#clip480)" d="M568.809 1265.4 Q565.198 1265.4 563.369 1268.96 Q561.564 1272.5 561.564 1279.63 Q561.564 1286.74 563.369 1290.3 Q565.198 1293.85 568.809 1293.85 Q572.443 1293.85 574.249 1290.3 Q576.077 1286.74 576.077 1279.63 Q576.077 1272.5 574.249 1268.96 Q572.443 1265.4 568.809 1265.4 M568.809 1261.69 Q574.619 1261.69 577.675 1266.3 Q580.753 1270.88 580.753 1279.63 Q580.753 1288.36 577.675 1292.97 Q574.619 1297.55 568.809 1297.55 Q562.999 1297.55 559.92 1292.97 Q556.865 1288.36 556.865 1279.63 Q556.865 1270.88 559.92 1266.3 Q562.999 1261.69 568.809 1261.69 Z" fill="#000000" fill-rule="evenodd" fill-opacity="1" /><path clip-path="url(#clip480)" d="M588.971 1291 L593.855 1291 L593.855 1296.88 L588.971 1296.88 L588.971 1291 Z" fill="#000000" fill-rule="evenodd" fill-opacity="1" /><path clip-path="url(#clip480)" d="M604.087 1262.32 L622.443 1262.32 L622.443 1266.25 L608.369 1266.25 L608.369 1274.72 Q609.387 1274.38 610.406 1274.22 Q611.424 1274.03 612.443 1274.03 Q618.23 1274.03 621.61 1277.2 Q624.989 1280.37 624.989 1285.79 Q624.989 1291.37 621.517 1294.47 Q618.045 1297.55 611.725 1297.55 Q609.549 1297.55 607.281 1297.18 Q605.036 1296.81 602.628 1296.07 L602.628 1291.37 Q604.712 1292.5 606.934 1293.06 Q609.156 1293.61 611.633 1293.61 Q615.637 1293.61 617.975 1291.51 Q620.313 1289.4 620.313 1285.79 Q620.313 1282.18 617.975 1280.07 Q615.637 1277.97 611.633 1277.97 Q609.758 1277.97 607.883 1278.38 Q606.031 1278.8 604.087 1279.68 L604.087 1262.32 Z" fill="#000000" fill-rule="evenodd" fill-opacity="1" /><path clip-path="url(#clip480)" d="M644.202 1280.47 Q640.869 1280.47 638.947 1282.25 Q637.049 1284.03 637.049 1287.16 Q637.049 1290.28 638.947 1292.06 Q640.869 1293.85 644.202 1293.85 Q647.535 1293.85 649.457 1292.06 Q651.378 1290.26 651.378 1287.16 Q651.378 1284.03 649.457 1282.25 Q647.559 1280.47 644.202 1280.47 M639.526 1278.47 Q636.517 1277.73 634.827 1275.67 Q633.16 1273.61 633.16 1270.65 Q633.16 1266.51 636.1 1264.1 Q639.063 1261.69 644.202 1261.69 Q649.364 1261.69 652.304 1264.1 Q655.244 1266.51 655.244 1270.65 Q655.244 1273.61 653.554 1275.67 Q651.887 1277.73 648.901 1278.47 Q652.281 1279.26 654.156 1281.55 Q656.054 1283.85 656.054 1287.16 Q656.054 1292.18 652.975 1294.86 Q649.92 1297.55 644.202 1297.55 Q638.484 1297.55 635.406 1294.86 Q632.35 1292.18 632.35 1287.16 Q632.35 1283.85 634.248 1281.55 Q636.147 1279.26 639.526 1278.47 M637.813 1271.09 Q637.813 1273.78 639.48 1275.28 Q641.17 1276.79 644.202 1276.79 Q647.211 1276.79 648.901 1275.28 Q650.614 1273.78 650.614 1271.09 Q650.614 1268.41 648.901 1266.9 Q647.211 1265.4 644.202 1265.4 Q641.17 1265.4 639.48 1266.9 Q637.813 1268.41 637.813 1271.09 Z" fill="#000000" fill-rule="evenodd" fill-opacity="1" /><path clip-path="url(#clip480)" d="M568.902 1071.4 Q565.29 1071.4 563.462 1074.97 Q561.656 1078.51 561.656 1085.64 Q561.656 1092.75 563.462 1096.31 Q565.29 1099.85 568.902 1099.85 Q572.536 1099.85 574.341 1096.31 Q576.17 1092.75 576.17 1085.64 Q576.17 1078.51 574.341 1074.97 Q572.536 1071.4 568.902 1071.4 M568.902 1067.7 Q574.712 1067.7 577.767 1072.31 Q580.846 1076.89 580.846 1085.64 Q580.846 1094.37 577.767 1098.97 Q574.712 1103.56 568.902 1103.56 Q563.091 1103.56 560.013 1098.97 Q556.957 1094.37 556.957 1085.64 Q556.957 1076.89 560.013 1072.31 Q563.091 1067.7 568.902 1067.7 Z" fill="#000000" fill-rule="evenodd" fill-opacity="1" /><path clip-path="url(#clip480)" d="M589.063 1097.01 L593.948 1097.01 L593.948 1102.89 L589.063 1102.89 L589.063 1097.01 Z" fill="#000000" fill-rule="evenodd" fill-opacity="1" /><path clip-path="url(#clip480)" d="M604.179 1068.33 L622.536 1068.33 L622.536 1072.26 L608.462 1072.26 L608.462 1080.73 Q609.48 1080.39 610.499 1080.22 Q611.517 1080.04 612.536 1080.04 Q618.323 1080.04 621.702 1083.21 Q625.082 1086.38 625.082 1091.8 Q625.082 1097.38 621.61 1100.48 Q618.137 1103.56 611.818 1103.56 Q609.642 1103.56 607.374 1103.19 Q605.128 1102.82 602.721 1102.08 L602.721 1097.38 Q604.804 1098.51 607.026 1099.07 Q609.249 1099.62 611.725 1099.62 Q615.73 1099.62 618.068 1097.52 Q620.406 1095.41 620.406 1091.8 Q620.406 1088.19 618.068 1086.08 Q615.73 1083.97 611.725 1083.97 Q609.85 1083.97 607.975 1084.39 Q606.124 1084.81 604.179 1085.69 L604.179 1068.33 Z" fill="#000000" fill-rule="evenodd" fill-opacity="1" /><path clip-path="url(#clip480)" d="M634.434 1102.17 L634.434 1097.91 Q636.193 1098.74 637.998 1099.18 Q639.804 1099.62 641.54 1099.62 Q646.17 1099.62 648.6 1096.52 Q651.054 1093.39 651.401 1087.05 Q650.059 1089.04 647.998 1090.11 Q645.938 1091.17 643.438 1091.17 Q638.253 1091.17 635.221 1088.05 Q632.211 1084.9 632.211 1079.46 Q632.211 1074.14 635.36 1070.92 Q638.508 1067.7 643.739 1067.7 Q649.734 1067.7 652.883 1072.31 Q656.054 1076.89 656.054 1085.64 Q656.054 1093.81 652.165 1098.7 Q648.299 1103.56 641.748 1103.56 Q639.989 1103.56 638.184 1103.21 Q636.378 1102.86 634.434 1102.17 M643.739 1087.52 Q646.887 1087.52 648.716 1085.36 Q650.568 1083.21 650.568 1079.46 Q650.568 1075.73 648.716 1073.58 Q646.887 1071.4 643.739 1071.4 Q640.591 1071.4 638.739 1073.58 Q636.91 1075.73 636.91 1079.46 Q636.91 1083.21 638.739 1085.36 Q640.591 1087.52 643.739 1087.52 Z" fill="#000000" fill-rule="evenodd" fill-opacity="1" /><path clip-path="url(#clip480)" d="M568.716 877.412 Q565.105 877.412 563.277 880.977 Q561.471 884.519 561.471 891.648 Q561.471 898.755 563.277 902.319 Q565.105 905.861 568.716 905.861 Q572.351 905.861 574.156 902.319 Q575.985 898.755 575.985 891.648 Q575.985 884.519 574.156 880.977 Q572.351 877.412 568.716 877.412 M568.716 873.709 Q574.527 873.709 577.582 878.315 Q580.661 882.898 580.661 891.648 Q580.661 900.375 577.582 904.981 Q574.527 909.565 568.716 909.565 Q562.906 909.565 559.828 904.981 Q556.772 900.375 556.772 891.648 Q556.772 882.898 559.828 878.315 Q562.906 873.709 568.716 873.709 Z" fill="#000000" fill-rule="evenodd" fill-opacity="1" /><path clip-path="url(#clip480)" d="M588.878 903.014 L593.763 903.014 L593.763 908.894 L588.878 908.894 L588.878 903.014 Z" fill="#000000" fill-rule="evenodd" fill-opacity="1" /><path clip-path="url(#clip480)" d="M614.526 889.75 Q611.378 889.75 609.526 891.903 Q607.698 894.056 607.698 897.806 Q607.698 901.532 609.526 903.708 Q611.378 905.861 614.526 905.861 Q617.674 905.861 619.503 903.708 Q621.355 901.532 621.355 897.806 Q621.355 894.056 619.503 891.903 Q617.674 889.75 614.526 889.75 M623.809 875.097 L623.809 879.357 Q622.049 878.523 620.244 878.083 Q618.461 877.644 616.702 877.644 Q612.073 877.644 609.619 880.769 Q607.188 883.894 606.841 890.213 Q608.207 888.199 610.267 887.134 Q612.327 886.046 614.804 886.046 Q620.012 886.046 623.022 889.218 Q626.054 892.366 626.054 897.806 Q626.054 903.13 622.906 906.347 Q619.758 909.565 614.526 909.565 Q608.531 909.565 605.36 904.981 Q602.188 900.375 602.188 891.648 Q602.188 883.454 606.077 878.593 Q609.966 873.709 616.517 873.709 Q618.276 873.709 620.059 874.056 Q621.864 874.403 623.809 875.097 Z" fill="#000000" fill-rule="evenodd" fill-opacity="1" /><path clip-path="url(#clip480)" d="M644.109 877.412 Q640.498 877.412 638.67 880.977 Q636.864 884.519 636.864 891.648 Q636.864 898.755 638.67 902.319 Q640.498 905.861 644.109 905.861 Q647.744 905.861 649.549 902.319 Q651.378 898.755 651.378 891.648 Q651.378 884.519 649.549 880.977 Q647.744 877.412 644.109 877.412 M644.109 873.709 Q649.92 873.709 652.975 878.315 Q656.054 882.898 656.054 891.648 Q656.054 900.375 652.975 904.981 Q649.92 909.565 644.109 909.565 Q638.299 909.565 635.221 904.981 Q632.165 900.375 632.165 891.648 Q632.165 882.898 635.221 878.315 Q638.299 873.709 644.109 873.709 Z" fill="#000000" fill-rule="evenodd" fill-opacity="1" /><path clip-path="url(#clip480)" d="M569.943 683.42 Q566.332 683.42 564.503 686.985 Q562.698 690.527 562.698 697.656 Q562.698 704.763 564.503 708.327 Q566.332 711.869 569.943 711.869 Q573.577 711.869 575.383 708.327 Q577.212 704.763 577.212 697.656 Q577.212 690.527 575.383 686.985 Q573.577 683.42 569.943 683.42 M569.943 679.716 Q575.753 679.716 578.809 684.323 Q581.888 688.906 581.888 697.656 Q581.888 706.383 578.809 710.989 Q575.753 715.573 569.943 715.573 Q564.133 715.573 561.054 710.989 Q557.999 706.383 557.999 697.656 Q557.999 688.906 561.054 684.323 Q564.133 679.716 569.943 679.716 Z" fill="#000000" fill-rule="evenodd" fill-opacity="1" /><path clip-path="url(#clip480)" d="M590.105 709.022 L594.989 709.022 L594.989 714.901 L590.105 714.901 L590.105 709.022 Z" fill="#000000" fill-rule="evenodd" fill-opacity="1" /><path clip-path="url(#clip480)" d="M615.753 695.758 Q612.605 695.758 610.753 697.911 Q608.924 700.064 608.924 703.814 Q608.924 707.54 610.753 709.716 Q612.605 711.869 615.753 711.869 Q618.901 711.869 620.73 709.716 Q622.582 707.54 622.582 703.814 Q622.582 700.064 620.73 697.911 Q618.901 695.758 615.753 695.758 M625.035 681.105 L625.035 685.365 Q623.276 684.531 621.471 684.091 Q619.688 683.652 617.929 683.652 Q613.299 683.652 610.846 686.777 Q608.415 689.902 608.068 696.221 Q609.434 694.207 611.494 693.142 Q613.554 692.054 616.031 692.054 Q621.239 692.054 624.248 695.226 Q627.281 698.374 627.281 703.814 Q627.281 709.138 624.133 712.355 Q620.985 715.573 615.753 715.573 Q609.758 715.573 606.587 710.989 Q603.415 706.383 603.415 697.656 Q603.415 689.462 607.304 684.601 Q611.193 679.716 617.744 679.716 Q619.503 679.716 621.286 680.064 Q623.091 680.411 625.035 681.105 Z" fill="#000000" fill-rule="evenodd" fill-opacity="1" /><path clip-path="url(#clip480)" d="M636.147 710.966 L643.785 710.966 L643.785 684.601 L635.475 686.267 L635.475 682.008 L643.739 680.341 L648.415 680.341 L648.415 710.966 L656.054 710.966 L656.054 714.901 L636.147 714.901 L636.147 710.966 Z" fill="#000000" fill-rule="evenodd" fill-opacity="1" /><path clip-path="url(#clip480)" d="M570.314 489.428 Q566.702 489.428 564.874 492.993 Q563.068 496.535 563.068 503.664 Q563.068 510.771 564.874 514.335 Q566.702 517.877 570.314 517.877 Q573.948 517.877 575.753 514.335 Q577.582 510.771 577.582 503.664 Q577.582 496.535 575.753 492.993 Q573.948 489.428 570.314 489.428 M570.314 485.724 Q576.124 485.724 579.179 490.331 Q582.258 494.914 582.258 503.664 Q582.258 512.391 579.179 516.997 Q576.124 521.581 570.314 521.581 Q564.503 521.581 561.425 516.997 Q558.369 512.391 558.369 503.664 Q558.369 494.914 561.425 490.331 Q564.503 485.724 570.314 485.724 Z" fill="#000000" fill-rule="evenodd" fill-opacity="1" /><path clip-path="url(#clip480)" d="M590.475 515.03 L595.36 515.03 L595.36 520.909 L590.475 520.909 L590.475 515.03 Z" fill="#000000" fill-rule="evenodd" fill-opacity="1" /><path clip-path="url(#clip480)" d="M616.124 501.766 Q612.975 501.766 611.124 503.919 Q609.295 506.072 609.295 509.822 Q609.295 513.548 611.124 515.724 Q612.975 517.877 616.124 517.877 Q619.272 517.877 621.1 515.724 Q622.952 513.548 622.952 509.822 Q622.952 506.072 621.1 503.919 Q619.272 501.766 616.124 501.766 M625.406 487.113 L625.406 491.373 Q623.647 490.539 621.841 490.099 Q620.059 489.66 618.299 489.66 Q613.67 489.66 611.216 492.785 Q608.786 495.91 608.438 502.229 Q609.804 500.215 611.864 499.15 Q613.924 498.062 616.401 498.062 Q621.61 498.062 624.619 501.234 Q627.651 504.382 627.651 509.822 Q627.651 515.146 624.503 518.363 Q621.355 521.581 616.124 521.581 Q610.128 521.581 606.957 516.997 Q603.786 512.391 603.786 503.664 Q603.786 495.47 607.674 490.609 Q611.563 485.724 618.114 485.724 Q619.873 485.724 621.656 486.072 Q623.461 486.419 625.406 487.113 Z" fill="#000000" fill-rule="evenodd" fill-opacity="1" /><path clip-path="url(#clip480)" d="M639.734 516.974 L656.054 516.974 L656.054 520.909 L634.11 520.909 L634.11 516.974 Q636.772 514.22 641.355 509.59 Q645.961 504.937 647.142 503.595 Q649.387 501.072 650.267 499.335 Q651.17 497.576 651.17 495.886 Q651.17 493.132 649.225 491.396 Q647.304 489.66 644.202 489.66 Q642.003 489.66 639.549 490.423 Q637.119 491.187 634.341 492.738 L634.341 488.016 Q637.165 486.882 639.619 486.303 Q642.072 485.724 644.109 485.724 Q649.48 485.724 652.674 488.41 Q655.869 491.095 655.869 495.585 Q655.869 497.715 655.058 499.636 Q654.271 501.535 652.165 504.127 Q651.586 504.798 648.484 508.016 Q645.383 511.21 639.734 516.974 Z" fill="#000000" fill-rule="evenodd" fill-opacity="1" /><path clip-path="url(#clip480)" d="M569.364 295.436 Q565.753 295.436 563.925 299.001 Q562.119 302.543 562.119 309.672 Q562.119 316.779 563.925 320.343 Q565.753 323.885 569.364 323.885 Q572.999 323.885 574.804 320.343 Q576.633 316.779 576.633 309.672 Q576.633 302.543 574.804 299.001 Q572.999 295.436 569.364 295.436 M569.364 291.732 Q575.175 291.732 578.23 296.339 Q581.309 300.922 581.309 309.672 Q581.309 318.399 578.23 323.005 Q575.175 327.589 569.364 327.589 Q563.554 327.589 560.476 323.005 Q557.42 318.399 557.42 309.672 Q557.42 300.922 560.476 296.339 Q563.554 291.732 569.364 291.732 Z" fill="#000000" fill-rule="evenodd" fill-opacity="1" /><path clip-path="url(#clip480)" d="M589.526 321.038 L594.411 321.038 L594.411 326.917 L589.526 326.917 L589.526 321.038 Z" fill="#000000" fill-rule="evenodd" fill-opacity="1" /><path clip-path="url(#clip480)" d="M615.174 307.774 Q612.026 307.774 610.174 309.927 Q608.346 312.08 608.346 315.829 Q608.346 319.556 610.174 321.732 Q612.026 323.885 615.174 323.885 Q618.323 323.885 620.151 321.732 Q622.003 319.556 622.003 315.829 Q622.003 312.08 620.151 309.927 Q618.323 307.774 615.174 307.774 M624.457 293.121 L624.457 297.381 Q622.698 296.547 620.892 296.107 Q619.11 295.668 617.35 295.668 Q612.721 295.668 610.267 298.793 Q607.837 301.918 607.489 308.237 Q608.855 306.223 610.915 305.158 Q612.975 304.07 615.452 304.07 Q620.661 304.07 623.67 307.242 Q626.702 310.39 626.702 315.829 Q626.702 321.154 623.554 324.371 Q620.406 327.589 615.174 327.589 Q609.179 327.589 606.008 323.005 Q602.837 318.399 602.837 309.672 Q602.837 301.478 606.725 296.617 Q610.614 291.732 617.165 291.732 Q618.924 291.732 620.707 292.08 Q622.512 292.427 624.457 293.121 Z" fill="#000000" fill-rule="evenodd" fill-opacity="1" /><path clip-path="url(#clip480)" d="M648.924 308.283 Q652.281 309.001 654.156 311.269 Q656.054 313.538 656.054 316.871 Q656.054 321.987 652.535 324.788 Q649.017 327.589 642.535 327.589 Q640.359 327.589 638.045 327.149 Q635.753 326.732 633.299 325.876 L633.299 321.362 Q635.244 322.496 637.559 323.075 Q639.873 323.654 642.397 323.654 Q646.795 323.654 649.086 321.917 Q651.401 320.181 651.401 316.871 Q651.401 313.816 649.248 312.103 Q647.119 310.367 643.299 310.367 L639.272 310.367 L639.272 306.524 L643.484 306.524 Q646.934 306.524 648.762 305.158 Q650.591 303.769 650.591 301.177 Q650.591 298.515 648.693 297.103 Q646.818 295.668 643.299 295.668 Q641.378 295.668 639.179 296.084 Q636.98 296.501 634.341 297.381 L634.341 293.214 Q637.003 292.473 639.318 292.103 Q641.656 291.732 643.716 291.732 Q649.04 291.732 652.142 294.163 Q655.244 296.57 655.244 300.691 Q655.244 303.561 653.6 305.552 Q651.957 307.519 648.924 308.283 Z" fill="#000000" fill-rule="evenodd" fill-opacity="1" /><path clip-path="url(#clip480)" d="M1362.29 20.1573 L1351.19 50.2555 L1373.43 50.2555 L1362.29 20.1573 M1357.67 12.096 L1366.95 12.096 L1390 72.576 L1381.49 72.576 L1375.98 57.061 L1348.72 57.061 L1343.21 72.576 L1334.58 72.576 L1357.67 12.096 Z" fill="#000000" fill-rule="evenodd" fill-opacity="1" /><path clip-path="url(#clip480)" d="M1429.7 28.9478 L1429.7 35.9153 Q1426.54 34.1734 1423.34 33.3227 Q1420.18 32.4315 1416.94 32.4315 Q1409.69 32.4315 1405.68 37.0496 Q1401.67 41.6271 1401.67 49.9314 Q1401.67 58.2358 1405.68 62.8538 Q1409.69 67.4314 1416.94 67.4314 Q1420.18 67.4314 1423.34 66.5807 Q1426.54 65.6895 1429.7 63.9476 L1429.7 70.8341 Q1426.58 72.2924 1423.22 73.0216 Q1419.9 73.7508 1416.13 73.7508 Q1405.88 73.7508 1399.84 67.3098 Q1393.81 60.8689 1393.81 49.9314 Q1393.81 38.832 1399.89 32.472 Q1406 26.1121 1416.62 26.1121 Q1420.06 26.1121 1423.34 26.8413 Q1426.62 27.5299 1429.7 28.9478 Z" fill="#000000" fill-rule="evenodd" fill-opacity="1" /><path clip-path="url(#clip480)" d="M1475.31 28.9478 L1475.31 35.9153 Q1472.15 34.1734 1468.95 33.3227 Q1465.79 32.4315 1462.55 32.4315 Q1455.3 32.4315 1451.29 37.0496 Q1447.28 41.6271 1447.28 49.9314 Q1447.28 58.2358 1451.29 62.8538 Q1455.3 67.4314 1462.55 67.4314 Q1465.79 67.4314 1468.95 66.5807 Q1472.15 65.6895 1475.31 63.9476 L1475.31 70.8341 Q1472.19 72.2924 1468.83 73.0216 Q1465.51 73.7508 1461.74 73.7508 Q1451.49 73.7508 1445.46 67.3098 Q1439.42 60.8689 1439.42 49.9314 Q1439.42 38.832 1445.5 32.472 Q1451.62 26.1121 1462.23 26.1121 Q1465.67 26.1121 1468.95 26.8413 Q1472.23 27.5299 1475.31 28.9478 Z" fill="#000000" fill-rule="evenodd" fill-opacity="1" /><path clip-path="url(#clip480)" d="M1487.51 54.671 L1487.51 27.2059 L1494.96 27.2059 L1494.96 54.3874 Q1494.96 60.8284 1497.47 64.0691 Q1499.98 67.2693 1505.01 67.2693 Q1511.04 67.2693 1514.53 63.421 Q1518.05 59.5726 1518.05 52.9291 L1518.05 27.2059 L1525.5 27.2059 L1525.5 72.576 L1518.05 72.576 L1518.05 65.6084 Q1515.34 69.7404 1511.73 71.7658 Q1508.17 73.7508 1503.43 73.7508 Q1495.61 73.7508 1491.56 68.8897 Q1487.51 64.0286 1487.51 54.671 M1506.26 26.1121 L1506.26 26.1121 Z" fill="#000000" fill-rule="evenodd" fill-opacity="1" /><path clip-path="url(#clip480)" d="M1567.15 34.1734 Q1565.89 33.4443 1564.39 33.1202 Q1562.93 32.7556 1561.15 32.7556 Q1554.83 32.7556 1551.43 36.8875 Q1548.07 40.9789 1548.07 48.6757 L1548.07 72.576 L1540.57 72.576 L1540.57 27.2059 L1548.07 27.2059 L1548.07 34.2544 Q1550.42 30.1225 1554.18 28.1376 Q1557.95 26.1121 1563.34 26.1121 Q1564.11 26.1121 1565.04 26.2337 Q1565.97 26.3147 1567.11 26.5172 L1567.15 34.1734 Z" fill="#000000" fill-rule="evenodd" fill-opacity="1" /><path clip-path="url(#clip480)" d="M1595.58 49.7694 Q1586.55 49.7694 1583.07 51.8354 Q1579.58 53.9013 1579.58 58.8839 Q1579.58 62.8538 1582.18 65.2034 Q1584.81 67.5124 1589.31 67.5124 Q1595.5 67.5124 1599.23 63.1374 Q1603 58.7219 1603 51.4303 L1603 49.7694 L1595.58 49.7694 M1610.45 46.6907 L1610.45 72.576 L1603 72.576 L1603 65.6895 Q1600.45 69.8214 1596.64 71.8063 Q1592.83 73.7508 1587.32 73.7508 Q1580.35 73.7508 1576.22 69.8619 Q1572.13 65.9325 1572.13 59.3701 Q1572.13 51.7138 1577.23 47.825 Q1582.38 43.9361 1592.55 43.9361 L1603 43.9361 L1603 43.2069 Q1603 38.0623 1599.59 35.2672 Q1596.23 32.4315 1590.12 32.4315 Q1586.23 32.4315 1582.54 33.3632 Q1578.85 34.295 1575.45 36.1584 L1575.45 29.2718 Q1579.54 27.692 1583.39 26.9223 Q1587.24 26.1121 1590.89 26.1121 Q1600.73 26.1121 1605.59 31.2163 Q1610.45 36.3204 1610.45 46.6907 Z" fill="#000000" fill-rule="evenodd" fill-opacity="1" /><path clip-path="url(#clip480)" d="M1658.45 28.9478 L1658.45 35.9153 Q1655.29 34.1734 1652.09 33.3227 Q1648.93 32.4315 1645.69 32.4315 Q1638.44 32.4315 1634.43 37.0496 Q1630.42 41.6271 1630.42 49.9314 Q1630.42 58.2358 1634.43 62.8538 Q1638.44 67.4314 1645.69 67.4314 Q1648.93 67.4314 1652.09 66.5807 Q1655.29 65.6895 1658.45 63.9476 L1658.45 70.8341 Q1655.34 72.2924 1651.97 73.0216 Q1648.65 73.7508 1644.88 73.7508 Q1634.64 73.7508 1628.6 67.3098 Q1622.56 60.8689 1622.56 49.9314 Q1622.56 38.832 1628.64 32.472 Q1634.76 26.1121 1645.37 26.1121 Q1648.81 26.1121 1652.09 26.8413 Q1655.38 27.5299 1658.45 28.9478 Z" fill="#000000" fill-rule="evenodd" fill-opacity="1" /><path clip-path="url(#clip480)" d="M1690.29 76.7889 Q1687.13 84.8907 1684.14 87.3618 Q1681.14 89.8329 1676.12 89.8329 L1670.16 89.8329 L1670.16 83.5945 L1674.54 83.5945 Q1677.62 83.5945 1679.32 82.1361 Q1681.02 80.6778 1683.08 75.2496 L1684.42 71.8468 L1666.07 27.2059 L1673.97 27.2059 L1688.15 62.6918 L1702.33 27.2059 L1710.23 27.2059 L1690.29 76.7889 Z" fill="#000000" fill-rule="evenodd" fill-opacity="1" /><polyline clip-path="url(#clip482)" style="stroke:#009af9; stroke-linecap:butt; stroke-linejoin:round; stroke-width:4; stroke-opacity:1; fill:none" points="
  739.055,1447.87 754.88,777.007 770.705,777.007 786.531,777.007 802.356,777.007 818.181,777.007 834.006,777.007 849.832,777.007 865.657,777.007 881.482,777.007 
  897.307,777.007 913.133,777.007 928.958,777.007 944.783,777.007 960.608,777.007 976.434,777.007 992.259,777.007 1008.08,777.007 1023.91,777.007 1039.73,777.007 
  1055.56,777.007 1071.39,777.007 1087.21,777.007 1103.04,777.007 1118.86,777.007 1134.69,777.007 1150.51,777.007 1166.34,777.007 1182.16,777.007 1197.99,777.007 
  1213.81,777.007 1229.64,777.007 1245.46,455.551 1261.29,455.551 1277.11,455.551 1292.94,455.551 1308.76,455.551 1324.59,455.551 1340.41,455.551 1356.24,455.551 
  1372.06,455.551 1387.89,455.551 1403.72,455.551 1419.54,455.551 1435.37,455.551 1451.19,455.551 1467.02,455.551 1482.84,455.551 1498.67,455.551 1514.49,455.551 
  1530.32,455.551 1546.14,455.551 1561.97,455.551 1577.79,455.551 1593.62,455.551 1609.44,455.551 1625.27,455.551 1641.09,455.551 1656.92,455.551 1672.74,455.551 
  1688.57,455.551 1704.4,455.551 1720.22,455.551 1736.05,455.551 1751.87,455.551 1767.7,455.551 1783.52,455.551 1799.35,455.551 1815.17,455.551 1831,455.551 
  1846.82,455.551 1862.65,455.551 1878.47,455.551 1894.3,455.551 1910.12,455.551 1925.95,455.551 1941.77,455.551 1957.6,455.551 1973.42,455.551 1989.25,455.551 
  2005.08,455.551 2020.9,455.551 2036.73,455.551 2052.55,455.551 2068.38,455.551 2084.2,455.551 2100.03,162.047 2115.85,162.047 2131.68,162.047 2147.5,162.047 
  2163.33,162.047 2179.15,162.047 2194.98,162.047 2210.8,162.047 2226.63,162.047 2242.45,162.047 2258.28,162.047 2274.1,162.047 2289.93,162.047 2305.75,162.047 
  
  "/>
<polyline clip-path="url(#clip482)" style="stroke:#e26f46; stroke-linecap:butt; stroke-linejoin:round; stroke-width:4; stroke-opacity:1; fill:none" points="
  739.055,1042.56 754.88,1042.56 770.705,1042.56 786.531,1042.56 802.356,1042.56 818.181,1042.56 834.006,1042.56 849.832,1042.56 865.657,1042.56 881.482,1042.56 
  897.307,1042.56 913.133,1042.56 928.958,1042.56 944.783,1042.56 960.608,1042.56 976.434,1042.56 992.259,1042.56 1008.08,1042.56 1023.91,1042.56 1039.73,1042.56 
  1055.56,1042.56 1071.39,1042.56 1087.21,1042.56 1103.04,1042.56 1118.86,1042.56 1134.69,1042.56 1150.51,1042.56 1166.34,1042.56 1182.16,1042.56 1197.99,1042.56 
  1213.81,1042.56 1229.64,1042.56 1245.46,1042.56 1261.29,1042.56 1277.11,1042.56 1292.94,1042.56 1308.76,1042.56 1324.59,1042.56 1340.41,1042.56 1356.24,1042.56 
  1372.06,1042.56 1387.89,1042.56 1403.72,1042.56 1419.54,1042.56 1435.37,1042.56 1451.19,1042.56 1467.02,1042.56 1482.84,1042.56 1498.67,1042.56 1514.49,1042.56 
  1530.32,1042.56 1546.14,1042.56 1561.97,1042.56 1577.79,1042.56 1593.62,1042.56 1609.44,1042.56 1625.27,1042.56 1641.09,1042.56 1656.92,1042.56 1672.74,1042.56 
  1688.57,1042.56 1704.4,1042.56 1720.22,1042.56 1736.05,1042.56 1751.87,1042.56 1767.7,1042.56 1783.52,1042.56 1799.35,1042.56 1815.17,1042.56 1831,1042.56 
  1846.82,1042.56 1862.65,1042.56 1878.47,1042.56 1894.3,1042.56 1910.12,1042.56 1925.95,1042.56 1941.77,1042.56 1957.6,1042.56 1973.42,1042.56 1989.25,1042.56 
  2005.08,1042.56 2020.9,1042.56 2036.73,1042.56 2052.55,1042.56 2068.38,1042.56 2084.2,1042.56 2100.03,1042.56 2115.85,1042.56 2131.68,1042.56 2147.5,1042.56 
  2163.33,1042.56 2179.15,1042.56 2194.98,1042.56 2210.8,1042.56 2226.63,1042.56 2242.45,1042.56 2258.28,1042.56 2274.1,1042.56 2289.93,1042.56 2305.75,1042.56 
  
  "/>
<path clip-path="url(#clip480)" d="
M114.058 324.425 L448.34 324.425 L448.34 168.905 L114.058 168.905  Z
  " fill="#ffffff" fill-rule="evenodd" fill-opacity="1"/>
<polyline clip-path="url(#clip480)" style="stroke:#000000; stroke-linecap:butt; stroke-linejoin:round; stroke-width:4; stroke-opacity:1; fill:none" points="
  114.058,324.425 448.34,324.425 448.34,168.905 114.058,168.905 114.058,324.425 
  "/>
<polyline clip-path="url(#clip480)" style="stroke:#009af9; stroke-linecap:butt; stroke-linejoin:round; stroke-width:4; stroke-opacity:1; fill:none" points="
  138.058,220.745 282.058,220.745 
  "/>
<path clip-path="url(#clip480)" d="M321.891 208.071 L315.549 225.27 L328.257 225.27 L321.891 208.071 M319.252 203.465 L324.553 203.465 L337.724 238.025 L332.863 238.025 L329.715 229.159 L314.137 229.159 L310.988 238.025 L306.058 238.025 L319.252 203.465 Z" fill="#000000" fill-rule="evenodd" fill-opacity="1" /><path clip-path="url(#clip480)" d="M347.447 221.52 L347.447 234.182 L354.947 234.182 Q358.72 234.182 360.525 232.631 Q362.354 231.057 362.354 227.84 Q362.354 224.599 360.525 223.071 Q358.72 221.52 354.947 221.52 L347.447 221.52 M347.447 207.307 L347.447 217.724 L354.368 217.724 Q357.794 217.724 359.46 216.451 Q361.15 215.154 361.15 212.516 Q361.15 209.9 359.46 208.604 Q357.794 207.307 354.368 207.307 L347.447 207.307 M342.771 203.465 L354.715 203.465 Q360.062 203.465 362.956 205.687 Q365.849 207.909 365.849 212.006 Q365.849 215.178 364.368 217.053 Q362.886 218.928 360.016 219.39 Q363.465 220.131 365.363 222.492 Q367.284 224.83 367.284 228.349 Q367.284 232.978 364.136 235.502 Q360.988 238.025 355.178 238.025 L342.771 238.025 L342.771 203.465 Z" fill="#000000" fill-rule="evenodd" fill-opacity="1" /><path clip-path="url(#clip480)" d="M400.34 206.127 L400.34 211.057 Q397.979 208.858 395.294 207.77 Q392.632 206.682 389.622 206.682 Q383.696 206.682 380.548 210.316 Q377.4 213.928 377.4 220.779 Q377.4 227.608 380.548 231.242 Q383.696 234.853 389.622 234.853 Q392.632 234.853 395.294 233.765 Q397.979 232.677 400.34 230.478 L400.34 235.363 Q397.886 237.029 395.132 237.863 Q392.4 238.696 389.345 238.696 Q381.497 238.696 376.983 233.904 Q372.47 229.09 372.47 220.779 Q372.47 212.446 376.983 207.654 Q381.497 202.84 389.345 202.84 Q392.446 202.84 395.178 203.673 Q397.932 204.483 400.34 206.127 Z" fill="#000000" fill-rule="evenodd" fill-opacity="1" /><polyline clip-path="url(#clip480)" style="stroke:#e26f46; stroke-linecap:butt; stroke-linejoin:round; stroke-width:4; stroke-opacity:1; fill:none" points="
  138.058,272.585 282.058,272.585 
  "/>
<path clip-path="url(#clip480)" d="M310.734 259.147 L310.734 272.133 L316.613 272.133 Q319.877 272.133 321.66 270.443 Q323.442 268.754 323.442 265.629 Q323.442 262.527 321.66 260.837 Q319.877 259.147 316.613 259.147 L310.734 259.147 M306.058 255.305 L316.613 255.305 Q322.424 255.305 325.387 257.944 Q328.373 260.559 328.373 265.629 Q328.373 270.744 325.387 273.36 Q322.424 275.976 316.613 275.976 L310.734 275.976 L310.734 289.865 L306.058 289.865 L306.058 255.305 Z" fill="#000000" fill-rule="evenodd" fill-opacity="1" /><path clip-path="url(#clip480)" d="M355.363 256.439 L355.363 260.999 Q352.701 259.726 350.34 259.101 Q347.979 258.476 345.78 258.476 Q341.961 258.476 339.877 259.957 Q337.817 261.439 337.817 264.17 Q337.817 266.462 339.183 267.643 Q340.572 268.8 344.414 269.518 L347.238 270.096 Q352.47 271.092 354.947 273.615 Q357.447 276.115 357.447 280.328 Q357.447 285.351 354.067 287.943 Q350.71 290.536 344.206 290.536 Q341.752 290.536 338.974 289.98 Q336.22 289.425 333.257 288.337 L333.257 283.522 Q336.104 285.119 338.836 285.929 Q341.567 286.74 344.206 286.74 Q348.21 286.74 350.386 285.166 Q352.562 283.592 352.562 280.675 Q352.562 278.129 350.988 276.693 Q349.437 275.258 345.873 274.541 L343.025 273.985 Q337.794 272.943 335.456 270.721 Q333.118 268.499 333.118 264.541 Q333.118 259.957 336.336 257.319 Q339.576 254.68 345.248 254.68 Q347.678 254.68 350.201 255.119 Q352.724 255.559 355.363 256.439 Z" fill="#000000" fill-rule="evenodd" fill-opacity="1" /><path clip-path="url(#clip480)" d="M378.766 258.476 Q373.673 258.476 370.664 262.272 Q367.678 266.068 367.678 272.619 Q367.678 279.147 370.664 282.943 Q373.673 286.74 378.766 286.74 Q383.858 286.74 386.821 282.943 Q389.807 279.147 389.807 272.619 Q389.807 266.068 386.821 262.272 Q383.858 258.476 378.766 258.476 M378.766 254.68 Q386.034 254.68 390.386 259.564 Q394.738 264.425 394.738 272.619 Q394.738 280.791 390.386 285.675 Q386.034 290.536 378.766 290.536 Q371.474 290.536 367.099 285.675 Q362.747 280.814 362.747 272.619 Q362.747 264.425 367.099 259.564 Q371.474 254.68 378.766 254.68 Z" fill="#000000" fill-rule="evenodd" fill-opacity="1" /></svg>
