<?xml version="1.0" encoding="utf-8"?>
<svg xmlns="http://www.w3.org/2000/svg" xmlns:xlink="http://www.w3.org/1999/xlink" width="600" height="400" viewBox="0 0 2400 1600">
<defs>
  <clipPath id="clip240">
    <rect x="0" y="0" width="2400" height="1600"/>
  </clipPath>
</defs>
<path clip-path="url(#clip240)" d="
M0 1600 L2400 1600 L2400 0 L0 0  Z
  " fill="#ffffff" fill-rule="evenodd" fill-opacity="1"/>
<defs>
  <clipPath id="clip241">
    <rect x="480" y="0" width="1681" height="1600"/>
  </clipPath>
</defs>
<path clip-path="url(#clip240)" d="
M693.01 1486.45 L2352.76 1486.45 L2352.76 123.472 L693.01 123.472  Z
  " fill="#ffffff" fill-rule="evenodd" fill-opacity="1"/>
<defs>
  <clipPath id="clip242">
    <rect x="693" y="123" width="1661" height="1364"/>
  </clipPath>
</defs>
<polyline clip-path="url(#clip242)" style="stroke:#000000; stroke-linecap:butt; stroke-linejoin:round; stroke-width:2; stroke-opacity:0.1; fill:none" points="
  724.168,1486.45 724.168,123.472 
  "/>
<polyline clip-path="url(#clip242)" style="stroke:#000000; stroke-linecap:butt; stroke-linejoin:round; stroke-width:2; stroke-opacity:0.1; fill:none" points="
  1119.57,1486.45 1119.57,123.472 
  "/>
<polyline clip-path="url(#clip242)" style="stroke:#000000; stroke-linecap:butt; stroke-linejoin:round; stroke-width:2; stroke-opacity:0.1; fill:none" points="
  1514.97,1486.45 1514.97,123.472 
  "/>
<polyline clip-path="url(#clip242)" style="stroke:#000000; stroke-linecap:butt; stroke-linejoin:round; stroke-width:2; stroke-opacity:0.1; fill:none" points="
  1910.38,1486.45 1910.38,123.472 
  "/>
<polyline clip-path="url(#clip242)" style="stroke:#000000; stroke-linecap:butt; stroke-linejoin:round; stroke-width:2; stroke-opacity:0.1; fill:none" points="
  2305.78,1486.45 2305.78,123.472 
  "/>
<polyline clip-path="url(#clip240)" style="stroke:#000000; stroke-linecap:butt; stroke-linejoin:round; stroke-width:4; stroke-opacity:1; fill:none" points="
  693.01,1486.45 2352.76,1486.45 
  "/>
<polyline clip-path="url(#clip240)" style="stroke:#000000; stroke-linecap:butt; stroke-linejoin:round; stroke-width:4; stroke-opacity:1; fill:none" points="
  724.168,1486.45 724.168,1467.55 
  "/>
<polyline clip-path="url(#clip240)" style="stroke:#000000; stroke-linecap:butt; stroke-linejoin:round; stroke-width:4; stroke-opacity:1; fill:none" points="
  1119.57,1486.45 1119.57,1467.55 
  "/>
<polyline clip-path="url(#clip240)" style="stroke:#000000; stroke-linecap:butt; stroke-linejoin:round; stroke-width:4; stroke-opacity:1; fill:none" points="
  1514.97,1486.45 1514.97,1467.55 
  "/>
<polyline clip-path="url(#clip240)" style="stroke:#000000; stroke-linecap:butt; stroke-linejoin:round; stroke-width:4; stroke-opacity:1; fill:none" points="
  1910.38,1486.45 1910.38,1467.55 
  "/>
<polyline clip-path="url(#clip240)" style="stroke:#000000; stroke-linecap:butt; stroke-linejoin:round; stroke-width:4; stroke-opacity:1; fill:none" points="
  2305.78,1486.45 2305.78,1467.55 
  "/>
<path clip-path="url(#clip240)" d="M724.168 1517.37 Q720.557 1517.37 718.728 1520.93 Q716.922 1524.47 716.922 1531.6 Q716.922 1538.71 718.728 1542.27 Q720.557 1545.82 724.168 1545.82 Q727.802 1545.82 729.607 1542.27 Q731.436 1538.71 731.436 1531.6 Q731.436 1524.47 729.607 1520.93 Q727.802 1517.37 724.168 1517.37 M724.168 1513.66 Q729.978 1513.66 733.033 1518.27 Q736.112 1522.85 736.112 1531.6 Q736.112 1540.33 733.033 1544.94 Q729.978 1549.52 724.168 1549.52 Q718.358 1549.52 715.279 1544.94 Q712.223 1540.33 712.223 1531.6 Q712.223 1522.85 715.279 1518.27 Q718.358 1513.66 724.168 1513.66 Z" fill="#000000" fill-rule="evenodd" fill-opacity="1" /><path clip-path="url(#clip240)" d="M1098.84 1544.91 L1115.16 1544.91 L1115.16 1548.85 L1093.22 1548.85 L1093.22 1544.91 Q1095.88 1542.16 1100.46 1537.53 Q1105.07 1532.88 1106.25 1531.53 Q1108.49 1529.01 1109.37 1527.27 Q1110.28 1525.51 1110.28 1523.82 Q1110.28 1521.07 1108.33 1519.33 Q1106.41 1517.6 1103.31 1517.6 Q1101.11 1517.6 1098.66 1518.36 Q1096.23 1519.13 1093.45 1520.68 L1093.45 1515.95 Q1096.27 1514.82 1098.73 1514.24 Q1101.18 1513.66 1103.22 1513.66 Q1108.59 1513.66 1111.78 1516.35 Q1114.98 1519.03 1114.98 1523.52 Q1114.98 1525.65 1114.17 1527.57 Q1113.38 1529.47 1111.27 1532.07 Q1110.69 1532.74 1107.59 1535.95 Q1104.49 1539.15 1098.84 1544.91 Z" fill="#000000" fill-rule="evenodd" fill-opacity="1" /><path clip-path="url(#clip240)" d="M1125.02 1514.29 L1143.38 1514.29 L1143.38 1518.22 L1129.3 1518.22 L1129.3 1526.7 Q1130.32 1526.35 1131.34 1526.19 Q1132.36 1526 1133.38 1526 Q1139.17 1526 1142.55 1529.17 Q1145.93 1532.34 1145.93 1537.76 Q1145.93 1543.34 1142.45 1546.44 Q1138.98 1549.52 1132.66 1549.52 Q1130.49 1549.52 1128.22 1549.15 Q1125.97 1548.78 1123.56 1548.04 L1123.56 1543.34 Q1125.65 1544.47 1127.87 1545.03 Q1130.09 1545.58 1132.57 1545.58 Q1136.57 1545.58 1138.91 1543.48 Q1141.25 1541.37 1141.25 1537.76 Q1141.25 1534.15 1138.91 1532.04 Q1136.57 1529.94 1132.57 1529.94 Q1130.69 1529.94 1128.82 1530.35 Q1126.97 1530.77 1125.02 1531.65 L1125.02 1514.29 Z" fill="#000000" fill-rule="evenodd" fill-opacity="1" /><path clip-path="url(#clip240)" d="M1489.67 1514.29 L1508.03 1514.29 L1508.03 1518.22 L1493.96 1518.22 L1493.96 1526.7 Q1494.97 1526.35 1495.99 1526.19 Q1497.01 1526 1498.03 1526 Q1503.82 1526 1507.2 1529.17 Q1510.58 1532.34 1510.58 1537.76 Q1510.58 1543.34 1507.1 1546.44 Q1503.63 1549.52 1497.31 1549.52 Q1495.14 1549.52 1492.87 1549.15 Q1490.62 1548.78 1488.22 1548.04 L1488.22 1543.34 Q1490.3 1544.47 1492.52 1545.03 Q1494.74 1545.58 1497.22 1545.58 Q1501.22 1545.58 1503.56 1543.48 Q1505.9 1541.37 1505.9 1537.76 Q1505.9 1534.15 1503.56 1532.04 Q1501.22 1529.94 1497.22 1529.94 Q1495.35 1529.94 1493.47 1530.35 Q1491.62 1530.77 1489.67 1531.65 L1489.67 1514.29 Z" fill="#000000" fill-rule="evenodd" fill-opacity="1" /><path clip-path="url(#clip240)" d="M1529.79 1517.37 Q1526.18 1517.37 1524.35 1520.93 Q1522.54 1524.47 1522.54 1531.6 Q1522.54 1538.71 1524.35 1542.27 Q1526.18 1545.82 1529.79 1545.82 Q1533.42 1545.82 1535.23 1542.27 Q1537.06 1538.71 1537.06 1531.6 Q1537.06 1524.47 1535.23 1520.93 Q1533.42 1517.37 1529.79 1517.37 M1529.79 1513.66 Q1535.6 1513.66 1538.66 1518.27 Q1541.73 1522.85 1541.73 1531.6 Q1541.73 1540.33 1538.66 1544.94 Q1535.6 1549.52 1529.79 1549.52 Q1523.98 1549.52 1520.9 1544.94 Q1517.85 1540.33 1517.85 1531.6 Q1517.85 1522.85 1520.9 1518.27 Q1523.98 1513.66 1529.79 1513.66 Z" fill="#000000" fill-rule="evenodd" fill-opacity="1" /><path clip-path="url(#clip240)" d="M1884.23 1514.29 L1906.45 1514.29 L1906.45 1516.28 L1893.91 1548.85 L1889.02 1548.85 L1900.83 1518.22 L1884.23 1518.22 L1884.23 1514.29 Z" fill="#000000" fill-rule="evenodd" fill-opacity="1" /><path clip-path="url(#clip240)" d="M1915.62 1514.29 L1933.98 1514.29 L1933.98 1518.22 L1919.9 1518.22 L1919.9 1526.7 Q1920.92 1526.35 1921.94 1526.19 Q1922.96 1526 1923.98 1526 Q1929.76 1526 1933.14 1529.17 Q1936.52 1532.34 1936.52 1537.76 Q1936.52 1543.34 1933.05 1546.44 Q1929.58 1549.52 1923.26 1549.52 Q1921.08 1549.52 1918.82 1549.15 Q1916.57 1548.78 1914.16 1548.04 L1914.16 1543.34 Q1916.25 1544.47 1918.47 1545.03 Q1920.69 1545.58 1923.17 1545.58 Q1927.17 1545.58 1929.51 1543.48 Q1931.85 1541.37 1931.85 1537.76 Q1931.85 1534.15 1929.51 1532.04 Q1927.17 1529.94 1923.17 1529.94 Q1921.29 1529.94 1919.42 1530.35 Q1917.57 1530.77 1915.62 1531.65 L1915.62 1514.29 Z" fill="#000000" fill-rule="evenodd" fill-opacity="1" /><path clip-path="url(#clip240)" d="M2265.39 1544.91 L2273.03 1544.91 L2273.03 1518.55 L2264.72 1520.21 L2264.72 1515.95 L2272.98 1514.29 L2277.66 1514.29 L2277.66 1544.91 L2285.3 1544.91 L2285.3 1548.85 L2265.39 1548.85 L2265.39 1544.91 Z" fill="#000000" fill-rule="evenodd" fill-opacity="1" /><path clip-path="url(#clip240)" d="M2304.74 1517.37 Q2301.13 1517.37 2299.3 1520.93 Q2297.49 1524.47 2297.49 1531.6 Q2297.49 1538.71 2299.3 1542.27 Q2301.13 1545.82 2304.74 1545.82 Q2308.37 1545.82 2310.18 1542.27 Q2312.01 1538.71 2312.01 1531.6 Q2312.01 1524.47 2310.18 1520.93 Q2308.37 1517.37 2304.74 1517.37 M2304.74 1513.66 Q2310.55 1513.66 2313.61 1518.27 Q2316.68 1522.85 2316.68 1531.6 Q2316.68 1540.33 2313.61 1544.94 Q2310.55 1549.52 2304.74 1549.52 Q2298.93 1549.52 2295.85 1544.94 Q2292.8 1540.33 2292.8 1531.6 Q2292.8 1522.85 2295.85 1518.27 Q2298.93 1513.66 2304.74 1513.66 Z" fill="#000000" fill-rule="evenodd" fill-opacity="1" /><path clip-path="url(#clip240)" d="M2334.9 1517.37 Q2331.29 1517.37 2329.46 1520.93 Q2327.66 1524.47 2327.66 1531.6 Q2327.66 1538.71 2329.46 1542.27 Q2331.29 1545.82 2334.9 1545.82 Q2338.54 1545.82 2340.34 1542.27 Q2342.17 1538.71 2342.17 1531.6 Q2342.17 1524.47 2340.34 1520.93 Q2338.54 1517.37 2334.9 1517.37 M2334.9 1513.66 Q2340.71 1513.66 2343.77 1518.27 Q2346.85 1522.85 2346.85 1531.6 Q2346.85 1540.33 2343.77 1544.94 Q2340.71 1549.52 2334.9 1549.52 Q2329.09 1549.52 2326.01 1544.94 Q2322.96 1540.33 2322.96 1531.6 Q2322.96 1522.85 2326.01 1518.27 Q2329.09 1513.66 2334.9 1513.66 Z" fill="#000000" fill-rule="evenodd" fill-opacity="1" /><polyline clip-path="url(#clip242)" style="stroke:#000000; stroke-linecap:butt; stroke-linejoin:round; stroke-width:2; stroke-opacity:0.1; fill:none" points="
  693.01,1288.98 2352.76,1288.98 
  "/>
<polyline clip-path="url(#clip242)" style="stroke:#000000; stroke-linecap:butt; stroke-linejoin:round; stroke-width:2; stroke-opacity:0.1; fill:none" points="
  693.01,1032.05 2352.76,1032.05 
  "/>
<polyline clip-path="url(#clip242)" style="stroke:#000000; stroke-linecap:butt; stroke-linejoin:round; stroke-width:2; stroke-opacity:0.1; fill:none" points="
  693.01,775.11 2352.76,775.11 
  "/>
<polyline clip-path="url(#clip242)" style="stroke:#000000; stroke-linecap:butt; stroke-linejoin:round; stroke-width:2; stroke-opacity:0.1; fill:none" points="
  693.01,518.175 2352.76,518.175 
  "/>
<polyline clip-path="url(#clip242)" style="stroke:#000000; stroke-linecap:butt; stroke-linejoin:round; stroke-width:2; stroke-opacity:0.1; fill:none" points="
  693.01,261.239 2352.76,261.239 
  "/>
<polyline clip-path="url(#clip240)" style="stroke:#000000; stroke-linecap:butt; stroke-linejoin:round; stroke-width:4; stroke-opacity:1; fill:none" points="
  693.01,1486.45 693.01,123.472 
  "/>
<polyline clip-path="url(#clip240)" style="stroke:#000000; stroke-linecap:butt; stroke-linejoin:round; stroke-width:4; stroke-opacity:1; fill:none" points="
  693.01,1288.98 707.491,1288.98 
  "/>
<polyline clip-path="url(#clip240)" style="stroke:#000000; stroke-linecap:butt; stroke-linejoin:round; stroke-width:4; stroke-opacity:1; fill:none" points="
  693.01,1032.05 707.491,1032.05 
  "/>
<polyline clip-path="url(#clip240)" style="stroke:#000000; stroke-linecap:butt; stroke-linejoin:round; stroke-width:4; stroke-opacity:1; fill:none" points="
  693.01,775.11 707.491,775.11 
  "/>
<polyline clip-path="url(#clip240)" style="stroke:#000000; stroke-linecap:butt; stroke-linejoin:round; stroke-width:4; stroke-opacity:1; fill:none" points="
  693.01,518.175 707.491,518.175 
  "/>
<polyline clip-path="url(#clip240)" style="stroke:#000000; stroke-linecap:butt; stroke-linejoin:round; stroke-width:4; stroke-opacity:1; fill:none" points="
  693.01,261.239 707.491,261.239 
  "/>
<path clip-path="url(#clip240)" d="M569.51 1274.78 Q565.899 1274.78 564.071 1278.35 Q562.265 1281.89 562.265 1289.02 Q562.265 1296.12 564.071 1299.69 Q565.899 1303.23 569.51 1303.23 Q573.145 1303.23 574.95 1299.69 Q576.779 1296.12 576.779 1289.02 Q576.779 1281.89 574.95 1278.35 Q573.145 1274.78 569.51 1274.78 M569.51 1271.08 Q575.32 1271.08 578.376 1275.68 Q581.455 1280.27 581.455 1289.02 Q581.455 1297.74 578.376 1302.35 Q575.32 1306.93 569.51 1306.93 Q563.7 1306.93 560.621 1302.35 Q557.566 1297.74 557.566 1289.02 Q557.566 1280.27 560.621 1275.68 Q563.7 1271.08 569.51 1271.08 Z" fill="#000000" fill-rule="evenodd" fill-opacity="1" /><path clip-path="url(#clip240)" d="M589.672 1300.38 L594.556 1300.38 L594.556 1306.26 L589.672 1306.26 L589.672 1300.38 Z" fill="#000000" fill-rule="evenodd" fill-opacity="1" /><path clip-path="url(#clip240)" d="M618.908 1287.63 Q622.265 1288.35 624.14 1290.61 Q626.038 1292.88 626.038 1296.22 Q626.038 1301.33 622.519 1304.13 Q619.001 1306.93 612.519 1306.93 Q610.343 1306.93 608.029 1306.49 Q605.737 1306.08 603.283 1305.22 L603.283 1300.71 Q605.228 1301.84 607.543 1302.42 Q609.857 1303 612.38 1303 Q616.779 1303 619.07 1301.26 Q621.385 1299.53 621.385 1296.22 Q621.385 1293.16 619.232 1291.45 Q617.103 1289.71 613.283 1289.71 L609.255 1289.71 L609.255 1285.87 L613.468 1285.87 Q616.917 1285.87 618.746 1284.5 Q620.575 1283.11 620.575 1280.52 Q620.575 1277.86 618.677 1276.45 Q616.802 1275.01 613.283 1275.01 Q611.362 1275.01 609.163 1275.43 Q606.964 1275.85 604.325 1276.72 L604.325 1272.56 Q606.987 1271.82 609.302 1271.45 Q611.64 1271.08 613.7 1271.08 Q619.024 1271.08 622.126 1273.51 Q625.228 1275.91 625.228 1280.03 Q625.228 1282.91 623.584 1284.9 Q621.941 1286.86 618.908 1287.63 Z" fill="#000000" fill-rule="evenodd" fill-opacity="1" /><path clip-path="url(#clip240)" d="M645.482 1287.12 Q642.334 1287.12 640.482 1289.27 Q638.653 1291.42 638.653 1295.17 Q638.653 1298.9 640.482 1301.08 Q642.334 1303.23 645.482 1303.23 Q648.63 1303.23 650.459 1301.08 Q652.311 1298.9 652.311 1295.17 Q652.311 1291.42 650.459 1289.27 Q648.63 1287.12 645.482 1287.12 M654.764 1272.47 L654.764 1276.72 Q653.005 1275.89 651.2 1275.45 Q649.417 1275.01 647.658 1275.01 Q643.028 1275.01 640.575 1278.14 Q638.144 1281.26 637.797 1287.58 Q639.163 1285.57 641.223 1284.5 Q643.283 1283.41 645.76 1283.41 Q650.968 1283.41 653.977 1286.59 Q657.01 1289.73 657.01 1295.17 Q657.01 1300.5 653.862 1303.72 Q650.714 1306.93 645.482 1306.93 Q639.487 1306.93 636.316 1302.35 Q633.144 1297.74 633.144 1289.02 Q633.144 1280.82 637.033 1275.96 Q640.922 1271.08 647.473 1271.08 Q649.232 1271.08 651.015 1271.42 Q652.82 1271.77 654.764 1272.47 Z" fill="#000000" fill-rule="evenodd" fill-opacity="1" /><path clip-path="url(#clip240)" d="M569.765 1017.84 Q566.154 1017.84 564.325 1021.41 Q562.52 1024.95 562.52 1032.08 Q562.52 1039.19 564.325 1042.75 Q566.154 1046.29 569.765 1046.29 Q573.399 1046.29 575.205 1042.75 Q577.033 1039.19 577.033 1032.08 Q577.033 1024.95 575.205 1021.41 Q573.399 1017.84 569.765 1017.84 M569.765 1014.14 Q575.575 1014.14 578.631 1018.75 Q581.709 1023.33 581.709 1032.08 Q581.709 1040.81 578.631 1045.41 Q575.575 1050 569.765 1050 Q563.955 1050 560.876 1045.41 Q557.821 1040.81 557.821 1032.08 Q557.821 1023.33 560.876 1018.75 Q563.955 1014.14 569.765 1014.14 Z" fill="#000000" fill-rule="evenodd" fill-opacity="1" /><path clip-path="url(#clip240)" d="M589.927 1043.45 L594.811 1043.45 L594.811 1049.33 L589.927 1049.33 L589.927 1043.45 Z" fill="#000000" fill-rule="evenodd" fill-opacity="1" /><path clip-path="url(#clip240)" d="M619.163 1030.69 Q622.519 1031.41 624.394 1033.68 Q626.292 1035.95 626.292 1039.28 Q626.292 1044.4 622.774 1047.2 Q619.255 1050 612.774 1050 Q610.598 1050 608.283 1049.56 Q605.992 1049.14 603.538 1048.28 L603.538 1043.77 Q605.482 1044.9 607.797 1045.48 Q610.112 1046.06 612.635 1046.06 Q617.033 1046.06 619.325 1044.33 Q621.64 1042.59 621.64 1039.28 Q621.64 1036.22 619.487 1034.51 Q617.357 1032.78 613.538 1032.78 L609.51 1032.78 L609.51 1028.93 L613.723 1028.93 Q617.172 1028.93 619.001 1027.57 Q620.829 1026.18 620.829 1023.59 Q620.829 1020.92 618.931 1019.51 Q617.056 1018.08 613.538 1018.08 Q611.617 1018.08 609.418 1018.49 Q607.218 1018.91 604.58 1019.79 L604.58 1015.62 Q607.242 1014.88 609.556 1014.51 Q611.894 1014.14 613.955 1014.14 Q619.279 1014.14 622.38 1016.57 Q625.482 1018.98 625.482 1023.1 Q625.482 1025.97 623.839 1027.96 Q622.195 1029.93 619.163 1030.69 Z" fill="#000000" fill-rule="evenodd" fill-opacity="1" /><path clip-path="url(#clip240)" d="M645.158 1032.91 Q641.825 1032.91 639.903 1034.7 Q638.005 1036.48 638.005 1039.6 Q638.005 1042.73 639.903 1044.51 Q641.825 1046.29 645.158 1046.29 Q648.491 1046.29 650.413 1044.51 Q652.334 1042.71 652.334 1039.6 Q652.334 1036.48 650.413 1034.7 Q648.515 1032.91 645.158 1032.91 M640.482 1030.92 Q637.473 1030.18 635.783 1028.12 Q634.116 1026.06 634.116 1023.1 Q634.116 1018.96 637.056 1016.55 Q640.019 1014.14 645.158 1014.14 Q650.32 1014.14 653.26 1016.55 Q656.2 1018.96 656.2 1023.1 Q656.2 1026.06 654.51 1028.12 Q652.843 1030.18 649.857 1030.92 Q653.237 1031.71 655.112 1034 Q657.01 1036.29 657.01 1039.6 Q657.01 1044.63 653.931 1047.31 Q650.876 1050 645.158 1050 Q639.441 1050 636.362 1047.31 Q633.306 1044.63 633.306 1039.6 Q633.306 1036.29 635.204 1034 Q637.103 1031.71 640.482 1030.92 M638.769 1023.54 Q638.769 1026.22 640.436 1027.73 Q642.126 1029.23 645.158 1029.23 Q648.167 1029.23 649.857 1027.73 Q651.57 1026.22 651.57 1023.54 Q651.57 1020.85 649.857 1019.35 Q648.167 1017.84 645.158 1017.84 Q642.126 1017.84 640.436 1019.35 Q638.769 1020.85 638.769 1023.54 Z" fill="#000000" fill-rule="evenodd" fill-opacity="1" /><path clip-path="url(#clip240)" d="M569.672 760.909 Q566.061 760.909 564.233 764.474 Q562.427 768.016 562.427 775.145 Q562.427 782.252 564.233 785.816 Q566.061 789.358 569.672 789.358 Q573.307 789.358 575.112 785.816 Q576.941 782.252 576.941 775.145 Q576.941 768.016 575.112 764.474 Q573.307 760.909 569.672 760.909 M569.672 757.205 Q575.483 757.205 578.538 761.812 Q581.617 766.395 581.617 775.145 Q581.617 783.872 578.538 788.478 Q575.483 793.062 569.672 793.062 Q563.862 793.062 560.784 788.478 Q557.728 783.872 557.728 775.145 Q557.728 766.395 560.784 761.812 Q563.862 757.205 569.672 757.205 Z" fill="#000000" fill-rule="evenodd" fill-opacity="1" /><path clip-path="url(#clip240)" d="M589.834 786.511 L594.719 786.511 L594.719 792.39 L589.834 792.39 L589.834 786.511 Z" fill="#000000" fill-rule="evenodd" fill-opacity="1" /><path clip-path="url(#clip240)" d="M617.751 761.905 L605.945 780.353 L617.751 780.353 L617.751 761.905 M616.524 757.83 L622.404 757.83 L622.404 780.353 L627.334 780.353 L627.334 784.242 L622.404 784.242 L622.404 792.39 L617.751 792.39 L617.751 784.242 L602.149 784.242 L602.149 779.728 L616.524 757.83 Z" fill="#000000" fill-rule="evenodd" fill-opacity="1" /><path clip-path="url(#clip240)" d="M645.065 760.909 Q641.454 760.909 639.626 764.474 Q637.82 768.016 637.82 775.145 Q637.82 782.252 639.626 785.816 Q641.454 789.358 645.065 789.358 Q648.7 789.358 650.505 785.816 Q652.334 782.252 652.334 775.145 Q652.334 768.016 650.505 764.474 Q648.7 760.909 645.065 760.909 M645.065 757.205 Q650.876 757.205 653.931 761.812 Q657.01 766.395 657.01 775.145 Q657.01 783.872 653.931 788.478 Q650.876 793.062 645.065 793.062 Q639.255 793.062 636.177 788.478 Q633.121 783.872 633.121 775.145 Q633.121 766.395 636.177 761.812 Q639.255 757.205 645.065 757.205 Z" fill="#000000" fill-rule="evenodd" fill-opacity="1" /><path clip-path="url(#clip240)" d="M571.27 503.974 Q567.658 503.974 565.83 507.538 Q564.024 511.08 564.024 518.21 Q564.024 525.316 565.83 528.881 Q567.658 532.422 571.27 532.422 Q574.904 532.422 576.709 528.881 Q578.538 525.316 578.538 518.21 Q578.538 511.08 576.709 507.538 Q574.904 503.974 571.27 503.974 M571.27 500.27 Q577.08 500.27 580.135 504.876 Q583.214 509.46 583.214 518.21 Q583.214 526.936 580.135 531.543 Q577.08 536.126 571.27 536.126 Q565.459 536.126 562.381 531.543 Q559.325 526.936 559.325 518.21 Q559.325 509.46 562.381 504.876 Q565.459 500.27 571.27 500.27 Z" fill="#000000" fill-rule="evenodd" fill-opacity="1" /><path clip-path="url(#clip240)" d="M591.432 529.575 L596.316 529.575 L596.316 535.455 L591.432 535.455 L591.432 529.575 Z" fill="#000000" fill-rule="evenodd" fill-opacity="1" /><path clip-path="url(#clip240)" d="M619.348 504.969 L607.543 523.418 L619.348 523.418 L619.348 504.969 M618.121 500.895 L624.001 500.895 L624.001 523.418 L628.931 523.418 L628.931 527.307 L624.001 527.307 L624.001 535.455 L619.348 535.455 L619.348 527.307 L603.746 527.307 L603.746 522.793 L618.121 500.895 Z" fill="#000000" fill-rule="evenodd" fill-opacity="1" /><path clip-path="url(#clip240)" d="M640.69 531.52 L657.01 531.52 L657.01 535.455 L635.066 535.455 L635.066 531.52 Q637.728 528.765 642.311 524.135 Q646.917 519.483 648.098 518.14 Q650.343 515.617 651.223 513.881 Q652.126 512.122 652.126 510.432 Q652.126 507.677 650.181 505.941 Q648.26 504.205 645.158 504.205 Q642.959 504.205 640.505 504.969 Q638.075 505.733 635.297 507.284 L635.297 502.561 Q638.121 501.427 640.575 500.849 Q643.028 500.27 645.065 500.27 Q650.436 500.27 653.63 502.955 Q656.825 505.64 656.825 510.131 Q656.825 512.261 656.014 514.182 Q655.227 516.08 653.121 518.673 Q652.542 519.344 649.44 522.561 Q646.339 525.756 640.69 531.52 Z" fill="#000000" fill-rule="evenodd" fill-opacity="1" /><path clip-path="url(#clip240)" d="M569.186 247.038 Q565.575 247.038 563.746 250.603 Q561.941 254.144 561.941 261.274 Q561.941 268.38 563.746 271.945 Q565.575 275.487 569.186 275.487 Q572.82 275.487 574.626 271.945 Q576.455 268.38 576.455 261.274 Q576.455 254.144 574.626 250.603 Q572.82 247.038 569.186 247.038 M569.186 243.334 Q574.996 243.334 578.052 247.941 Q581.131 252.524 581.131 261.274 Q581.131 270.001 578.052 274.607 Q574.996 279.191 569.186 279.191 Q563.376 279.191 560.297 274.607 Q557.242 270.001 557.242 261.274 Q557.242 252.524 560.297 247.941 Q563.376 243.334 569.186 243.334 Z" fill="#000000" fill-rule="evenodd" fill-opacity="1" /><path clip-path="url(#clip240)" d="M589.348 272.64 L594.232 272.64 L594.232 278.519 L589.348 278.519 L589.348 272.64 Z" fill="#000000" fill-rule="evenodd" fill-opacity="1" /><path clip-path="url(#clip240)" d="M617.265 248.033 L605.459 266.482 L617.265 266.482 L617.265 248.033 M616.038 243.959 L621.917 243.959 L621.917 266.482 L626.848 266.482 L626.848 270.371 L621.917 270.371 L621.917 278.519 L617.265 278.519 L617.265 270.371 L601.663 270.371 L601.663 265.857 L616.038 243.959 Z" fill="#000000" fill-rule="evenodd" fill-opacity="1" /><path clip-path="url(#clip240)" d="M647.427 248.033 L635.621 266.482 L647.427 266.482 L647.427 248.033 M646.2 243.959 L652.079 243.959 L652.079 266.482 L657.01 266.482 L657.01 270.371 L652.079 270.371 L652.079 278.519 L647.427 278.519 L647.427 270.371 L631.825 270.371 L631.825 265.857 L646.2 243.959 Z" fill="#000000" fill-rule="evenodd" fill-opacity="1" /><path clip-path="url(#clip240)" d="M1362.77 20.1573 L1351.67 50.2555 L1373.91 50.2555 L1362.77 20.1573 M1358.15 12.096 L1367.43 12.096 L1390.48 72.576 L1381.97 72.576 L1376.46 57.061 L1349.2 57.061 L1343.69 72.576 L1335.06 72.576 L1358.15 12.096 Z" fill="#000000" fill-rule="evenodd" fill-opacity="1" /><path clip-path="url(#clip240)" d="M1430.18 28.9478 L1430.18 35.9153 Q1427.02 34.1734 1423.82 33.3227 Q1420.66 32.4315 1417.42 32.4315 Q1410.17 32.4315 1406.16 37.0496 Q1402.15 41.6271 1402.15 49.9314 Q1402.15 58.2358 1406.16 62.8538 Q1410.17 67.4314 1417.42 67.4314 Q1420.66 67.4314 1423.82 66.5807 Q1427.02 65.6895 1430.18 63.9476 L1430.18 70.8341 Q1427.06 72.2924 1423.7 73.0216 Q1420.37 73.7508 1416.61 73.7508 Q1406.36 73.7508 1400.32 67.3098 Q1394.29 60.8689 1394.29 49.9314 Q1394.29 38.832 1400.36 32.472 Q1406.48 26.1121 1417.09 26.1121 Q1420.54 26.1121 1423.82 26.8413 Q1427.1 27.5299 1430.18 28.9478 Z" fill="#000000" fill-rule="evenodd" fill-opacity="1" /><path clip-path="url(#clip240)" d="M1475.79 28.9478 L1475.79 35.9153 Q1472.63 34.1734 1469.43 33.3227 Q1466.27 32.4315 1463.03 32.4315 Q1455.78 32.4315 1451.77 37.0496 Q1447.76 41.6271 1447.76 49.9314 Q1447.76 58.2358 1451.77 62.8538 Q1455.78 67.4314 1463.03 67.4314 Q1466.27 67.4314 1469.43 66.5807 Q1472.63 65.6895 1475.79 63.9476 L1475.79 70.8341 Q1472.67 72.2924 1469.31 73.0216 Q1465.99 73.7508 1462.22 73.7508 Q1451.97 73.7508 1445.94 67.3098 Q1439.9 60.8689 1439.9 49.9314 Q1439.9 38.832 1445.98 32.472 Q1452.09 26.1121 1462.71 26.1121 Q1466.15 26.1121 1469.43 26.8413 Q1472.71 27.5299 1475.79 28.9478 Z" fill="#000000" fill-rule="evenodd" fill-opacity="1" /><path clip-path="url(#clip240)" d="M1487.98 54.671 L1487.98 27.2059 L1495.44 27.2059 L1495.44 54.3874 Q1495.44 60.8284 1497.95 64.0691 Q1500.46 67.2693 1505.48 67.2693 Q1511.52 67.2693 1515 63.421 Q1518.53 59.5726 1518.53 52.9291 L1518.53 27.2059 L1525.98 27.2059 L1525.98 72.576 L1518.53 72.576 L1518.53 65.6084 Q1515.81 69.7404 1512.21 71.7658 Q1508.64 73.7508 1503.9 73.7508 Q1496.09 73.7508 1492.04 68.8897 Q1487.98 64.0286 1487.98 54.671 M1506.74 26.1121 L1506.74 26.1121 Z" fill="#000000" fill-rule="evenodd" fill-opacity="1" /><path clip-path="url(#clip240)" d="M1567.63 34.1734 Q1566.37 33.4443 1564.87 33.1202 Q1563.41 32.7556 1561.63 32.7556 Q1555.31 32.7556 1551.91 36.8875 Q1548.55 40.9789 1548.55 48.6757 L1548.55 72.576 L1541.05 72.576 L1541.05 27.2059 L1548.55 27.2059 L1548.55 34.2544 Q1550.89 30.1225 1554.66 28.1376 Q1558.43 26.1121 1563.82 26.1121 Q1564.59 26.1121 1565.52 26.2337 Q1566.45 26.3147 1567.58 26.5172 L1567.63 34.1734 Z" fill="#000000" fill-rule="evenodd" fill-opacity="1" /><path clip-path="url(#clip240)" d="M1596.06 49.7694 Q1587.03 49.7694 1583.55 51.8354 Q1580.06 53.9013 1580.06 58.8839 Q1580.06 62.8538 1582.65 65.2034 Q1585.29 67.5124 1589.78 67.5124 Q1595.98 67.5124 1599.71 63.1374 Q1603.48 58.7219 1603.48 51.4303 L1603.48 49.7694 L1596.06 49.7694 M1610.93 46.6907 L1610.93 72.576 L1603.48 72.576 L1603.48 65.6895 Q1600.92 69.8214 1597.12 71.8063 Q1593.31 73.7508 1587.8 73.7508 Q1580.83 73.7508 1576.7 69.8619 Q1572.61 65.9325 1572.61 59.3701 Q1572.61 51.7138 1577.71 47.825 Q1582.86 43.9361 1593.02 43.9361 L1603.48 43.9361 L1603.48 43.2069 Q1603.48 38.0623 1600.07 35.2672 Q1596.71 32.4315 1590.59 32.4315 Q1586.7 32.4315 1583.02 33.3632 Q1579.33 34.295 1575.93 36.1584 L1575.93 29.2718 Q1580.02 27.692 1583.87 26.9223 Q1587.72 26.1121 1591.36 26.1121 Q1601.21 26.1121 1606.07 31.2163 Q1610.93 36.3204 1610.93 46.6907 Z" fill="#000000" fill-rule="evenodd" fill-opacity="1" /><path clip-path="url(#clip240)" d="M1658.93 28.9478 L1658.93 35.9153 Q1655.77 34.1734 1652.57 33.3227 Q1649.41 32.4315 1646.17 32.4315 Q1638.92 32.4315 1634.91 37.0496 Q1630.9 41.6271 1630.9 49.9314 Q1630.9 58.2358 1634.91 62.8538 Q1638.92 67.4314 1646.17 67.4314 Q1649.41 67.4314 1652.57 66.5807 Q1655.77 65.6895 1658.93 63.9476 L1658.93 70.8341 Q1655.81 72.2924 1652.45 73.0216 Q1649.13 73.7508 1645.36 73.7508 Q1635.11 73.7508 1629.08 67.3098 Q1623.04 60.8689 1623.04 49.9314 Q1623.04 38.832 1629.12 32.472 Q1635.23 26.1121 1645.85 26.1121 Q1649.29 26.1121 1652.57 26.8413 Q1655.85 27.5299 1658.93 28.9478 Z" fill="#000000" fill-rule="evenodd" fill-opacity="1" /><path clip-path="url(#clip240)" d="M1690.77 76.7889 Q1687.61 84.8907 1684.62 87.3618 Q1681.62 89.8329 1676.59 89.8329 L1670.64 89.8329 L1670.64 83.5945 L1675.01 83.5945 Q1678.09 83.5945 1679.79 82.1361 Q1681.5 80.6778 1683.56 75.2496 L1684.9 71.8468 L1666.55 27.2059 L1674.45 27.2059 L1688.63 62.6918 L1702.8 27.2059 L1710.7 27.2059 L1690.77 76.7889 Z" fill="#000000" fill-rule="evenodd" fill-opacity="1" /><polyline clip-path="url(#clip242)" style="stroke:#009af9; stroke-linecap:butt; stroke-linejoin:round; stroke-width:4; stroke-opacity:1; fill:none" points="
  739.984,1447.87 755.8,1229.74 771.616,1229.74 787.432,1229.74 803.248,1229.74 819.065,736.076 834.881,736.076 850.697,736.076 866.513,736.076 882.329,736.076 
  898.145,736.076 913.961,736.076 929.778,219.45 945.594,219.45 961.41,219.45 977.226,219.45 993.042,219.45 1008.86,219.45 1024.67,219.45 1040.49,219.45 
  1056.31,219.45 1072.12,219.45 1087.94,219.45 1103.76,219.45 1119.57,219.45 1135.39,219.45 1151.2,219.45 1167.02,219.45 1182.84,219.45 1198.65,219.45 
  1214.47,219.45 1230.28,219.45 1246.1,219.45 1261.92,219.45 1277.73,219.45 1293.55,219.45 1309.36,219.45 1325.18,219.45 1341,219.45 1356.81,219.45 
  1372.63,219.45 1388.45,219.45 1404.26,219.45 1420.08,219.45 1435.89,219.45 1451.71,219.45 1467.53,219.45 1483.34,219.45 1499.16,219.45 1514.97,219.45 
  1530.79,219.45 1546.61,219.45 1562.42,219.45 1578.24,219.45 1594.06,219.45 1609.87,219.45 1625.69,219.45 1641.5,219.45 1657.32,219.45 1673.14,219.45 
  1688.95,219.45 1704.77,219.45 1720.58,219.45 1736.4,219.45 1752.22,219.45 1768.03,219.45 1783.85,219.45 1799.67,219.45 1815.48,219.45 1831.3,219.45 
  1847.11,219.45 1862.93,219.45 1878.75,219.45 1894.56,219.45 1910.38,219.45 1926.19,219.45 1942.01,219.45 1957.83,219.45 1973.64,219.45 1989.46,219.45 
  2005.28,219.45 2021.09,219.45 2036.91,219.45 2052.72,219.45 2068.54,219.45 2084.36,219.45 2100.17,219.45 2115.99,219.45 2131.8,219.45 2147.62,219.45 
  2163.44,219.45 2179.25,219.45 2195.07,219.45 2210.89,219.45 2226.7,219.45 2242.52,219.45 2258.33,219.45 2274.15,219.45 2289.97,219.45 2305.78,219.45 
  
  "/>
<polyline clip-path="url(#clip242)" style="stroke:#e26f46; stroke-linecap:butt; stroke-linejoin:round; stroke-width:4; stroke-opacity:1; fill:none" points="
  739.984,162.047 755.8,1091.97 771.616,253.892 787.432,253.892 803.248,253.892 819.065,253.892 834.881,253.892 850.697,253.892 866.513,253.892 882.329,253.892 
  898.145,253.892 913.961,253.892 929.778,253.892 945.594,253.892 961.41,253.892 977.226,253.892 993.042,253.892 1008.86,253.892 1024.67,253.892 1040.49,253.892 
  1056.31,253.892 1072.12,253.892 1087.94,253.892 1103.76,253.892 1119.57,253.892 1135.39,253.892 1151.2,253.892 1167.02,253.892 1182.84,253.892 1198.65,253.892 
  1214.47,253.892 1230.28,253.892 1246.1,253.892 1261.92,253.892 1277.73,253.892 1293.55,253.892 1309.36,253.892 1325.18,253.892 1341,253.892 1356.81,253.892 
  1372.63,253.892 1388.45,253.892 1404.26,253.892 1420.08,253.892 1435.89,253.892 1451.71,253.892 1467.53,253.892 1483.34,253.892 1499.16,253.892 1514.97,253.892 
  1530.79,253.892 1546.61,253.892 1562.42,253.892 1578.24,253.892 1594.06,253.892 1609.87,253.892 1625.69,253.892 1641.5,253.892 1657.32,253.892 1673.14,253.892 
  1688.95,253.892 1704.77,253.892 1720.58,253.892 1736.4,253.892 1752.22,253.892 1768.03,253.892 1783.85,253.892 1799.67,253.892 1815.48,253.892 1831.3,253.892 
  1847.11,253.892 1862.93,253.892 1878.75,253.892 1894.56,253.892 1910.38,253.892 1926.19,253.892 1942.01,253.892 1957.83,253.892 1973.64,253.892 1989.46,253.892 
  2005.28,253.892 2021.09,253.892 2036.91,253.892 2052.72,253.892 2068.54,253.892 2084.36,253.892 2100.17,253.892 2115.99,253.892 2131.8,253.892 2147.62,253.892 
  2163.44,253.892 2179.25,253.892 2195.07,253.892 2210.89,253.892 2226.7,253.892 2242.52,253.892 2258.33,253.892 2274.15,253.892 2289.97,253.892 2305.78,253.892 
  
  "/>
<path clip-path="url(#clip240)" d="
M114.56 324.425 L448.842 324.425 L448.842 168.905 L114.56 168.905  Z
  " fill="#ffffff" fill-rule="evenodd" fill-opacity="1"/>
<polyline clip-path="url(#clip240)" style="stroke:#000000; stroke-linecap:butt; stroke-linejoin:round; stroke-width:4; stroke-opacity:1; fill:none" points="
  114.56,324.425 448.842,324.425 448.842,168.905 114.56,168.905 114.56,324.425 
  "/>
<polyline clip-path="url(#clip240)" style="stroke:#009af9; stroke-linecap:butt; stroke-linejoin:round; stroke-width:4; stroke-opacity:1; fill:none" points="
  138.56,220.745 282.56,220.745 
  "/>
<path clip-path="url(#clip240)" d="M322.393 208.071 L316.051 225.27 L328.759 225.27 L322.393 208.071 M319.755 203.465 L325.056 203.465 L338.227 238.025 L333.366 238.025 L330.218 229.159 L314.639 229.159 L311.491 238.025 L306.56 238.025 L319.755 203.465 Z" fill="#000000" fill-rule="evenodd" fill-opacity="1" /><path clip-path="url(#clip240)" d="M347.949 221.52 L347.949 234.182 L355.449 234.182 Q359.222 234.182 361.028 232.631 Q362.856 231.057 362.856 227.84 Q362.856 224.599 361.028 223.071 Q359.222 221.52 355.449 221.52 L347.949 221.52 M347.949 207.307 L347.949 217.724 L354.87 217.724 Q358.296 217.724 359.963 216.451 Q361.653 215.154 361.653 212.516 Q361.653 209.9 359.963 208.604 Q358.296 207.307 354.87 207.307 L347.949 207.307 M343.273 203.465 L355.217 203.465 Q360.565 203.465 363.458 205.687 Q366.352 207.909 366.352 212.006 Q366.352 215.178 364.87 217.053 Q363.389 218.928 360.518 219.39 Q363.967 220.131 365.865 222.492 Q367.787 224.83 367.787 228.349 Q367.787 232.978 364.639 235.502 Q361.491 238.025 355.68 238.025 L343.273 238.025 L343.273 203.465 Z" fill="#000000" fill-rule="evenodd" fill-opacity="1" /><path clip-path="url(#clip240)" d="M400.842 206.127 L400.842 211.057 Q398.481 208.858 395.796 207.77 Q393.134 206.682 390.125 206.682 Q384.199 206.682 381.051 210.316 Q377.902 213.928 377.902 220.779 Q377.902 227.608 381.051 231.242 Q384.199 234.853 390.125 234.853 Q393.134 234.853 395.796 233.765 Q398.481 232.677 400.842 230.478 L400.842 235.363 Q398.388 237.029 395.634 237.863 Q392.902 238.696 389.847 238.696 Q382 238.696 377.486 233.904 Q372.972 229.09 372.972 220.779 Q372.972 212.446 377.486 207.654 Q382 202.84 389.847 202.84 Q392.949 202.84 395.68 203.673 Q398.435 204.483 400.842 206.127 Z" fill="#000000" fill-rule="evenodd" fill-opacity="1" /><polyline clip-path="url(#clip240)" style="stroke:#e26f46; stroke-linecap:butt; stroke-linejoin:round; stroke-width:4; stroke-opacity:1; fill:none" points="
  138.56,272.585 282.56,272.585 
  "/>
<path clip-path="url(#clip240)" d="M311.236 259.147 L311.236 272.133 L317.116 272.133 Q320.38 272.133 322.162 270.443 Q323.944 268.754 323.944 265.629 Q323.944 262.527 322.162 260.837 Q320.38 259.147 317.116 259.147 L311.236 259.147 M306.56 255.305 L317.116 255.305 Q322.926 255.305 325.889 257.944 Q328.875 260.559 328.875 265.629 Q328.875 270.744 325.889 273.36 Q322.926 275.976 317.116 275.976 L311.236 275.976 L311.236 289.865 L306.56 289.865 L306.56 255.305 Z" fill="#000000" fill-rule="evenodd" fill-opacity="1" /><path clip-path="url(#clip240)" d="M355.866 256.439 L355.866 260.999 Q353.204 259.726 350.842 259.101 Q348.481 258.476 346.282 258.476 Q342.463 258.476 340.38 259.957 Q338.319 261.439 338.319 264.17 Q338.319 266.462 339.685 267.643 Q341.074 268.8 344.917 269.518 L347.741 270.096 Q352.972 271.092 355.449 273.615 Q357.949 276.115 357.949 280.328 Q357.949 285.351 354.569 287.943 Q351.213 290.536 344.708 290.536 Q342.255 290.536 339.477 289.98 Q336.722 289.425 333.759 288.337 L333.759 283.522 Q336.606 285.119 339.338 285.929 Q342.069 286.74 344.708 286.74 Q348.713 286.74 350.889 285.166 Q353.065 283.592 353.065 280.675 Q353.065 278.129 351.491 276.693 Q349.94 275.258 346.375 274.541 L343.528 273.985 Q338.296 272.943 335.958 270.721 Q333.62 268.499 333.62 264.541 Q333.62 259.957 336.838 257.319 Q340.079 254.68 345.75 254.68 Q348.18 254.68 350.704 255.119 Q353.227 255.559 355.866 256.439 Z" fill="#000000" fill-rule="evenodd" fill-opacity="1" /><path clip-path="url(#clip240)" d="M379.268 258.476 Q374.176 258.476 371.166 262.272 Q368.18 266.068 368.18 272.619 Q368.18 279.147 371.166 282.943 Q374.176 286.74 379.268 286.74 Q384.361 286.74 387.324 282.943 Q390.31 279.147 390.31 272.619 Q390.31 266.068 387.324 262.272 Q384.361 258.476 379.268 258.476 M379.268 254.68 Q386.537 254.68 390.889 259.564 Q395.24 264.425 395.24 272.619 Q395.24 280.791 390.889 285.675 Q386.537 290.536 379.268 290.536 Q371.977 290.536 367.602 285.675 Q363.25 280.814 363.25 272.619 Q363.25 264.425 367.602 259.564 Q371.977 254.68 379.268 254.68 Z" fill="#000000" fill-rule="evenodd" fill-opacity="1" /></svg>
