<?xml version="1.0" encoding="utf-8"?>
<svg xmlns="http://www.w3.org/2000/svg" xmlns:xlink="http://www.w3.org/1999/xlink" width="600" height="400" viewBox="0 0 2400 1600">
<defs>
  <clipPath id="clip730">
    <rect x="0" y="0" width="2400" height="1600"/>
  </clipPath>
</defs>
<path clip-path="url(#clip730)" d="
M0 1600 L2400 1600 L2400 0 L0 0  Z
  " fill="#ffffff" fill-rule="evenodd" fill-opacity="1"/>
<defs>
  <clipPath id="clip731">
    <rect x="480" y="0" width="1681" height="1600"/>
  </clipPath>
</defs>
<path clip-path="url(#clip730)" d="
M766.951 1486.45 L2352.76 1486.45 L2352.76 123.472 L766.951 123.472  Z
  " fill="#ffffff" fill-rule="evenodd" fill-opacity="1"/>
<defs>
  <clipPath id="clip732">
    <rect x="766" y="123" width="1587" height="1364"/>
  </clipPath>
</defs>
<polyline clip-path="url(#clip732)" style="stroke:#000000; stroke-linecap:butt; stroke-linejoin:round; stroke-width:2; stroke-opacity:0.1; fill:none" points="
  811.832,1486.45 811.832,123.472 
  "/>
<polyline clip-path="url(#clip732)" style="stroke:#000000; stroke-linecap:butt; stroke-linejoin:round; stroke-width:2; stroke-opacity:0.1; fill:none" points="
  1311.22,1486.45 1311.22,123.472 
  "/>
<polyline clip-path="url(#clip732)" style="stroke:#000000; stroke-linecap:butt; stroke-linejoin:round; stroke-width:2; stroke-opacity:0.1; fill:none" points="
  1810.61,1486.45 1810.61,123.472 
  "/>
<polyline clip-path="url(#clip732)" style="stroke:#000000; stroke-linecap:butt; stroke-linejoin:round; stroke-width:2; stroke-opacity:0.1; fill:none" points="
  2310.01,1486.45 2310.01,123.472 
  "/>
<polyline clip-path="url(#clip730)" style="stroke:#000000; stroke-linecap:butt; stroke-linejoin:round; stroke-width:4; stroke-opacity:1; fill:none" points="
  766.951,1486.45 2352.76,1486.45 
  "/>
<polyline clip-path="url(#clip730)" style="stroke:#000000; stroke-linecap:butt; stroke-linejoin:round; stroke-width:4; stroke-opacity:1; fill:none" points="
  811.832,1486.45 811.832,1467.55 
  "/>
<polyline clip-path="url(#clip730)" style="stroke:#000000; stroke-linecap:butt; stroke-linejoin:round; stroke-width:4; stroke-opacity:1; fill:none" points="
  1311.22,1486.45 1311.22,1467.55 
  "/>
<polyline clip-path="url(#clip730)" style="stroke:#000000; stroke-linecap:butt; stroke-linejoin:round; stroke-width:4; stroke-opacity:1; fill:none" points="
  1810.61,1486.45 1810.61,1467.55 
  "/>
<polyline clip-path="url(#clip730)" style="stroke:#000000; stroke-linecap:butt; stroke-linejoin:round; stroke-width:4; stroke-opacity:1; fill:none" points="
  2310.01,1486.45 2310.01,1467.55 
  "/>
<path clip-path="url(#clip730)" d="M811.832 1517.37 Q808.221 1517.37 806.392 1520.93 Q804.587 1524.47 804.587 1531.6 Q804.587 1538.71 806.392 1542.27 Q808.221 1545.82 811.832 1545.82 Q815.466 1545.82 817.272 1542.27 Q819.101 1538.71 819.101 1531.6 Q819.101 1524.47 817.272 1520.93 Q815.466 1517.37 811.832 1517.37 M811.832 1513.66 Q817.642 1513.66 820.698 1518.27 Q823.776 1522.85 823.776 1531.6 Q823.776 1540.33 820.698 1544.94 Q817.642 1549.52 811.832 1549.52 Q806.022 1549.52 802.943 1544.94 Q799.888 1540.33 799.888 1531.6 Q799.888 1522.85 802.943 1518.27 Q806.022 1513.66 811.832 1513.66 Z" fill="#000000" fill-rule="evenodd" fill-opacity="1" /><path clip-path="url(#clip730)" d="M1301.61 1544.91 L1309.24 1544.91 L1309.24 1518.55 L1300.93 1520.21 L1300.93 1515.95 L1309.2 1514.29 L1313.87 1514.29 L1313.87 1544.91 L1321.51 1544.91 L1321.51 1548.85 L1301.61 1548.85 L1301.61 1544.91 Z" fill="#000000" fill-rule="evenodd" fill-opacity="1" /><path clip-path="url(#clip730)" d="M1805.27 1544.91 L1821.59 1544.91 L1821.59 1548.85 L1799.64 1548.85 L1799.64 1544.91 Q1802.3 1542.16 1806.89 1537.53 Q1811.49 1532.88 1812.67 1531.53 Q1814.92 1529.01 1815.8 1527.27 Q1816.7 1525.51 1816.7 1523.82 Q1816.7 1521.07 1814.76 1519.33 Q1812.84 1517.6 1809.74 1517.6 Q1807.54 1517.6 1805.08 1518.36 Q1802.65 1519.13 1799.87 1520.68 L1799.87 1515.95 Q1802.7 1514.82 1805.15 1514.24 Q1807.61 1513.66 1809.64 1513.66 Q1815.01 1513.66 1818.21 1516.35 Q1821.4 1519.03 1821.4 1523.52 Q1821.4 1525.65 1820.59 1527.57 Q1819.8 1529.47 1817.7 1532.07 Q1817.12 1532.74 1814.02 1535.95 Q1810.92 1539.15 1805.27 1544.91 Z" fill="#000000" fill-rule="evenodd" fill-opacity="1" /><path clip-path="url(#clip730)" d="M2314.25 1530.21 Q2317.61 1530.93 2319.49 1533.2 Q2321.38 1535.47 2321.38 1538.8 Q2321.38 1543.92 2317.86 1546.72 Q2314.35 1549.52 2307.86 1549.52 Q2305.69 1549.52 2303.37 1549.08 Q2301.08 1548.66 2298.63 1547.81 L2298.63 1543.29 Q2300.57 1544.43 2302.89 1545.01 Q2305.2 1545.58 2307.73 1545.58 Q2312.12 1545.58 2314.42 1543.85 Q2316.73 1542.11 2316.73 1538.8 Q2316.73 1535.75 2314.58 1534.03 Q2312.45 1532.3 2308.63 1532.3 L2304.6 1532.3 L2304.6 1528.45 L2308.81 1528.45 Q2312.26 1528.45 2314.09 1527.09 Q2315.92 1525.7 2315.92 1523.11 Q2315.92 1520.45 2314.02 1519.03 Q2312.15 1517.6 2308.63 1517.6 Q2306.71 1517.6 2304.51 1518.01 Q2302.31 1518.43 2299.67 1519.31 L2299.67 1515.14 Q2302.33 1514.4 2304.65 1514.03 Q2306.99 1513.66 2309.05 1513.66 Q2314.37 1513.66 2317.47 1516.09 Q2320.57 1518.5 2320.57 1522.62 Q2320.57 1525.49 2318.93 1527.48 Q2317.29 1529.45 2314.25 1530.21 Z" fill="#000000" fill-rule="evenodd" fill-opacity="1" /><polyline clip-path="url(#clip732)" style="stroke:#000000; stroke-linecap:butt; stroke-linejoin:round; stroke-width:2; stroke-opacity:0.1; fill:none" points="
  766.951,1445.16 2352.76,1445.16 
  "/>
<polyline clip-path="url(#clip732)" style="stroke:#000000; stroke-linecap:butt; stroke-linejoin:round; stroke-width:2; stroke-opacity:0.1; fill:none" points="
  766.951,1242.68 2352.76,1242.68 
  "/>
<polyline clip-path="url(#clip732)" style="stroke:#000000; stroke-linecap:butt; stroke-linejoin:round; stroke-width:2; stroke-opacity:0.1; fill:none" points="
  766.951,1040.21 2352.76,1040.21 
  "/>
<polyline clip-path="url(#clip732)" style="stroke:#000000; stroke-linecap:butt; stroke-linejoin:round; stroke-width:2; stroke-opacity:0.1; fill:none" points="
  766.951,837.736 2352.76,837.736 
  "/>
<polyline clip-path="url(#clip732)" style="stroke:#000000; stroke-linecap:butt; stroke-linejoin:round; stroke-width:2; stroke-opacity:0.1; fill:none" points="
  766.951,635.262 2352.76,635.262 
  "/>
<polyline clip-path="url(#clip732)" style="stroke:#000000; stroke-linecap:butt; stroke-linejoin:round; stroke-width:2; stroke-opacity:0.1; fill:none" points="
  766.951,432.789 2352.76,432.789 
  "/>
<polyline clip-path="url(#clip732)" style="stroke:#000000; stroke-linecap:butt; stroke-linejoin:round; stroke-width:2; stroke-opacity:0.1; fill:none" points="
  766.951,230.316 2352.76,230.316 
  "/>
<polyline clip-path="url(#clip730)" style="stroke:#000000; stroke-linecap:butt; stroke-linejoin:round; stroke-width:4; stroke-opacity:1; fill:none" points="
  766.951,1486.45 766.951,123.472 
  "/>
<polyline clip-path="url(#clip730)" style="stroke:#000000; stroke-linecap:butt; stroke-linejoin:round; stroke-width:4; stroke-opacity:1; fill:none" points="
  766.951,1445.16 780.979,1445.16 
  "/>
<polyline clip-path="url(#clip730)" style="stroke:#000000; stroke-linecap:butt; stroke-linejoin:round; stroke-width:4; stroke-opacity:1; fill:none" points="
  766.951,1242.68 780.979,1242.68 
  "/>
<polyline clip-path="url(#clip730)" style="stroke:#000000; stroke-linecap:butt; stroke-linejoin:round; stroke-width:4; stroke-opacity:1; fill:none" points="
  766.951,1040.21 780.979,1040.21 
  "/>
<polyline clip-path="url(#clip730)" style="stroke:#000000; stroke-linecap:butt; stroke-linejoin:round; stroke-width:4; stroke-opacity:1; fill:none" points="
  766.951,837.736 780.979,837.736 
  "/>
<polyline clip-path="url(#clip730)" style="stroke:#000000; stroke-linecap:butt; stroke-linejoin:round; stroke-width:4; stroke-opacity:1; fill:none" points="
  766.951,635.262 780.979,635.262 
  "/>
<polyline clip-path="url(#clip730)" style="stroke:#000000; stroke-linecap:butt; stroke-linejoin:round; stroke-width:4; stroke-opacity:1; fill:none" points="
  766.951,432.789 780.979,432.789 
  "/>
<polyline clip-path="url(#clip730)" style="stroke:#000000; stroke-linecap:butt; stroke-linejoin:round; stroke-width:4; stroke-opacity:1; fill:none" points="
  766.951,230.316 780.979,230.316 
  "/>
<path clip-path="url(#clip730)" d="M614.447 1430.95 Q610.836 1430.95 609.007 1434.52 Q607.201 1438.06 607.201 1445.19 Q607.201 1452.3 609.007 1455.86 Q610.836 1459.4 614.447 1459.4 Q618.081 1459.4 619.887 1455.86 Q621.715 1452.3 621.715 1445.19 Q621.715 1438.06 619.887 1434.52 Q618.081 1430.95 614.447 1430.95 M614.447 1427.25 Q620.257 1427.25 623.313 1431.86 Q626.391 1436.44 626.391 1445.19 Q626.391 1453.92 623.313 1458.52 Q620.257 1463.11 614.447 1463.11 Q608.637 1463.11 605.558 1458.52 Q602.502 1453.92 602.502 1445.19 Q602.502 1436.44 605.558 1431.86 Q608.637 1427.25 614.447 1427.25 Z" fill="#000000" fill-rule="evenodd" fill-opacity="1" /><path clip-path="url(#clip730)" d="M634.609 1456.56 L639.493 1456.56 L639.493 1462.44 L634.609 1462.44 L634.609 1456.56 Z" fill="#000000" fill-rule="evenodd" fill-opacity="1" /><path clip-path="url(#clip730)" d="M649.724 1427.88 L668.081 1427.88 L668.081 1431.81 L654.007 1431.81 L654.007 1440.28 Q655.025 1439.94 656.044 1439.77 Q657.062 1439.59 658.081 1439.59 Q663.868 1439.59 667.247 1442.76 Q670.627 1445.93 670.627 1451.35 Q670.627 1456.93 667.155 1460.03 Q663.683 1463.11 657.363 1463.11 Q655.187 1463.11 652.919 1462.74 Q650.673 1462.37 648.266 1461.63 L648.266 1456.93 Q650.349 1458.06 652.572 1458.62 Q654.794 1459.17 657.271 1459.17 Q661.275 1459.17 663.613 1457.06 Q665.951 1454.96 665.951 1451.35 Q665.951 1447.74 663.613 1445.63 Q661.275 1443.52 657.271 1443.52 Q655.396 1443.52 653.521 1443.94 Q651.669 1444.36 649.724 1445.24 L649.724 1427.88 Z" fill="#000000" fill-rule="evenodd" fill-opacity="1" /><path clip-path="url(#clip730)" d="M690.419 1443.29 Q687.27 1443.29 685.419 1445.44 Q683.59 1447.6 683.59 1451.35 Q683.59 1455.07 685.419 1457.25 Q687.27 1459.4 690.419 1459.4 Q693.567 1459.4 695.395 1457.25 Q697.247 1455.07 697.247 1451.35 Q697.247 1447.6 695.395 1445.44 Q693.567 1443.29 690.419 1443.29 M699.701 1428.64 L699.701 1432.9 Q697.942 1432.07 696.136 1431.63 Q694.354 1431.19 692.595 1431.19 Q687.965 1431.19 685.511 1434.31 Q683.081 1437.44 682.733 1443.75 Q684.099 1441.74 686.159 1440.68 Q688.22 1439.59 690.696 1439.59 Q695.905 1439.59 698.914 1442.76 Q701.946 1445.91 701.946 1451.35 Q701.946 1456.67 698.798 1459.89 Q695.65 1463.11 690.419 1463.11 Q684.423 1463.11 681.252 1458.52 Q678.081 1453.92 678.081 1445.19 Q678.081 1437 681.97 1432.13 Q685.858 1427.25 692.409 1427.25 Q694.169 1427.25 695.951 1427.6 Q697.757 1427.94 699.701 1428.64 Z" fill="#000000" fill-rule="evenodd" fill-opacity="1" /><path clip-path="url(#clip730)" d="M710.048 1427.88 L728.405 1427.88 L728.405 1431.81 L714.331 1431.81 L714.331 1440.28 Q715.349 1439.94 716.368 1439.77 Q717.386 1439.59 718.405 1439.59 Q724.192 1439.59 727.571 1442.76 Q730.951 1445.93 730.951 1451.35 Q730.951 1456.93 727.479 1460.03 Q724.006 1463.11 717.687 1463.11 Q715.511 1463.11 713.243 1462.74 Q710.997 1462.37 708.59 1461.63 L708.59 1456.93 Q710.673 1458.06 712.895 1458.62 Q715.118 1459.17 717.594 1459.17 Q721.599 1459.17 723.937 1457.06 Q726.275 1454.96 726.275 1451.35 Q726.275 1447.74 723.937 1445.63 Q721.599 1443.52 717.594 1443.52 Q715.719 1443.52 713.844 1443.94 Q711.993 1444.36 710.048 1445.24 L710.048 1427.88 Z" fill="#000000" fill-rule="evenodd" fill-opacity="1" /><path clip-path="url(#clip730)" d="M613.451 1228.48 Q609.84 1228.48 608.012 1232.05 Q606.206 1235.59 606.206 1242.72 Q606.206 1249.82 608.012 1253.39 Q609.84 1256.93 613.451 1256.93 Q617.086 1256.93 618.891 1253.39 Q620.72 1249.82 620.72 1242.72 Q620.72 1235.59 618.891 1232.05 Q617.086 1228.48 613.451 1228.48 M613.451 1224.78 Q619.262 1224.78 622.317 1229.38 Q625.396 1233.97 625.396 1242.72 Q625.396 1251.44 622.317 1256.05 Q619.262 1260.63 613.451 1260.63 Q607.641 1260.63 604.563 1256.05 Q601.507 1251.44 601.507 1242.72 Q601.507 1233.97 604.563 1229.38 Q607.641 1224.78 613.451 1224.78 Z" fill="#000000" fill-rule="evenodd" fill-opacity="1" /><path clip-path="url(#clip730)" d="M633.613 1254.08 L638.498 1254.08 L638.498 1259.96 L633.613 1259.96 L633.613 1254.08 Z" fill="#000000" fill-rule="evenodd" fill-opacity="1" /><path clip-path="url(#clip730)" d="M648.729 1225.4 L667.085 1225.4 L667.085 1229.34 L653.011 1229.34 L653.011 1237.81 Q654.03 1237.46 655.048 1237.3 Q656.067 1237.12 657.085 1237.12 Q662.872 1237.12 666.252 1240.29 Q669.632 1243.46 669.632 1248.87 Q669.632 1254.45 666.159 1257.55 Q662.687 1260.63 656.368 1260.63 Q654.192 1260.63 651.923 1260.26 Q649.678 1259.89 647.271 1259.15 L647.271 1254.45 Q649.354 1255.59 651.576 1256.14 Q653.798 1256.7 656.275 1256.7 Q660.28 1256.7 662.618 1254.59 Q664.956 1252.49 664.956 1248.87 Q664.956 1245.26 662.618 1243.16 Q660.28 1241.05 656.275 1241.05 Q654.4 1241.05 652.525 1241.47 Q650.673 1241.88 648.729 1242.76 L648.729 1225.4 Z" fill="#000000" fill-rule="evenodd" fill-opacity="1" /><path clip-path="url(#clip730)" d="M677.664 1225.4 L699.886 1225.4 L699.886 1227.39 L687.34 1259.96 L682.456 1259.96 L694.261 1229.34 L677.664 1229.34 L677.664 1225.4 Z" fill="#000000" fill-rule="evenodd" fill-opacity="1" /><path clip-path="url(#clip730)" d="M719.006 1228.48 Q715.395 1228.48 713.567 1232.05 Q711.761 1235.59 711.761 1242.72 Q711.761 1249.82 713.567 1253.39 Q715.395 1256.93 719.006 1256.93 Q722.641 1256.93 724.446 1253.39 Q726.275 1249.82 726.275 1242.72 Q726.275 1235.59 724.446 1232.05 Q722.641 1228.48 719.006 1228.48 M719.006 1224.78 Q724.817 1224.78 727.872 1229.38 Q730.951 1233.97 730.951 1242.72 Q730.951 1251.44 727.872 1256.05 Q724.817 1260.63 719.006 1260.63 Q713.196 1260.63 710.118 1256.05 Q707.062 1251.44 707.062 1242.72 Q707.062 1233.97 710.118 1229.38 Q713.196 1224.78 719.006 1224.78 Z" fill="#000000" fill-rule="evenodd" fill-opacity="1" /><path clip-path="url(#clip730)" d="M614.447 1026.01 Q610.836 1026.01 609.007 1029.57 Q607.201 1033.11 607.201 1040.24 Q607.201 1047.35 609.007 1050.91 Q610.836 1054.46 614.447 1054.46 Q618.081 1054.46 619.887 1050.91 Q621.715 1047.35 621.715 1040.24 Q621.715 1033.11 619.887 1029.57 Q618.081 1026.01 614.447 1026.01 M614.447 1022.3 Q620.257 1022.3 623.313 1026.91 Q626.391 1031.49 626.391 1040.24 Q626.391 1048.97 623.313 1053.58 Q620.257 1058.16 614.447 1058.16 Q608.637 1058.16 605.558 1053.58 Q602.502 1048.97 602.502 1040.24 Q602.502 1031.49 605.558 1026.91 Q608.637 1022.3 614.447 1022.3 Z" fill="#000000" fill-rule="evenodd" fill-opacity="1" /><path clip-path="url(#clip730)" d="M634.609 1051.61 L639.493 1051.61 L639.493 1057.49 L634.609 1057.49 L634.609 1051.61 Z" fill="#000000" fill-rule="evenodd" fill-opacity="1" /><path clip-path="url(#clip730)" d="M649.724 1022.93 L668.081 1022.93 L668.081 1026.86 L654.007 1026.86 L654.007 1035.34 Q655.025 1034.99 656.044 1034.83 Q657.062 1034.64 658.081 1034.64 Q663.868 1034.64 667.247 1037.81 Q670.627 1040.98 670.627 1046.4 Q670.627 1051.98 667.155 1055.08 Q663.683 1058.16 657.363 1058.16 Q655.187 1058.16 652.919 1057.79 Q650.673 1057.42 648.266 1056.68 L648.266 1051.98 Q650.349 1053.11 652.572 1053.67 Q654.794 1054.23 657.271 1054.23 Q661.275 1054.23 663.613 1052.12 Q665.951 1050.01 665.951 1046.4 Q665.951 1042.79 663.613 1040.68 Q661.275 1038.58 657.271 1038.58 Q655.396 1038.58 653.521 1038.99 Q651.669 1039.41 649.724 1040.29 L649.724 1022.93 Z" fill="#000000" fill-rule="evenodd" fill-opacity="1" /><path clip-path="url(#clip730)" d="M678.659 1022.93 L700.882 1022.93 L700.882 1024.92 L688.335 1057.49 L683.451 1057.49 L695.257 1026.86 L678.659 1026.86 L678.659 1022.93 Z" fill="#000000" fill-rule="evenodd" fill-opacity="1" /><path clip-path="url(#clip730)" d="M710.048 1022.93 L728.405 1022.93 L728.405 1026.86 L714.331 1026.86 L714.331 1035.34 Q715.349 1034.99 716.368 1034.83 Q717.386 1034.64 718.405 1034.64 Q724.192 1034.64 727.571 1037.81 Q730.951 1040.98 730.951 1046.4 Q730.951 1051.98 727.479 1055.08 Q724.006 1058.16 717.687 1058.16 Q715.511 1058.16 713.243 1057.79 Q710.997 1057.42 708.59 1056.68 L708.59 1051.98 Q710.673 1053.11 712.895 1053.67 Q715.118 1054.23 717.594 1054.23 Q721.599 1054.23 723.937 1052.12 Q726.275 1050.01 726.275 1046.4 Q726.275 1042.79 723.937 1040.68 Q721.599 1038.58 717.594 1038.58 Q715.719 1038.58 713.844 1038.99 Q711.993 1039.41 710.048 1040.29 L710.048 1022.93 Z" fill="#000000" fill-rule="evenodd" fill-opacity="1" /><path clip-path="url(#clip730)" d="M613.451 823.534 Q609.84 823.534 608.012 827.099 Q606.206 830.641 606.206 837.77 Q606.206 844.877 608.012 848.442 Q609.84 851.983 613.451 851.983 Q617.086 851.983 618.891 848.442 Q620.72 844.877 620.72 837.77 Q620.72 830.641 618.891 827.099 Q617.086 823.534 613.451 823.534 M613.451 819.831 Q619.262 819.831 622.317 824.437 Q625.396 829.02 625.396 837.77 Q625.396 846.497 622.317 851.104 Q619.262 855.687 613.451 855.687 Q607.641 855.687 604.563 851.104 Q601.507 846.497 601.507 837.77 Q601.507 829.02 604.563 824.437 Q607.641 819.831 613.451 819.831 Z" fill="#000000" fill-rule="evenodd" fill-opacity="1" /><path clip-path="url(#clip730)" d="M633.613 849.136 L638.498 849.136 L638.498 855.016 L633.613 855.016 L633.613 849.136 Z" fill="#000000" fill-rule="evenodd" fill-opacity="1" /><path clip-path="url(#clip730)" d="M648.729 820.456 L667.085 820.456 L667.085 824.391 L653.011 824.391 L653.011 832.863 Q654.03 832.516 655.048 832.354 Q656.067 832.169 657.085 832.169 Q662.872 832.169 666.252 835.34 Q669.632 838.511 669.632 843.928 Q669.632 849.506 666.159 852.608 Q662.687 855.687 656.368 855.687 Q654.192 855.687 651.923 855.317 Q649.678 854.946 647.271 854.205 L647.271 849.506 Q649.354 850.641 651.576 851.196 Q653.798 851.752 656.275 851.752 Q660.28 851.752 662.618 849.645 Q664.956 847.539 664.956 843.928 Q664.956 840.317 662.618 838.21 Q660.28 836.104 656.275 836.104 Q654.4 836.104 652.525 836.52 Q650.673 836.937 648.729 837.817 L648.729 820.456 Z" fill="#000000" fill-rule="evenodd" fill-opacity="1" /><path clip-path="url(#clip730)" d="M688.845 838.604 Q685.511 838.604 683.59 840.386 Q681.692 842.169 681.692 845.293 Q681.692 848.418 683.59 850.201 Q685.511 851.983 688.845 851.983 Q692.178 851.983 694.099 850.201 Q696.02 848.395 696.02 845.293 Q696.02 842.169 694.099 840.386 Q692.201 838.604 688.845 838.604 M684.169 836.613 Q681.159 835.872 679.47 833.812 Q677.803 831.752 677.803 828.789 Q677.803 824.645 680.743 822.238 Q683.706 819.831 688.845 819.831 Q694.007 819.831 696.946 822.238 Q699.886 824.645 699.886 828.789 Q699.886 831.752 698.196 833.812 Q696.53 835.872 693.544 836.613 Q696.923 837.4 698.798 839.692 Q700.696 841.983 700.696 845.293 Q700.696 850.317 697.618 853.002 Q694.562 855.687 688.845 855.687 Q683.127 855.687 680.048 853.002 Q676.993 850.317 676.993 845.293 Q676.993 841.983 678.891 839.692 Q680.789 837.4 684.169 836.613 M682.456 829.229 Q682.456 831.914 684.122 833.419 Q685.812 834.923 688.845 834.923 Q691.854 834.923 693.544 833.419 Q695.257 831.914 695.257 829.229 Q695.257 826.544 693.544 825.039 Q691.854 823.534 688.845 823.534 Q685.812 823.534 684.122 825.039 Q682.456 826.544 682.456 829.229 Z" fill="#000000" fill-rule="evenodd" fill-opacity="1" /><path clip-path="url(#clip730)" d="M719.006 823.534 Q715.395 823.534 713.567 827.099 Q711.761 830.641 711.761 837.77 Q711.761 844.877 713.567 848.442 Q715.395 851.983 719.006 851.983 Q722.641 851.983 724.446 848.442 Q726.275 844.877 726.275 837.77 Q726.275 830.641 724.446 827.099 Q722.641 823.534 719.006 823.534 M719.006 819.831 Q724.817 819.831 727.872 824.437 Q730.951 829.02 730.951 837.77 Q730.951 846.497 727.872 851.104 Q724.817 855.687 719.006 855.687 Q713.196 855.687 710.118 851.104 Q707.062 846.497 707.062 837.77 Q707.062 829.02 710.118 824.437 Q713.196 819.831 719.006 819.831 Z" fill="#000000" fill-rule="evenodd" fill-opacity="1" /><path clip-path="url(#clip730)" d="M614.447 621.061 Q610.836 621.061 609.007 624.626 Q607.201 628.168 607.201 635.297 Q607.201 642.404 609.007 645.968 Q610.836 649.51 614.447 649.51 Q618.081 649.51 619.887 645.968 Q621.715 642.404 621.715 635.297 Q621.715 628.168 619.887 624.626 Q618.081 621.061 614.447 621.061 M614.447 617.357 Q620.257 617.357 623.313 621.964 Q626.391 626.547 626.391 635.297 Q626.391 644.024 623.313 648.63 Q620.257 653.214 614.447 653.214 Q608.637 653.214 605.558 648.63 Q602.502 644.024 602.502 635.297 Q602.502 626.547 605.558 621.964 Q608.637 617.357 614.447 617.357 Z" fill="#000000" fill-rule="evenodd" fill-opacity="1" /><path clip-path="url(#clip730)" d="M634.609 646.663 L639.493 646.663 L639.493 652.542 L634.609 652.542 L634.609 646.663 Z" fill="#000000" fill-rule="evenodd" fill-opacity="1" /><path clip-path="url(#clip730)" d="M649.724 617.982 L668.081 617.982 L668.081 621.918 L654.007 621.918 L654.007 630.39 Q655.025 630.043 656.044 629.881 Q657.062 629.695 658.081 629.695 Q663.868 629.695 667.247 632.867 Q670.627 636.038 670.627 641.455 Q670.627 647.033 667.155 650.135 Q663.683 653.214 657.363 653.214 Q655.187 653.214 652.919 652.843 Q650.673 652.473 648.266 651.732 L648.266 647.033 Q650.349 648.167 652.572 648.723 Q654.794 649.279 657.271 649.279 Q661.275 649.279 663.613 647.172 Q665.951 645.066 665.951 641.455 Q665.951 637.843 663.613 635.737 Q661.275 633.63 657.271 633.63 Q655.396 633.63 653.521 634.047 Q651.669 634.464 649.724 635.343 L649.724 617.982 Z" fill="#000000" fill-rule="evenodd" fill-opacity="1" /><path clip-path="url(#clip730)" d="M689.84 636.13 Q686.507 636.13 684.585 637.913 Q682.687 639.695 682.687 642.82 Q682.687 645.945 684.585 647.728 Q686.507 649.51 689.84 649.51 Q693.173 649.51 695.095 647.728 Q697.016 645.922 697.016 642.82 Q697.016 639.695 695.095 637.913 Q693.196 636.13 689.84 636.13 M685.164 634.14 Q682.155 633.399 680.465 631.339 Q678.798 629.279 678.798 626.316 Q678.798 622.172 681.738 619.765 Q684.701 617.357 689.84 617.357 Q695.002 617.357 697.942 619.765 Q700.882 622.172 700.882 626.316 Q700.882 629.279 699.192 631.339 Q697.525 633.399 694.539 634.14 Q697.919 634.927 699.794 637.218 Q701.692 639.51 701.692 642.82 Q701.692 647.843 698.613 650.529 Q695.557 653.214 689.84 653.214 Q684.122 653.214 681.044 650.529 Q677.988 647.843 677.988 642.82 Q677.988 639.51 679.886 637.218 Q681.784 634.927 685.164 634.14 M683.451 626.756 Q683.451 629.441 685.118 630.945 Q686.808 632.45 689.84 632.45 Q692.849 632.45 694.539 630.945 Q696.252 629.441 696.252 626.756 Q696.252 624.07 694.539 622.566 Q692.849 621.061 689.84 621.061 Q686.808 621.061 685.118 622.566 Q683.451 624.07 683.451 626.756 Z" fill="#000000" fill-rule="evenodd" fill-opacity="1" /><path clip-path="url(#clip730)" d="M710.048 617.982 L728.405 617.982 L728.405 621.918 L714.331 621.918 L714.331 630.39 Q715.349 630.043 716.368 629.881 Q717.386 629.695 718.405 629.695 Q724.192 629.695 727.571 632.867 Q730.951 636.038 730.951 641.455 Q730.951 647.033 727.479 650.135 Q724.006 653.214 717.687 653.214 Q715.511 653.214 713.243 652.843 Q710.997 652.473 708.59 651.732 L708.59 647.033 Q710.673 648.167 712.895 648.723 Q715.118 649.279 717.594 649.279 Q721.599 649.279 723.937 647.172 Q726.275 645.066 726.275 641.455 Q726.275 637.843 723.937 635.737 Q721.599 633.63 717.594 633.63 Q715.719 633.63 713.844 634.047 Q711.993 634.464 710.048 635.343 L710.048 617.982 Z" fill="#000000" fill-rule="evenodd" fill-opacity="1" /><path clip-path="url(#clip730)" d="M613.451 418.588 Q609.84 418.588 608.012 422.153 Q606.206 425.694 606.206 432.824 Q606.206 439.93 608.012 443.495 Q609.84 447.037 613.451 447.037 Q617.086 447.037 618.891 443.495 Q620.72 439.93 620.72 432.824 Q620.72 425.694 618.891 422.153 Q617.086 418.588 613.451 418.588 M613.451 414.884 Q619.262 414.884 622.317 419.491 Q625.396 424.074 625.396 432.824 Q625.396 441.551 622.317 446.157 Q619.262 450.74 613.451 450.74 Q607.641 450.74 604.563 446.157 Q601.507 441.551 601.507 432.824 Q601.507 424.074 604.563 419.491 Q607.641 414.884 613.451 414.884 Z" fill="#000000" fill-rule="evenodd" fill-opacity="1" /><path clip-path="url(#clip730)" d="M633.613 444.19 L638.498 444.19 L638.498 450.069 L633.613 450.069 L633.613 444.19 Z" fill="#000000" fill-rule="evenodd" fill-opacity="1" /><path clip-path="url(#clip730)" d="M648.729 415.509 L667.085 415.509 L667.085 419.444 L653.011 419.444 L653.011 427.917 Q654.03 427.569 655.048 427.407 Q656.067 427.222 657.085 427.222 Q662.872 427.222 666.252 430.393 Q669.632 433.565 669.632 438.981 Q669.632 444.56 666.159 447.662 Q662.687 450.74 656.368 450.74 Q654.192 450.74 651.923 450.37 Q649.678 450 647.271 449.259 L647.271 444.56 Q649.354 445.694 651.576 446.25 Q653.798 446.805 656.275 446.805 Q660.28 446.805 662.618 444.699 Q664.956 442.592 664.956 438.981 Q664.956 435.37 662.618 433.264 Q660.28 431.157 656.275 431.157 Q654.4 431.157 652.525 431.574 Q650.673 431.991 648.729 432.87 L648.729 415.509 Z" fill="#000000" fill-rule="evenodd" fill-opacity="1" /><path clip-path="url(#clip730)" d="M678.984 449.352 L678.984 445.092 Q680.743 445.926 682.548 446.366 Q684.354 446.805 686.09 446.805 Q690.72 446.805 693.15 443.703 Q695.604 440.579 695.951 434.236 Q694.608 436.227 692.548 437.291 Q690.488 438.356 687.988 438.356 Q682.803 438.356 679.771 435.231 Q676.761 432.083 676.761 426.643 Q676.761 421.319 679.909 418.102 Q683.058 414.884 688.289 414.884 Q694.284 414.884 697.432 419.491 Q700.604 424.074 700.604 432.824 Q700.604 440.995 696.715 445.879 Q692.849 450.74 686.298 450.74 Q684.539 450.74 682.733 450.393 Q680.928 450.046 678.984 449.352 M688.289 434.699 Q691.437 434.699 693.266 432.546 Q695.118 430.393 695.118 426.643 Q695.118 422.917 693.266 420.764 Q691.437 418.588 688.289 418.588 Q685.141 418.588 683.289 420.764 Q681.46 422.917 681.46 426.643 Q681.46 430.393 683.289 432.546 Q685.141 434.699 688.289 434.699 Z" fill="#000000" fill-rule="evenodd" fill-opacity="1" /><path clip-path="url(#clip730)" d="M719.006 418.588 Q715.395 418.588 713.567 422.153 Q711.761 425.694 711.761 432.824 Q711.761 439.93 713.567 443.495 Q715.395 447.037 719.006 447.037 Q722.641 447.037 724.446 443.495 Q726.275 439.93 726.275 432.824 Q726.275 425.694 724.446 422.153 Q722.641 418.588 719.006 418.588 M719.006 414.884 Q724.817 414.884 727.872 419.491 Q730.951 424.074 730.951 432.824 Q730.951 441.551 727.872 446.157 Q724.817 450.74 719.006 450.74 Q713.196 450.74 710.118 446.157 Q707.062 441.551 707.062 432.824 Q707.062 424.074 710.118 419.491 Q713.196 414.884 719.006 414.884 Z" fill="#000000" fill-rule="evenodd" fill-opacity="1" /><path clip-path="url(#clip730)" d="M614.447 216.115 Q610.836 216.115 609.007 219.679 Q607.201 223.221 607.201 230.351 Q607.201 237.457 609.007 241.022 Q610.836 244.564 614.447 244.564 Q618.081 244.564 619.887 241.022 Q621.715 237.457 621.715 230.351 Q621.715 223.221 619.887 219.679 Q618.081 216.115 614.447 216.115 M614.447 212.411 Q620.257 212.411 623.313 217.017 Q626.391 221.601 626.391 230.351 Q626.391 239.078 623.313 243.684 Q620.257 248.267 614.447 248.267 Q608.637 248.267 605.558 243.684 Q602.502 239.078 602.502 230.351 Q602.502 221.601 605.558 217.017 Q608.637 212.411 614.447 212.411 Z" fill="#000000" fill-rule="evenodd" fill-opacity="1" /><path clip-path="url(#clip730)" d="M634.609 241.716 L639.493 241.716 L639.493 247.596 L634.609 247.596 L634.609 241.716 Z" fill="#000000" fill-rule="evenodd" fill-opacity="1" /><path clip-path="url(#clip730)" d="M649.724 213.036 L668.081 213.036 L668.081 216.971 L654.007 216.971 L654.007 225.443 Q655.025 225.096 656.044 224.934 Q657.062 224.749 658.081 224.749 Q663.868 224.749 667.247 227.92 Q670.627 231.091 670.627 236.508 Q670.627 242.087 667.155 245.189 Q663.683 248.267 657.363 248.267 Q655.187 248.267 652.919 247.897 Q650.673 247.527 648.266 246.786 L648.266 242.087 Q650.349 243.221 652.572 243.777 Q654.794 244.332 657.271 244.332 Q661.275 244.332 663.613 242.226 Q665.951 240.119 665.951 236.508 Q665.951 232.897 663.613 230.791 Q661.275 228.684 657.271 228.684 Q655.396 228.684 653.521 229.101 Q651.669 229.517 649.724 230.397 L649.724 213.036 Z" fill="#000000" fill-rule="evenodd" fill-opacity="1" /><path clip-path="url(#clip730)" d="M679.979 246.878 L679.979 242.619 Q681.738 243.452 683.544 243.892 Q685.349 244.332 687.085 244.332 Q691.715 244.332 694.145 241.23 Q696.599 238.105 696.946 231.763 Q695.604 233.753 693.544 234.818 Q691.483 235.883 688.983 235.883 Q683.798 235.883 680.766 232.758 Q677.757 229.61 677.757 224.17 Q677.757 218.846 680.905 215.629 Q684.053 212.411 689.284 212.411 Q695.28 212.411 698.428 217.017 Q701.599 221.601 701.599 230.351 Q701.599 238.522 697.71 243.406 Q693.845 248.267 687.294 248.267 Q685.534 248.267 683.729 247.92 Q681.923 247.573 679.979 246.878 M689.284 232.226 Q692.433 232.226 694.261 230.073 Q696.113 227.92 696.113 224.17 Q696.113 220.443 694.261 218.291 Q692.433 216.115 689.284 216.115 Q686.136 216.115 684.284 218.291 Q682.456 220.443 682.456 224.17 Q682.456 227.92 684.284 230.073 Q686.136 232.226 689.284 232.226 Z" fill="#000000" fill-rule="evenodd" fill-opacity="1" /><path clip-path="url(#clip730)" d="M710.048 213.036 L728.405 213.036 L728.405 216.971 L714.331 216.971 L714.331 225.443 Q715.349 225.096 716.368 224.934 Q717.386 224.749 718.405 224.749 Q724.192 224.749 727.571 227.92 Q730.951 231.091 730.951 236.508 Q730.951 242.087 727.479 245.189 Q724.006 248.267 717.687 248.267 Q715.511 248.267 713.243 247.897 Q710.997 247.527 708.59 246.786 L708.59 242.087 Q710.673 243.221 712.895 243.777 Q715.118 244.332 717.594 244.332 Q721.599 244.332 723.937 242.226 Q726.275 240.119 726.275 236.508 Q726.275 232.897 723.937 230.791 Q721.599 228.684 717.594 228.684 Q715.719 228.684 713.844 229.101 Q711.993 229.517 710.048 230.397 L710.048 213.036 Z" fill="#000000" fill-rule="evenodd" fill-opacity="1" /><path clip-path="url(#clip730)" d="M1399.74 20.1573 L1388.64 50.2555 L1410.88 50.2555 L1399.74 20.1573 M1395.12 12.096 L1404.4 12.096 L1427.45 72.576 L1418.94 72.576 L1413.43 57.061 L1386.17 57.061 L1380.66 72.576 L1372.03 72.576 L1395.12 12.096 Z" fill="#000000" fill-rule="evenodd" fill-opacity="1" /><path clip-path="url(#clip730)" d="M1467.15 28.9478 L1467.15 35.9153 Q1463.99 34.1734 1460.79 33.3227 Q1457.63 32.4315 1454.39 32.4315 Q1447.14 32.4315 1443.13 37.0496 Q1439.12 41.6271 1439.12 49.9314 Q1439.12 58.2358 1443.13 62.8538 Q1447.14 67.4314 1454.39 67.4314 Q1457.63 67.4314 1460.79 66.5807 Q1463.99 65.6895 1467.15 63.9476 L1467.15 70.8341 Q1464.03 72.2924 1460.67 73.0216 Q1457.35 73.7508 1453.58 73.7508 Q1443.33 73.7508 1437.29 67.3098 Q1431.26 60.8689 1431.26 49.9314 Q1431.26 38.832 1437.33 32.472 Q1443.45 26.1121 1454.06 26.1121 Q1457.51 26.1121 1460.79 26.8413 Q1464.07 27.5299 1467.15 28.9478 Z" fill="#000000" fill-rule="evenodd" fill-opacity="1" /><path clip-path="url(#clip730)" d="M1512.76 28.9478 L1512.76 35.9153 Q1509.6 34.1734 1506.4 33.3227 Q1503.24 32.4315 1500 32.4315 Q1492.75 32.4315 1488.74 37.0496 Q1484.73 41.6271 1484.73 49.9314 Q1484.73 58.2358 1488.74 62.8538 Q1492.75 67.4314 1500 67.4314 Q1503.24 67.4314 1506.4 66.5807 Q1509.6 65.6895 1512.76 63.9476 L1512.76 70.8341 Q1509.64 72.2924 1506.28 73.0216 Q1502.96 73.7508 1499.19 73.7508 Q1488.94 73.7508 1482.91 67.3098 Q1476.87 60.8689 1476.87 49.9314 Q1476.87 38.832 1482.95 32.472 Q1489.06 26.1121 1499.68 26.1121 Q1503.12 26.1121 1506.4 26.8413 Q1509.68 27.5299 1512.76 28.9478 Z" fill="#000000" fill-rule="evenodd" fill-opacity="1" /><path clip-path="url(#clip730)" d="M1524.95 54.671 L1524.95 27.2059 L1532.41 27.2059 L1532.41 54.3874 Q1532.41 60.8284 1534.92 64.0691 Q1537.43 67.2693 1542.45 67.2693 Q1548.49 67.2693 1551.97 63.421 Q1555.5 59.5726 1555.5 52.9291 L1555.5 27.2059 L1562.95 27.2059 L1562.95 72.576 L1555.5 72.576 L1555.5 65.6084 Q1552.78 69.7404 1549.18 71.7658 Q1545.61 73.7508 1540.87 73.7508 Q1533.06 73.7508 1529.01 68.8897 Q1524.95 64.0286 1524.95 54.671 M1543.71 26.1121 L1543.71 26.1121 Z" fill="#000000" fill-rule="evenodd" fill-opacity="1" /><path clip-path="url(#clip730)" d="M1604.6 34.1734 Q1603.34 33.4443 1601.84 33.1202 Q1600.38 32.7556 1598.6 32.7556 Q1592.28 32.7556 1588.88 36.8875 Q1585.52 40.9789 1585.52 48.6757 L1585.52 72.576 L1578.02 72.576 L1578.02 27.2059 L1585.52 27.2059 L1585.52 34.2544 Q1587.87 30.1225 1591.63 28.1376 Q1595.4 26.1121 1600.79 26.1121 Q1601.56 26.1121 1602.49 26.2337 Q1603.42 26.3147 1604.56 26.5172 L1604.6 34.1734 Z" fill="#000000" fill-rule="evenodd" fill-opacity="1" /><path clip-path="url(#clip730)" d="M1633.03 49.7694 Q1624 49.7694 1620.52 51.8354 Q1617.03 53.9013 1617.03 58.8839 Q1617.03 62.8538 1619.62 65.2034 Q1622.26 67.5124 1626.75 67.5124 Q1632.95 67.5124 1636.68 63.1374 Q1640.45 58.7219 1640.45 51.4303 L1640.45 49.7694 L1633.03 49.7694 M1647.9 46.6907 L1647.9 72.576 L1640.45 72.576 L1640.45 65.6895 Q1637.89 69.8214 1634.09 71.8063 Q1630.28 73.7508 1624.77 73.7508 Q1617.8 73.7508 1613.67 69.8619 Q1609.58 65.9325 1609.58 59.3701 Q1609.58 51.7138 1614.68 47.825 Q1619.83 43.9361 1629.99 43.9361 L1640.45 43.9361 L1640.45 43.2069 Q1640.45 38.0623 1637.04 35.2672 Q1633.68 32.4315 1627.56 32.4315 Q1623.68 32.4315 1619.99 33.3632 Q1616.3 34.295 1612.9 36.1584 L1612.9 29.2718 Q1616.99 27.692 1620.84 26.9223 Q1624.69 26.1121 1628.33 26.1121 Q1638.18 26.1121 1643.04 31.2163 Q1647.9 36.3204 1647.9 46.6907 Z" fill="#000000" fill-rule="evenodd" fill-opacity="1" /><path clip-path="url(#clip730)" d="M1695.9 28.9478 L1695.9 35.9153 Q1692.74 34.1734 1689.54 33.3227 Q1686.38 32.4315 1683.14 32.4315 Q1675.89 32.4315 1671.88 37.0496 Q1667.87 41.6271 1667.87 49.9314 Q1667.87 58.2358 1671.88 62.8538 Q1675.89 67.4314 1683.14 67.4314 Q1686.38 67.4314 1689.54 66.5807 Q1692.74 65.6895 1695.9 63.9476 L1695.9 70.8341 Q1692.78 72.2924 1689.42 73.0216 Q1686.1 73.7508 1682.33 73.7508 Q1672.08 73.7508 1666.05 67.3098 Q1660.01 60.8689 1660.01 49.9314 Q1660.01 38.832 1666.09 32.472 Q1672.21 26.1121 1682.82 26.1121 Q1686.26 26.1121 1689.54 26.8413 Q1692.82 27.5299 1695.9 28.9478 Z" fill="#000000" fill-rule="evenodd" fill-opacity="1" /><path clip-path="url(#clip730)" d="M1727.74 76.7889 Q1724.58 84.8907 1721.59 87.3618 Q1718.59 89.8329 1713.56 89.8329 L1707.61 89.8329 L1707.61 83.5945 L1711.99 83.5945 Q1715.06 83.5945 1716.77 82.1361 Q1718.47 80.6778 1720.53 75.2496 L1721.87 71.8468 L1703.52 27.2059 L1711.42 27.2059 L1725.6 62.6918 L1739.77 27.2059 L1747.67 27.2059 L1727.74 76.7889 Z" fill="#000000" fill-rule="evenodd" fill-opacity="1" /><polyline clip-path="url(#clip732)" style="stroke:#009af9; stroke-linecap:butt; stroke-linejoin:round; stroke-width:4; stroke-opacity:1; fill:none" points="
  811.832,890.732 1157.98,1447.87 1360.47,1196.48 1504.14,1101.36 1615.57,849.966 1706.62,849.966 1783.6,849.966 1850.29,849.966 1909.11,849.966 1961.72,890.732 
  2009.32,890.732 2052.77,890.732 2092.75,890.732 2129.75,890.732 2164.21,890.732 2196.44,890.732 2226.71,890.732 2255.26,890.732 2282.26,890.732 2307.87,890.732 
  
  "/>
<polyline clip-path="url(#clip732)" style="stroke:#e26f46; stroke-linecap:butt; stroke-linejoin:round; stroke-width:4; stroke-opacity:1; fill:none" points="
  811.832,494.64 1157.98,605.504 1360.47,497.557 1504.14,462.548 1615.57,162.047 1706.62,162.047 1783.6,162.047 1850.29,162.047 1909.11,162.047 1961.72,302.086 
  2009.32,302.086 2052.77,302.086 2092.75,302.086 2129.75,302.086 2164.21,302.086 2196.44,302.086 2226.71,302.086 2255.26,302.086 2282.26,302.086 2307.87,302.086 
  
  "/>
<path clip-path="url(#clip730)" d="
M145.225 324.425 L495.086 324.425 L495.086 168.905 L145.225 168.905  Z
  " fill="#ffffff" fill-rule="evenodd" fill-opacity="1"/>
<polyline clip-path="url(#clip730)" style="stroke:#000000; stroke-linecap:butt; stroke-linejoin:round; stroke-width:4; stroke-opacity:1; fill:none" points="
  145.225,324.425 495.086,324.425 495.086,168.905 145.225,168.905 145.225,324.425 
  "/>
<polyline clip-path="url(#clip730)" style="stroke:#009af9; stroke-linecap:butt; stroke-linejoin:round; stroke-width:4; stroke-opacity:1; fill:none" points="
  169.225,220.745 313.225,220.745 
  "/>
<path clip-path="url(#clip730)" d="M337.225 203.465 L366.461 203.465 L366.461 207.4 L354.193 207.4 L354.193 238.025 L349.494 238.025 L349.494 207.4 L337.225 207.4 L337.225 203.465 Z" fill="#000000" fill-rule="evenodd" fill-opacity="1" /><path clip-path="url(#clip730)" d="M384.91 223.997 L384.91 226.08 L365.327 226.08 Q365.605 230.478 367.966 232.793 Q370.35 235.085 374.586 235.085 Q377.04 235.085 379.331 234.483 Q381.646 233.881 383.915 232.677 L383.915 236.705 Q381.623 237.677 379.216 238.187 Q376.808 238.696 374.331 238.696 Q368.128 238.696 364.494 235.085 Q360.882 231.474 360.882 225.316 Q360.882 218.951 364.308 215.224 Q367.757 211.474 373.591 211.474 Q378.822 211.474 381.855 214.853 Q384.91 218.21 384.91 223.997 M380.651 222.747 Q380.605 219.252 378.683 217.168 Q376.785 215.085 373.637 215.085 Q370.072 215.085 367.919 217.099 Q365.79 219.113 365.466 222.77 L380.651 222.747 Z" fill="#000000" fill-rule="evenodd" fill-opacity="1" /><path clip-path="url(#clip730)" d="M408.429 212.863 L408.429 216.891 Q406.623 215.965 404.679 215.502 Q402.734 215.039 400.651 215.039 Q397.48 215.039 395.882 216.011 Q394.308 216.983 394.308 218.928 Q394.308 220.409 395.442 221.265 Q396.577 222.099 400.003 222.863 L401.461 223.187 Q405.998 224.159 407.896 225.941 Q409.817 227.701 409.817 230.872 Q409.817 234.483 406.947 236.589 Q404.1 238.696 399.1 238.696 Q397.017 238.696 394.748 238.279 Q392.503 237.886 390.003 237.076 L390.003 232.677 Q392.364 233.904 394.655 234.529 Q396.947 235.131 399.192 235.131 Q402.202 235.131 403.822 234.113 Q405.442 233.071 405.442 231.196 Q405.442 229.46 404.262 228.534 Q403.104 227.608 399.146 226.752 L397.665 226.404 Q393.706 225.571 391.947 223.858 Q390.188 222.122 390.188 219.113 Q390.188 215.455 392.78 213.465 Q395.373 211.474 400.142 211.474 Q402.503 211.474 404.586 211.821 Q406.669 212.168 408.429 212.863 Z" fill="#000000" fill-rule="evenodd" fill-opacity="1" /><path clip-path="url(#clip730)" d="M420.813 204.738 L420.813 212.099 L429.586 212.099 L429.586 215.409 L420.813 215.409 L420.813 229.483 Q420.813 232.654 421.669 233.557 Q422.549 234.46 425.211 234.46 L429.586 234.46 L429.586 238.025 L425.211 238.025 Q420.28 238.025 418.405 236.196 Q416.53 234.344 416.53 229.483 L416.53 215.409 L413.405 215.409 L413.405 212.099 L416.53 212.099 L416.53 204.738 L420.813 204.738 Z" fill="#000000" fill-rule="evenodd" fill-opacity="1" /><polyline clip-path="url(#clip730)" style="stroke:#e26f46; stroke-linecap:butt; stroke-linejoin:round; stroke-width:4; stroke-opacity:1; fill:none" points="
  169.225,272.585 313.225,272.585 
  "/>
<path clip-path="url(#clip730)" d="M337.225 255.305 L366.461 255.305 L366.461 259.24 L354.193 259.24 L354.193 289.865 L349.494 289.865 L349.494 259.24 L337.225 259.24 L337.225 255.305 Z" fill="#000000" fill-rule="evenodd" fill-opacity="1" /><path clip-path="url(#clip730)" d="M378.845 267.92 Q378.128 267.504 377.271 267.318 Q376.438 267.11 375.419 267.11 Q371.808 267.11 369.864 269.471 Q367.943 271.809 367.943 276.207 L367.943 289.865 L363.66 289.865 L363.66 263.939 L367.943 263.939 L367.943 267.967 Q369.285 265.606 371.438 264.471 Q373.591 263.314 376.669 263.314 Q377.109 263.314 377.642 263.383 Q378.174 263.43 378.822 263.545 L378.845 267.92 Z" fill="#000000" fill-rule="evenodd" fill-opacity="1" /><path clip-path="url(#clip730)" d="M395.095 276.832 Q389.933 276.832 387.943 278.013 Q385.952 279.193 385.952 282.041 Q385.952 284.309 387.433 285.652 Q388.938 286.971 391.507 286.971 Q395.049 286.971 397.179 284.471 Q399.331 281.948 399.331 277.781 L399.331 276.832 L395.095 276.832 M403.591 275.073 L403.591 289.865 L399.331 289.865 L399.331 285.929 Q397.873 288.291 395.697 289.425 Q393.521 290.536 390.373 290.536 Q386.392 290.536 384.031 288.314 Q381.693 286.068 381.693 282.318 Q381.693 277.943 384.609 275.721 Q387.549 273.499 393.359 273.499 L399.331 273.499 L399.331 273.082 Q399.331 270.143 397.387 268.545 Q395.466 266.925 391.97 266.925 Q389.748 266.925 387.642 267.457 Q385.535 267.99 383.591 269.055 L383.591 265.119 Q385.929 264.217 388.128 263.777 Q390.327 263.314 392.41 263.314 Q398.035 263.314 400.813 266.231 Q403.591 269.147 403.591 275.073 Z" fill="#000000" fill-rule="evenodd" fill-opacity="1" /><path clip-path="url(#clip730)" d="M412.364 263.939 L416.623 263.939 L416.623 289.865 L412.364 289.865 L412.364 263.939 M412.364 253.846 L416.623 253.846 L416.623 259.24 L412.364 259.24 L412.364 253.846 Z" fill="#000000" fill-rule="evenodd" fill-opacity="1" /><path clip-path="url(#clip730)" d="M447.086 274.217 L447.086 289.865 L442.826 289.865 L442.826 274.355 Q442.826 270.675 441.391 268.846 Q439.956 267.018 437.086 267.018 Q433.637 267.018 431.646 269.217 Q429.655 271.416 429.655 275.212 L429.655 289.865 L425.373 289.865 L425.373 263.939 L429.655 263.939 L429.655 267.967 Q431.183 265.629 433.243 264.471 Q435.327 263.314 438.035 263.314 Q442.502 263.314 444.794 266.092 Q447.086 268.846 447.086 274.217 Z" fill="#000000" fill-rule="evenodd" fill-opacity="1" /></svg>
