<?xml version="1.0" encoding="utf-8"?>
<svg xmlns="http://www.w3.org/2000/svg" xmlns:xlink="http://www.w3.org/1999/xlink" width="600" height="400" viewBox="0 0 2400 1600">
<defs>
  <clipPath id="clip200">
    <rect x="0" y="0" width="2400" height="1600"/>
  </clipPath>
</defs>
<path clip-path="url(#clip200)" d="
M0 1600 L2400 1600 L2400 0 L0 0  Z
  " fill="#ffffff" fill-rule="evenodd" fill-opacity="1"/>
<defs>
  <clipPath id="clip201">
    <rect x="480" y="0" width="1681" height="1600"/>
  </clipPath>
</defs>
<path clip-path="url(#clip200)" d="
M692.054 1486.45 L2352.76 1486.45 L2352.76 123.472 L692.054 123.472  Z
  " fill="#ffffff" fill-rule="evenodd" fill-opacity="1"/>
<defs>
  <clipPath id="clip202">
    <rect x="692" y="123" width="1662" height="1364"/>
  </clipPath>
</defs>
<polyline clip-path="url(#clip202)" style="stroke:#000000; stroke-linecap:butt; stroke-linejoin:round; stroke-width:2; stroke-opacity:0.1; fill:none" points="
  723.23,1486.45 723.23,123.472 
  "/>
<polyline clip-path="url(#clip202)" style="stroke:#000000; stroke-linecap:butt; stroke-linejoin:round; stroke-width:2; stroke-opacity:0.1; fill:none" points="
  1118.86,1486.45 1118.86,123.472 
  "/>
<polyline clip-path="url(#clip202)" style="stroke:#000000; stroke-linecap:butt; stroke-linejoin:round; stroke-width:2; stroke-opacity:0.1; fill:none" points="
  1514.49,1486.45 1514.49,123.472 
  "/>
<polyline clip-path="url(#clip202)" style="stroke:#000000; stroke-linecap:butt; stroke-linejoin:round; stroke-width:2; stroke-opacity:0.1; fill:none" points="
  1910.12,1486.45 1910.12,123.472 
  "/>
<polyline clip-path="url(#clip202)" style="stroke:#000000; stroke-linecap:butt; stroke-linejoin:round; stroke-width:2; stroke-opacity:0.1; fill:none" points="
  2305.75,1486.45 2305.75,123.472 
  "/>
<polyline clip-path="url(#clip200)" style="stroke:#000000; stroke-linecap:butt; stroke-linejoin:round; stroke-width:4; stroke-opacity:1; fill:none" points="
  692.054,1486.45 2352.76,1486.45 
  "/>
<polyline clip-path="url(#clip200)" style="stroke:#000000; stroke-linecap:butt; stroke-linejoin:round; stroke-width:4; stroke-opacity:1; fill:none" points="
  723.23,1486.45 723.23,1467.55 
  "/>
<polyline clip-path="url(#clip200)" style="stroke:#000000; stroke-linecap:butt; stroke-linejoin:round; stroke-width:4; stroke-opacity:1; fill:none" points="
  1118.86,1486.45 1118.86,1467.55 
  "/>
<polyline clip-path="url(#clip200)" style="stroke:#000000; stroke-linecap:butt; stroke-linejoin:round; stroke-width:4; stroke-opacity:1; fill:none" points="
  1514.49,1486.45 1514.49,1467.55 
  "/>
<polyline clip-path="url(#clip200)" style="stroke:#000000; stroke-linecap:butt; stroke-linejoin:round; stroke-width:4; stroke-opacity:1; fill:none" points="
  1910.12,1486.45 1910.12,1467.55 
  "/>
<polyline clip-path="url(#clip200)" style="stroke:#000000; stroke-linecap:butt; stroke-linejoin:round; stroke-width:4; stroke-opacity:1; fill:none" points="
  2305.75,1486.45 2305.75,1467.55 
  "/>
<path clip-path="url(#clip200)" d="M723.23 1517.37 Q719.618 1517.37 717.79 1520.93 Q715.984 1524.47 715.984 1531.6 Q715.984 1538.71 717.79 1542.27 Q719.618 1545.82 723.23 1545.82 Q726.864 1545.82 728.669 1542.27 Q730.498 1538.71 730.498 1531.6 Q730.498 1524.47 728.669 1520.93 Q726.864 1517.37 723.23 1517.37 M723.23 1513.66 Q729.04 1513.66 732.095 1518.27 Q735.174 1522.85 735.174 1531.6 Q735.174 1540.33 732.095 1544.94 Q729.04 1549.52 723.23 1549.52 Q717.419 1549.52 714.341 1544.94 Q711.285 1540.33 711.285 1531.6 Q711.285 1522.85 714.341 1518.27 Q717.419 1513.66 723.23 1513.66 Z" fill="#000000" fill-rule="evenodd" fill-opacity="1" /><path clip-path="url(#clip200)" d="M1098.13 1544.91 L1114.45 1544.91 L1114.45 1548.85 L1092.51 1548.85 L1092.51 1544.91 Q1095.17 1542.16 1099.75 1537.53 Q1104.36 1532.88 1105.54 1531.53 Q1107.78 1529.01 1108.66 1527.27 Q1109.57 1525.51 1109.57 1523.82 Q1109.57 1521.07 1107.62 1519.33 Q1105.7 1517.6 1102.6 1517.6 Q1100.4 1517.6 1097.95 1518.36 Q1095.52 1519.13 1092.74 1520.68 L1092.74 1515.95 Q1095.56 1514.82 1098.02 1514.24 Q1100.47 1513.66 1102.51 1513.66 Q1107.88 1513.66 1111.07 1516.35 Q1114.27 1519.03 1114.27 1523.52 Q1114.27 1525.65 1113.46 1527.57 Q1112.67 1529.47 1110.56 1532.07 Q1109.98 1532.74 1106.88 1535.95 Q1103.78 1539.15 1098.13 1544.91 Z" fill="#000000" fill-rule="evenodd" fill-opacity="1" /><path clip-path="url(#clip200)" d="M1124.31 1514.29 L1142.67 1514.29 L1142.67 1518.22 L1128.59 1518.22 L1128.59 1526.7 Q1129.61 1526.35 1130.63 1526.19 Q1131.65 1526 1132.67 1526 Q1138.46 1526 1141.84 1529.17 Q1145.21 1532.34 1145.21 1537.76 Q1145.21 1543.34 1141.74 1546.44 Q1138.27 1549.52 1131.95 1549.52 Q1129.78 1549.52 1127.51 1549.15 Q1125.26 1548.78 1122.85 1548.04 L1122.85 1543.34 Q1124.94 1544.47 1127.16 1545.03 Q1129.38 1545.58 1131.86 1545.58 Q1135.86 1545.58 1138.2 1543.48 Q1140.54 1541.37 1140.54 1537.76 Q1140.54 1534.15 1138.2 1532.04 Q1135.86 1529.94 1131.86 1529.94 Q1129.98 1529.94 1128.11 1530.35 Q1126.26 1530.77 1124.31 1531.65 L1124.31 1514.29 Z" fill="#000000" fill-rule="evenodd" fill-opacity="1" /><path clip-path="url(#clip200)" d="M1489.19 1514.29 L1507.55 1514.29 L1507.55 1518.22 L1493.47 1518.22 L1493.47 1526.7 Q1494.49 1526.35 1495.51 1526.19 Q1496.53 1526 1497.55 1526 Q1503.33 1526 1506.71 1529.17 Q1510.09 1532.34 1510.09 1537.76 Q1510.09 1543.34 1506.62 1546.44 Q1503.15 1549.52 1496.83 1549.52 Q1494.65 1549.52 1492.39 1549.15 Q1490.14 1548.78 1487.73 1548.04 L1487.73 1543.34 Q1489.82 1544.47 1492.04 1545.03 Q1494.26 1545.58 1496.74 1545.58 Q1500.74 1545.58 1503.08 1543.48 Q1505.42 1541.37 1505.42 1537.76 Q1505.42 1534.15 1503.08 1532.04 Q1500.74 1529.94 1496.74 1529.94 Q1494.86 1529.94 1492.99 1530.35 Q1491.14 1530.77 1489.19 1531.65 L1489.19 1514.29 Z" fill="#000000" fill-rule="evenodd" fill-opacity="1" /><path clip-path="url(#clip200)" d="M1529.31 1517.37 Q1525.7 1517.37 1523.87 1520.93 Q1522.06 1524.47 1522.06 1531.6 Q1522.06 1538.71 1523.87 1542.27 Q1525.7 1545.82 1529.31 1545.82 Q1532.94 1545.82 1534.75 1542.27 Q1536.58 1538.71 1536.58 1531.6 Q1536.58 1524.47 1534.75 1520.93 Q1532.94 1517.37 1529.31 1517.37 M1529.31 1513.66 Q1535.12 1513.66 1538.17 1518.27 Q1541.25 1522.85 1541.25 1531.6 Q1541.25 1540.33 1538.17 1544.94 Q1535.12 1549.52 1529.31 1549.52 Q1523.5 1549.52 1520.42 1544.94 Q1517.36 1540.33 1517.36 1531.6 Q1517.36 1522.85 1520.42 1518.27 Q1523.5 1513.66 1529.31 1513.66 Z" fill="#000000" fill-rule="evenodd" fill-opacity="1" /><path clip-path="url(#clip200)" d="M1883.98 1514.29 L1906.2 1514.29 L1906.2 1516.28 L1893.65 1548.85 L1888.77 1548.85 L1900.58 1518.22 L1883.98 1518.22 L1883.98 1514.29 Z" fill="#000000" fill-rule="evenodd" fill-opacity="1" /><path clip-path="url(#clip200)" d="M1915.37 1514.29 L1933.72 1514.29 L1933.72 1518.22 L1919.65 1518.22 L1919.65 1526.7 Q1920.67 1526.35 1921.69 1526.19 Q1922.7 1526 1923.72 1526 Q1929.51 1526 1932.89 1529.17 Q1936.27 1532.34 1936.27 1537.76 Q1936.27 1543.34 1932.8 1546.44 Q1929.32 1549.52 1923.01 1549.52 Q1920.83 1549.52 1918.56 1549.15 Q1916.32 1548.78 1913.91 1548.04 L1913.91 1543.34 Q1915.99 1544.47 1918.21 1545.03 Q1920.44 1545.58 1922.91 1545.58 Q1926.92 1545.58 1929.26 1543.48 Q1931.59 1541.37 1931.59 1537.76 Q1931.59 1534.15 1929.26 1532.04 Q1926.92 1529.94 1922.91 1529.94 Q1921.04 1529.94 1919.16 1530.35 Q1917.31 1530.77 1915.37 1531.65 L1915.37 1514.29 Z" fill="#000000" fill-rule="evenodd" fill-opacity="1" /><path clip-path="url(#clip200)" d="M2265.36 1544.91 L2273 1544.91 L2273 1518.55 L2264.69 1520.21 L2264.69 1515.95 L2272.95 1514.29 L2277.63 1514.29 L2277.63 1544.91 L2285.27 1544.91 L2285.27 1548.85 L2265.36 1548.85 L2265.36 1544.91 Z" fill="#000000" fill-rule="evenodd" fill-opacity="1" /><path clip-path="url(#clip200)" d="M2304.71 1517.37 Q2301.1 1517.37 2299.27 1520.93 Q2297.47 1524.47 2297.47 1531.6 Q2297.47 1538.71 2299.27 1542.27 Q2301.1 1545.82 2304.71 1545.82 Q2308.35 1545.82 2310.15 1542.27 Q2311.98 1538.71 2311.98 1531.6 Q2311.98 1524.47 2310.15 1520.93 Q2308.35 1517.37 2304.71 1517.37 M2304.71 1513.66 Q2310.52 1513.66 2313.58 1518.27 Q2316.66 1522.85 2316.66 1531.6 Q2316.66 1540.33 2313.58 1544.94 Q2310.52 1549.52 2304.71 1549.52 Q2298.9 1549.52 2295.82 1544.94 Q2292.77 1540.33 2292.77 1531.6 Q2292.77 1522.85 2295.82 1518.27 Q2298.9 1513.66 2304.71 1513.66 Z" fill="#000000" fill-rule="evenodd" fill-opacity="1" /><path clip-path="url(#clip200)" d="M2334.88 1517.37 Q2331.26 1517.37 2329.44 1520.93 Q2327.63 1524.47 2327.63 1531.6 Q2327.63 1538.71 2329.44 1542.27 Q2331.26 1545.82 2334.88 1545.82 Q2338.51 1545.82 2340.31 1542.27 Q2342.14 1538.71 2342.14 1531.6 Q2342.14 1524.47 2340.31 1520.93 Q2338.51 1517.37 2334.88 1517.37 M2334.88 1513.66 Q2340.69 1513.66 2343.74 1518.27 Q2346.82 1522.85 2346.82 1531.6 Q2346.82 1540.33 2343.74 1544.94 Q2340.69 1549.52 2334.88 1549.52 Q2329.06 1549.52 2325.99 1544.94 Q2322.93 1540.33 2322.93 1531.6 Q2322.93 1522.85 2325.99 1518.27 Q2329.06 1513.66 2334.88 1513.66 Z" fill="#000000" fill-rule="evenodd" fill-opacity="1" /><polyline clip-path="url(#clip202)" style="stroke:#000000; stroke-linecap:butt; stroke-linejoin:round; stroke-width:2; stroke-opacity:0.1; fill:none" points="
  692.054,1432.86 2352.76,1432.86 
  "/>
<polyline clip-path="url(#clip202)" style="stroke:#000000; stroke-linecap:butt; stroke-linejoin:round; stroke-width:2; stroke-opacity:0.1; fill:none" points="
  692.054,1115.94 2352.76,1115.94 
  "/>
<polyline clip-path="url(#clip202)" style="stroke:#000000; stroke-linecap:butt; stroke-linejoin:round; stroke-width:2; stroke-opacity:0.1; fill:none" points="
  692.054,799.012 2352.76,799.012 
  "/>
<polyline clip-path="url(#clip202)" style="stroke:#000000; stroke-linecap:butt; stroke-linejoin:round; stroke-width:2; stroke-opacity:0.1; fill:none" points="
  692.054,482.087 2352.76,482.087 
  "/>
<polyline clip-path="url(#clip202)" style="stroke:#000000; stroke-linecap:butt; stroke-linejoin:round; stroke-width:2; stroke-opacity:0.1; fill:none" points="
  692.054,165.162 2352.76,165.162 
  "/>
<polyline clip-path="url(#clip200)" style="stroke:#000000; stroke-linecap:butt; stroke-linejoin:round; stroke-width:4; stroke-opacity:1; fill:none" points="
  692.054,1486.45 692.054,123.472 
  "/>
<polyline clip-path="url(#clip200)" style="stroke:#000000; stroke-linecap:butt; stroke-linejoin:round; stroke-width:4; stroke-opacity:1; fill:none" points="
  692.054,1432.86 706.54,1432.86 
  "/>
<polyline clip-path="url(#clip200)" style="stroke:#000000; stroke-linecap:butt; stroke-linejoin:round; stroke-width:4; stroke-opacity:1; fill:none" points="
  692.054,1115.94 706.54,1115.94 
  "/>
<polyline clip-path="url(#clip200)" style="stroke:#000000; stroke-linecap:butt; stroke-linejoin:round; stroke-width:4; stroke-opacity:1; fill:none" points="
  692.054,799.012 706.54,799.012 
  "/>
<polyline clip-path="url(#clip200)" style="stroke:#000000; stroke-linecap:butt; stroke-linejoin:round; stroke-width:4; stroke-opacity:1; fill:none" points="
  692.054,482.087 706.54,482.087 
  "/>
<polyline clip-path="url(#clip200)" style="stroke:#000000; stroke-linecap:butt; stroke-linejoin:round; stroke-width:4; stroke-opacity:1; fill:none" points="
  692.054,165.162 706.54,165.162 
  "/>
<path clip-path="url(#clip200)" d="M569.712 1418.66 Q566.101 1418.66 564.272 1422.23 Q562.466 1425.77 562.466 1432.9 Q562.466 1440 564.272 1443.57 Q566.101 1447.11 569.712 1447.11 Q573.346 1447.11 575.151 1443.57 Q576.98 1440 576.98 1432.9 Q576.98 1425.77 575.151 1422.23 Q573.346 1418.66 569.712 1418.66 M569.712 1414.96 Q575.522 1414.96 578.577 1419.56 Q581.656 1424.15 581.656 1432.9 Q581.656 1441.62 578.577 1446.23 Q575.522 1450.81 569.712 1450.81 Q563.902 1450.81 560.823 1446.23 Q557.767 1441.62 557.767 1432.9 Q557.767 1424.15 560.823 1419.56 Q563.902 1414.96 569.712 1414.96 Z" fill="#000000" fill-rule="evenodd" fill-opacity="1" /><path clip-path="url(#clip200)" d="M589.874 1444.26 L594.758 1444.26 L594.758 1450.14 L589.874 1450.14 L589.874 1444.26 Z" fill="#000000" fill-rule="evenodd" fill-opacity="1" /><path clip-path="url(#clip200)" d="M619.11 1431.51 Q622.466 1432.23 624.341 1434.49 Q626.239 1436.76 626.239 1440.1 Q626.239 1445.21 622.721 1448.01 Q619.202 1450.81 612.721 1450.81 Q610.545 1450.81 608.23 1450.37 Q605.938 1449.96 603.485 1449.1 L603.485 1444.59 Q605.429 1445.72 607.744 1446.3 Q610.059 1446.88 612.582 1446.88 Q616.98 1446.88 619.272 1445.14 Q621.586 1443.41 621.586 1440.1 Q621.586 1437.04 619.434 1435.33 Q617.304 1433.59 613.485 1433.59 L609.457 1433.59 L609.457 1429.75 L613.67 1429.75 Q617.119 1429.75 618.948 1428.38 Q620.776 1426.99 620.776 1424.4 Q620.776 1421.74 618.878 1420.33 Q617.003 1418.89 613.485 1418.89 Q611.563 1418.89 609.364 1419.31 Q607.165 1419.73 604.526 1420.61 L604.526 1416.44 Q607.188 1415.7 609.503 1415.33 Q611.841 1414.96 613.901 1414.96 Q619.225 1414.96 622.327 1417.39 Q625.429 1419.8 625.429 1423.92 Q625.429 1426.79 623.785 1428.78 Q622.142 1430.74 619.11 1431.51 Z" fill="#000000" fill-rule="evenodd" fill-opacity="1" /><path clip-path="url(#clip200)" d="M635.151 1415.58 L653.508 1415.58 L653.508 1419.52 L639.434 1419.52 L639.434 1427.99 Q640.452 1427.64 641.471 1427.48 Q642.489 1427.3 643.508 1427.3 Q649.295 1427.3 652.674 1430.47 Q656.054 1433.64 656.054 1439.05 Q656.054 1444.63 652.582 1447.73 Q649.109 1450.81 642.79 1450.81 Q640.614 1450.81 638.346 1450.44 Q636.1 1450.07 633.693 1449.33 L633.693 1444.63 Q635.776 1445.77 637.998 1446.32 Q640.221 1446.88 642.697 1446.88 Q646.702 1446.88 649.04 1444.77 Q651.378 1442.67 651.378 1439.05 Q651.378 1435.44 649.04 1433.34 Q646.702 1431.23 642.697 1431.23 Q640.822 1431.23 638.947 1431.65 Q637.096 1432.06 635.151 1432.94 L635.151 1415.58 Z" fill="#000000" fill-rule="evenodd" fill-opacity="1" /><path clip-path="url(#clip200)" d="M568.716 1101.74 Q565.105 1101.74 563.277 1105.3 Q561.471 1108.84 561.471 1115.97 Q561.471 1123.08 563.277 1126.64 Q565.105 1130.18 568.716 1130.18 Q572.351 1130.18 574.156 1126.64 Q575.985 1123.08 575.985 1115.97 Q575.985 1108.84 574.156 1105.3 Q572.351 1101.74 568.716 1101.74 M568.716 1098.03 Q574.527 1098.03 577.582 1102.64 Q580.661 1107.22 580.661 1115.97 Q580.661 1124.7 577.582 1129.31 Q574.527 1133.89 568.716 1133.89 Q562.906 1133.89 559.828 1129.31 Q556.772 1124.7 556.772 1115.97 Q556.772 1107.22 559.828 1102.64 Q562.906 1098.03 568.716 1098.03 Z" fill="#000000" fill-rule="evenodd" fill-opacity="1" /><path clip-path="url(#clip200)" d="M588.878 1127.34 L593.763 1127.34 L593.763 1133.22 L588.878 1133.22 L588.878 1127.34 Z" fill="#000000" fill-rule="evenodd" fill-opacity="1" /><path clip-path="url(#clip200)" d="M616.795 1102.73 L604.989 1121.18 L616.795 1121.18 L616.795 1102.73 M615.568 1098.66 L621.448 1098.66 L621.448 1121.18 L626.378 1121.18 L626.378 1125.07 L621.448 1125.07 L621.448 1133.22 L616.795 1133.22 L616.795 1125.07 L601.193 1125.07 L601.193 1120.56 L615.568 1098.66 Z" fill="#000000" fill-rule="evenodd" fill-opacity="1" /><path clip-path="url(#clip200)" d="M644.109 1101.74 Q640.498 1101.74 638.67 1105.3 Q636.864 1108.84 636.864 1115.97 Q636.864 1123.08 638.67 1126.64 Q640.498 1130.18 644.109 1130.18 Q647.744 1130.18 649.549 1126.64 Q651.378 1123.08 651.378 1115.97 Q651.378 1108.84 649.549 1105.3 Q647.744 1101.74 644.109 1101.74 M644.109 1098.03 Q649.92 1098.03 652.975 1102.64 Q656.054 1107.22 656.054 1115.97 Q656.054 1124.7 652.975 1129.31 Q649.92 1133.89 644.109 1133.89 Q638.299 1133.89 635.221 1129.31 Q632.165 1124.7 632.165 1115.97 Q632.165 1107.22 635.221 1102.64 Q638.299 1098.03 644.109 1098.03 Z" fill="#000000" fill-rule="evenodd" fill-opacity="1" /><path clip-path="url(#clip200)" d="M569.712 784.811 Q566.101 784.811 564.272 788.376 Q562.466 791.917 562.466 799.047 Q562.466 806.154 564.272 809.718 Q566.101 813.26 569.712 813.26 Q573.346 813.26 575.151 809.718 Q576.98 806.154 576.98 799.047 Q576.98 791.917 575.151 788.376 Q573.346 784.811 569.712 784.811 M569.712 781.107 Q575.522 781.107 578.577 785.714 Q581.656 790.297 581.656 799.047 Q581.656 807.774 578.577 812.38 Q575.522 816.964 569.712 816.964 Q563.902 816.964 560.823 812.38 Q557.767 807.774 557.767 799.047 Q557.767 790.297 560.823 785.714 Q563.902 781.107 569.712 781.107 Z" fill="#000000" fill-rule="evenodd" fill-opacity="1" /><path clip-path="url(#clip200)" d="M589.874 810.413 L594.758 810.413 L594.758 816.292 L589.874 816.292 L589.874 810.413 Z" fill="#000000" fill-rule="evenodd" fill-opacity="1" /><path clip-path="url(#clip200)" d="M617.79 785.806 L605.985 804.255 L617.79 804.255 L617.79 785.806 M616.563 781.732 L622.443 781.732 L622.443 804.255 L627.373 804.255 L627.373 808.144 L622.443 808.144 L622.443 816.292 L617.79 816.292 L617.79 808.144 L602.188 808.144 L602.188 803.63 L616.563 781.732 Z" fill="#000000" fill-rule="evenodd" fill-opacity="1" /><path clip-path="url(#clip200)" d="M635.151 781.732 L653.508 781.732 L653.508 785.668 L639.434 785.668 L639.434 794.14 Q640.452 793.792 641.471 793.63 Q642.489 793.445 643.508 793.445 Q649.295 793.445 652.674 796.617 Q656.054 799.788 656.054 805.204 Q656.054 810.783 652.582 813.885 Q649.109 816.964 642.79 816.964 Q640.614 816.964 638.346 816.593 Q636.1 816.223 633.693 815.482 L633.693 810.783 Q635.776 811.917 637.998 812.473 Q640.221 813.028 642.697 813.028 Q646.702 813.028 649.04 810.922 Q651.378 808.816 651.378 805.204 Q651.378 801.593 649.04 799.487 Q646.702 797.38 642.697 797.38 Q640.822 797.38 638.947 797.797 Q637.096 798.214 635.151 799.093 L635.151 781.732 Z" fill="#000000" fill-rule="evenodd" fill-opacity="1" /><path clip-path="url(#clip200)" d="M568.716 467.886 Q565.105 467.886 563.277 471.451 Q561.471 474.992 561.471 482.122 Q561.471 489.229 563.277 492.793 Q565.105 496.335 568.716 496.335 Q572.351 496.335 574.156 492.793 Q575.985 489.229 575.985 482.122 Q575.985 474.992 574.156 471.451 Q572.351 467.886 568.716 467.886 M568.716 464.182 Q574.527 464.182 577.582 468.789 Q580.661 473.372 580.661 482.122 Q580.661 490.849 577.582 495.455 Q574.527 500.039 568.716 500.039 Q562.906 500.039 559.828 495.455 Q556.772 490.849 556.772 482.122 Q556.772 473.372 559.828 468.789 Q562.906 464.182 568.716 464.182 Z" fill="#000000" fill-rule="evenodd" fill-opacity="1" /><path clip-path="url(#clip200)" d="M588.878 493.488 L593.763 493.488 L593.763 499.367 L588.878 499.367 L588.878 493.488 Z" fill="#000000" fill-rule="evenodd" fill-opacity="1" /><path clip-path="url(#clip200)" d="M603.994 464.807 L622.35 464.807 L622.35 468.743 L608.276 468.743 L608.276 477.215 Q609.295 476.867 610.313 476.705 Q611.332 476.52 612.35 476.52 Q618.137 476.52 621.517 479.692 Q624.897 482.863 624.897 488.279 Q624.897 493.858 621.424 496.96 Q617.952 500.039 611.633 500.039 Q609.457 500.039 607.188 499.668 Q604.943 499.298 602.536 498.557 L602.536 493.858 Q604.619 494.992 606.841 495.548 Q609.063 496.103 611.54 496.103 Q615.545 496.103 617.883 493.997 Q620.221 491.891 620.221 488.279 Q620.221 484.668 617.883 482.562 Q615.545 480.455 611.54 480.455 Q609.665 480.455 607.79 480.872 Q605.938 481.289 603.994 482.168 L603.994 464.807 Z" fill="#000000" fill-rule="evenodd" fill-opacity="1" /><path clip-path="url(#clip200)" d="M644.109 467.886 Q640.498 467.886 638.67 471.451 Q636.864 474.992 636.864 482.122 Q636.864 489.229 638.67 492.793 Q640.498 496.335 644.109 496.335 Q647.744 496.335 649.549 492.793 Q651.378 489.229 651.378 482.122 Q651.378 474.992 649.549 471.451 Q647.744 467.886 644.109 467.886 M644.109 464.182 Q649.92 464.182 652.975 468.789 Q656.054 473.372 656.054 482.122 Q656.054 490.849 652.975 495.455 Q649.92 500.039 644.109 500.039 Q638.299 500.039 635.221 495.455 Q632.165 490.849 632.165 482.122 Q632.165 473.372 635.221 468.789 Q638.299 464.182 644.109 464.182 Z" fill="#000000" fill-rule="evenodd" fill-opacity="1" /><path clip-path="url(#clip200)" d="M569.712 150.961 Q566.101 150.961 564.272 154.526 Q562.466 158.067 562.466 165.197 Q562.466 172.304 564.272 175.868 Q566.101 179.41 569.712 179.41 Q573.346 179.41 575.151 175.868 Q576.98 172.304 576.98 165.197 Q576.98 158.067 575.151 154.526 Q573.346 150.961 569.712 150.961 M569.712 147.257 Q575.522 147.257 578.577 151.864 Q581.656 156.447 581.656 165.197 Q581.656 173.924 578.577 178.53 Q575.522 183.114 569.712 183.114 Q563.902 183.114 560.823 178.53 Q557.767 173.924 557.767 165.197 Q557.767 156.447 560.823 151.864 Q563.902 147.257 569.712 147.257 Z" fill="#000000" fill-rule="evenodd" fill-opacity="1" /><path clip-path="url(#clip200)" d="M589.874 176.563 L594.758 176.563 L594.758 182.442 L589.874 182.442 L589.874 176.563 Z" fill="#000000" fill-rule="evenodd" fill-opacity="1" /><path clip-path="url(#clip200)" d="M604.989 147.882 L623.346 147.882 L623.346 151.818 L609.272 151.818 L609.272 160.29 Q610.29 159.942 611.309 159.78 Q612.327 159.595 613.346 159.595 Q619.133 159.595 622.512 162.767 Q625.892 165.938 625.892 171.354 Q625.892 176.933 622.42 180.035 Q618.948 183.114 612.628 183.114 Q610.452 183.114 608.184 182.743 Q605.938 182.373 603.531 181.632 L603.531 176.933 Q605.614 178.067 607.837 178.623 Q610.059 179.178 612.536 179.178 Q616.54 179.178 618.878 177.072 Q621.216 174.966 621.216 171.354 Q621.216 167.743 618.878 165.637 Q616.54 163.53 612.536 163.53 Q610.661 163.53 608.786 163.947 Q606.934 164.364 604.989 165.243 L604.989 147.882 Z" fill="#000000" fill-rule="evenodd" fill-opacity="1" /><path clip-path="url(#clip200)" d="M635.151 147.882 L653.508 147.882 L653.508 151.818 L639.434 151.818 L639.434 160.29 Q640.452 159.942 641.471 159.78 Q642.489 159.595 643.508 159.595 Q649.295 159.595 652.674 162.767 Q656.054 165.938 656.054 171.354 Q656.054 176.933 652.582 180.035 Q649.109 183.114 642.79 183.114 Q640.614 183.114 638.346 182.743 Q636.1 182.373 633.693 181.632 L633.693 176.933 Q635.776 178.067 637.998 178.623 Q640.221 179.178 642.697 179.178 Q646.702 179.178 649.04 177.072 Q651.378 174.966 651.378 171.354 Q651.378 167.743 649.04 165.637 Q646.702 163.53 642.697 163.53 Q640.822 163.53 638.947 163.947 Q637.096 164.364 635.151 165.243 L635.151 147.882 Z" fill="#000000" fill-rule="evenodd" fill-opacity="1" /><path clip-path="url(#clip200)" d="M1362.29 20.1573 L1351.19 50.2555 L1373.43 50.2555 L1362.29 20.1573 M1357.67 12.096 L1366.95 12.096 L1390 72.576 L1381.49 72.576 L1375.98 57.061 L1348.72 57.061 L1343.21 72.576 L1334.58 72.576 L1357.67 12.096 Z" fill="#000000" fill-rule="evenodd" fill-opacity="1" /><path clip-path="url(#clip200)" d="M1429.7 28.9478 L1429.7 35.9153 Q1426.54 34.1734 1423.34 33.3227 Q1420.18 32.4315 1416.94 32.4315 Q1409.69 32.4315 1405.68 37.0496 Q1401.67 41.6271 1401.67 49.9314 Q1401.67 58.2358 1405.68 62.8538 Q1409.69 67.4314 1416.94 67.4314 Q1420.18 67.4314 1423.34 66.5807 Q1426.54 65.6895 1429.7 63.9476 L1429.7 70.8341 Q1426.58 72.2924 1423.22 73.0216 Q1419.9 73.7508 1416.13 73.7508 Q1405.88 73.7508 1399.84 67.3098 Q1393.81 60.8689 1393.81 49.9314 Q1393.81 38.832 1399.89 32.472 Q1406 26.1121 1416.62 26.1121 Q1420.06 26.1121 1423.34 26.8413 Q1426.62 27.5299 1429.7 28.9478 Z" fill="#000000" fill-rule="evenodd" fill-opacity="1" /><path clip-path="url(#clip200)" d="M1475.31 28.9478 L1475.31 35.9153 Q1472.15 34.1734 1468.95 33.3227 Q1465.79 32.4315 1462.55 32.4315 Q1455.3 32.4315 1451.29 37.0496 Q1447.28 41.6271 1447.28 49.9314 Q1447.28 58.2358 1451.29 62.8538 Q1455.3 67.4314 1462.55 67.4314 Q1465.79 67.4314 1468.95 66.5807 Q1472.15 65.6895 1475.31 63.9476 L1475.31 70.8341 Q1472.19 72.2924 1468.83 73.0216 Q1465.51 73.7508 1461.74 73.7508 Q1451.49 73.7508 1445.46 67.3098 Q1439.42 60.8689 1439.42 49.9314 Q1439.42 38.832 1445.5 32.472 Q1451.62 26.1121 1462.23 26.1121 Q1465.67 26.1121 1468.95 26.8413 Q1472.23 27.5299 1475.31 28.9478 Z" fill="#000000" fill-rule="evenodd" fill-opacity="1" /><path clip-path="url(#clip200)" d="M1487.51 54.671 L1487.51 27.2059 L1494.96 27.2059 L1494.96 54.3874 Q1494.96 60.8284 1497.47 64.0691 Q1499.98 67.2693 1505.01 67.2693 Q1511.04 67.2693 1514.53 63.421 Q1518.05 59.5726 1518.05 52.9291 L1518.05 27.2059 L1525.5 27.2059 L1525.5 72.576 L1518.05 72.576 L1518.05 65.6084 Q1515.34 69.7404 1511.73 71.7658 Q1508.17 73.7508 1503.43 73.7508 Q1495.61 73.7508 1491.56 68.8897 Q1487.51 64.0286 1487.51 54.671 M1506.26 26.1121 L1506.26 26.1121 Z" fill="#000000" fill-rule="evenodd" fill-opacity="1" /><path clip-path="url(#clip200)" d="M1567.15 34.1734 Q1565.89 33.4443 1564.39 33.1202 Q1562.93 32.7556 1561.15 32.7556 Q1554.83 32.7556 1551.43 36.8875 Q1548.07 40.9789 1548.07 48.6757 L1548.07 72.576 L1540.57 72.576 L1540.57 27.2059 L1548.07 27.2059 L1548.07 34.2544 Q1550.42 30.1225 1554.18 28.1376 Q1557.95 26.1121 1563.34 26.1121 Q1564.11 26.1121 1565.04 26.2337 Q1565.97 26.3147 1567.11 26.5172 L1567.15 34.1734 Z" fill="#000000" fill-rule="evenodd" fill-opacity="1" /><path clip-path="url(#clip200)" d="M1595.58 49.7694 Q1586.55 49.7694 1583.07 51.8354 Q1579.58 53.9013 1579.58 58.8839 Q1579.58 62.8538 1582.18 65.2034 Q1584.81 67.5124 1589.31 67.5124 Q1595.5 67.5124 1599.23 63.1374 Q1603 58.7219 1603 51.4303 L1603 49.7694 L1595.58 49.7694 M1610.45 46.6907 L1610.45 72.576 L1603 72.576 L1603 65.6895 Q1600.45 69.8214 1596.64 71.8063 Q1592.83 73.7508 1587.32 73.7508 Q1580.35 73.7508 1576.22 69.8619 Q1572.13 65.9325 1572.13 59.3701 Q1572.13 51.7138 1577.23 47.825 Q1582.38 43.9361 1592.55 43.9361 L1603 43.9361 L1603 43.2069 Q1603 38.0623 1599.59 35.2672 Q1596.23 32.4315 1590.12 32.4315 Q1586.23 32.4315 1582.54 33.3632 Q1578.85 34.295 1575.45 36.1584 L1575.45 29.2718 Q1579.54 27.692 1583.39 26.9223 Q1587.24 26.1121 1590.89 26.1121 Q1600.73 26.1121 1605.59 31.2163 Q1610.45 36.3204 1610.45 46.6907 Z" fill="#000000" fill-rule="evenodd" fill-opacity="1" /><path clip-path="url(#clip200)" d="M1658.45 28.9478 L1658.45 35.9153 Q1655.29 34.1734 1652.09 33.3227 Q1648.93 32.4315 1645.69 32.4315 Q1638.44 32.4315 1634.43 37.0496 Q1630.42 41.6271 1630.42 49.9314 Q1630.42 58.2358 1634.43 62.8538 Q1638.44 67.4314 1645.69 67.4314 Q1648.93 67.4314 1652.09 66.5807 Q1655.29 65.6895 1658.45 63.9476 L1658.45 70.8341 Q1655.34 72.2924 1651.97 73.0216 Q1648.65 73.7508 1644.88 73.7508 Q1634.64 73.7508 1628.6 67.3098 Q1622.56 60.8689 1622.56 49.9314 Q1622.56 38.832 1628.64 32.472 Q1634.76 26.1121 1645.37 26.1121 Q1648.81 26.1121 1652.09 26.8413 Q1655.38 27.5299 1658.45 28.9478 Z" fill="#000000" fill-rule="evenodd" fill-opacity="1" /><path clip-path="url(#clip200)" d="M1690.29 76.7889 Q1687.13 84.8907 1684.14 87.3618 Q1681.14 89.8329 1676.12 89.8329 L1670.16 89.8329 L1670.16 83.5945 L1674.54 83.5945 Q1677.62 83.5945 1679.32 82.1361 Q1681.02 80.6778 1683.08 75.2496 L1684.42 71.8468 L1666.07 27.2059 L1673.97 27.2059 L1688.15 62.6918 L1702.33 27.2059 L1710.23 27.2059 L1690.29 76.7889 Z" fill="#000000" fill-rule="evenodd" fill-opacity="1" /><polyline clip-path="url(#clip202)" style="stroke:#009af9; stroke-linecap:butt; stroke-linejoin:round; stroke-width:4; stroke-opacity:1; fill:none" points="
  739.055,1447.87 754.88,1340.25 770.705,1340.25 786.531,1340.25 802.356,1340.25 818.181,1096.68 834.006,1096.68 849.832,1096.68 865.657,1096.68 881.482,1096.68 
  897.307,1096.68 913.133,1096.68 928.958,841.779 944.783,841.779 960.608,841.779 976.434,841.779 992.259,841.779 1008.08,841.779 1023.91,841.779 1039.73,841.779 
  1055.56,841.779 1071.39,841.779 1087.21,841.779 1103.04,841.779 1118.86,841.779 1134.69,841.779 1150.51,841.779 1166.34,841.779 1182.16,841.779 1197.99,841.779 
  1213.81,841.779 1229.64,841.779 1245.46,841.779 1261.29,841.779 1277.11,841.779 1292.94,841.779 1308.76,841.779 1324.59,841.779 1340.41,841.779 1356.24,841.779 
  1372.06,841.779 1387.89,841.779 1403.72,841.779 1419.54,841.779 1435.37,841.779 1451.19,841.779 1467.02,841.779 1482.84,841.779 1498.67,841.779 1514.49,841.779 
  1530.32,841.779 1546.14,841.779 1561.97,841.779 1577.79,841.779 1593.62,841.779 1609.44,841.779 1625.27,841.779 1641.09,841.779 1656.92,841.779 1672.74,841.779 
  1688.57,841.779 1704.4,841.779 1720.22,841.779 1736.05,841.779 1751.87,841.779 1767.7,841.779 1783.52,841.779 1799.35,841.779 1815.17,841.779 1831,841.779 
  1846.82,841.779 1862.65,841.779 1878.47,841.779 1894.3,841.779 1910.12,841.779 1925.95,841.779 1941.77,841.779 1957.6,841.779 1973.42,841.779 1989.25,841.779 
  2005.08,841.779 2020.9,841.779 2036.73,841.779 2052.55,841.779 2068.38,841.779 2084.2,841.779 2100.03,841.779 2115.85,841.779 2131.68,841.779 2147.5,841.779 
  2163.33,841.779 2179.15,841.779 2194.98,841.779 2210.8,841.779 2226.63,841.779 2242.45,841.779 2258.28,841.779 2274.1,841.779 2289.93,841.779 2305.75,841.779 
  
  "/>
<polyline clip-path="url(#clip202)" style="stroke:#e26f46; stroke-linecap:butt; stroke-linejoin:round; stroke-width:4; stroke-opacity:1; fill:none" points="
  739.055,853.108 754.88,683.175 770.705,586.879 786.531,524.571 802.356,479.255 818.181,479.255 834.006,450.933 849.832,422.611 865.657,411.282 881.482,433.94 
  897.307,422.611 913.133,405.618 928.958,422.611 944.783,450.933 960.608,433.94 976.434,433.94 992.259,439.604 1008.08,416.946 1023.91,450.933 1039.73,439.604 
  1055.56,456.597 1071.39,439.604 1087.21,422.611 1103.04,445.269 1118.86,422.611 1134.69,416.946 1150.51,416.946 1166.34,405.618 1182.16,388.624 1197.99,388.624 
  1213.81,411.282 1229.64,422.611 1245.46,433.94 1261.29,411.282 1277.11,399.953 1292.94,411.282 1308.76,416.946 1324.59,399.953 1340.41,411.282 1356.24,416.946 
  1372.06,411.282 1387.89,416.946 1403.72,399.953 1419.54,399.953 1435.37,405.618 1451.19,382.96 1467.02,343.309 1482.84,348.973 1498.67,354.638 1514.49,360.302 
  1530.32,360.302 1546.14,354.638 1561.97,360.302 1577.79,377.295 1593.62,382.96 1609.44,343.309 1625.27,320.651 1641.09,320.651 1656.92,348.973 1672.74,348.973 
  1688.57,309.322 1704.4,314.987 1720.22,314.987 1736.05,331.98 1751.87,314.987 1767.7,320.651 1783.52,320.651 1799.35,337.644 1815.17,320.651 1831,309.322 
  1846.82,297.993 1862.65,264.007 1878.47,258.342 1894.3,235.685 1910.12,224.356 1925.95,224.356 1941.77,218.691 1957.6,218.691 1973.42,224.356 1989.25,247.013 
  2005.08,247.013 2020.9,224.356 2036.73,207.362 2052.55,184.705 2068.38,184.705 2084.2,196.034 2100.03,184.705 2115.85,167.711 2131.68,167.711 2147.5,179.04 
  2163.33,173.376 2179.15,179.04 2194.98,179.04 2210.8,179.04 2226.63,173.376 2242.45,184.705 2258.28,184.705 2274.1,173.376 2289.93,162.047 2305.75,167.711 
  
  "/>
<path clip-path="url(#clip200)" d="
M114.058 324.425 L448.34 324.425 L448.34 168.905 L114.058 168.905  Z
  " fill="#ffffff" fill-rule="evenodd" fill-opacity="1"/>
<polyline clip-path="url(#clip200)" style="stroke:#000000; stroke-linecap:butt; stroke-linejoin:round; stroke-width:4; stroke-opacity:1; fill:none" points="
  114.058,324.425 448.34,324.425 448.34,168.905 114.058,168.905 114.058,324.425 
  "/>
<polyline clip-path="url(#clip200)" style="stroke:#009af9; stroke-linecap:butt; stroke-linejoin:round; stroke-width:4; stroke-opacity:1; fill:none" points="
  138.058,220.745 282.058,220.745 
  "/>
<path clip-path="url(#clip200)" d="M321.891 208.071 L315.549 225.27 L328.257 225.27 L321.891 208.071 M319.252 203.465 L324.553 203.465 L337.724 238.025 L332.863 238.025 L329.715 229.159 L314.137 229.159 L310.988 238.025 L306.058 238.025 L319.252 203.465 Z" fill="#000000" fill-rule="evenodd" fill-opacity="1" /><path clip-path="url(#clip200)" d="M347.447 221.52 L347.447 234.182 L354.947 234.182 Q358.72 234.182 360.525 232.631 Q362.354 231.057 362.354 227.84 Q362.354 224.599 360.525 223.071 Q358.72 221.52 354.947 221.52 L347.447 221.52 M347.447 207.307 L347.447 217.724 L354.368 217.724 Q357.794 217.724 359.46 216.451 Q361.15 215.154 361.15 212.516 Q361.15 209.9 359.46 208.604 Q357.794 207.307 354.368 207.307 L347.447 207.307 M342.771 203.465 L354.715 203.465 Q360.062 203.465 362.956 205.687 Q365.849 207.909 365.849 212.006 Q365.849 215.178 364.368 217.053 Q362.886 218.928 360.016 219.39 Q363.465 220.131 365.363 222.492 Q367.284 224.83 367.284 228.349 Q367.284 232.978 364.136 235.502 Q360.988 238.025 355.178 238.025 L342.771 238.025 L342.771 203.465 Z" fill="#000000" fill-rule="evenodd" fill-opacity="1" /><path clip-path="url(#clip200)" d="M400.34 206.127 L400.34 211.057 Q397.979 208.858 395.294 207.77 Q392.632 206.682 389.622 206.682 Q383.696 206.682 380.548 210.316 Q377.4 213.928 377.4 220.779 Q377.4 227.608 380.548 231.242 Q383.696 234.853 389.622 234.853 Q392.632 234.853 395.294 233.765 Q397.979 232.677 400.34 230.478 L400.34 235.363 Q397.886 237.029 395.132 237.863 Q392.4 238.696 389.345 238.696 Q381.497 238.696 376.983 233.904 Q372.47 229.09 372.47 220.779 Q372.47 212.446 376.983 207.654 Q381.497 202.84 389.345 202.84 Q392.446 202.84 395.178 203.673 Q397.932 204.483 400.34 206.127 Z" fill="#000000" fill-rule="evenodd" fill-opacity="1" /><polyline clip-path="url(#clip200)" style="stroke:#e26f46; stroke-linecap:butt; stroke-linejoin:round; stroke-width:4; stroke-opacity:1; fill:none" points="
  138.058,272.585 282.058,272.585 
  "/>
<path clip-path="url(#clip200)" d="M310.734 273.36 L310.734 286.022 L318.234 286.022 Q322.007 286.022 323.812 284.471 Q325.641 282.897 325.641 279.68 Q325.641 276.439 323.812 274.911 Q322.007 273.36 318.234 273.36 L310.734 273.36 M310.734 259.147 L310.734 269.564 L317.655 269.564 Q321.081 269.564 322.748 268.291 Q324.437 266.994 324.437 264.356 Q324.437 261.74 322.748 260.444 Q321.081 259.147 317.655 259.147 L310.734 259.147 M306.058 255.305 L318.002 255.305 Q323.35 255.305 326.243 257.527 Q329.137 259.749 329.137 263.846 Q329.137 267.018 327.655 268.893 Q326.174 270.768 323.303 271.23 Q326.752 271.971 328.65 274.332 Q330.572 276.67 330.572 280.189 Q330.572 284.818 327.424 287.342 Q324.275 289.865 318.465 289.865 L306.058 289.865 L306.058 255.305 Z" fill="#000000" fill-rule="evenodd" fill-opacity="1" /><path clip-path="url(#clip200)" d="M343.257 259.147 L343.257 272.133 L349.136 272.133 Q352.4 272.133 354.183 270.443 Q355.965 268.754 355.965 265.629 Q355.965 262.527 354.183 260.837 Q352.4 259.147 349.136 259.147 L343.257 259.147 M338.581 255.305 L349.136 255.305 Q354.947 255.305 357.91 257.944 Q360.896 260.559 360.896 265.629 Q360.896 270.744 357.91 273.36 Q354.947 275.976 349.136 275.976 L343.257 275.976 L343.257 289.865 L338.581 289.865 L338.581 255.305 Z" fill="#000000" fill-rule="evenodd" fill-opacity="1" /></svg>
