<?xml version="1.0" encoding="utf-8"?>
<svg xmlns="http://www.w3.org/2000/svg" xmlns:xlink="http://www.w3.org/1999/xlink" width="600" height="400" viewBox="0 0 2400 1600">
<defs>
  <clipPath id="clip400">
    <rect x="0" y="0" width="2400" height="1600"/>
  </clipPath>
</defs>
<path clip-path="url(#clip400)" d="
M0 1600 L2400 1600 L2400 0 L0 0  Z
  " fill="#ffffff" fill-rule="evenodd" fill-opacity="1"/>
<defs>
  <clipPath id="clip401">
    <rect x="480" y="0" width="1681" height="1600"/>
  </clipPath>
</defs>
<path clip-path="url(#clip400)" d="
M693.01 1486.45 L2352.76 1486.45 L2352.76 123.472 L693.01 123.472  Z
  " fill="#ffffff" fill-rule="evenodd" fill-opacity="1"/>
<defs>
  <clipPath id="clip402">
    <rect x="693" y="123" width="1661" height="1364"/>
  </clipPath>
</defs>
<polyline clip-path="url(#clip402)" style="stroke:#000000; stroke-linecap:butt; stroke-linejoin:round; stroke-width:2; stroke-opacity:0.1; fill:none" points="
  724.168,1486.45 724.168,123.472 
  "/>
<polyline clip-path="url(#clip402)" style="stroke:#000000; stroke-linecap:butt; stroke-linejoin:round; stroke-width:2; stroke-opacity:0.1; fill:none" points="
  1119.57,1486.45 1119.57,123.472 
  "/>
<polyline clip-path="url(#clip402)" style="stroke:#000000; stroke-linecap:butt; stroke-linejoin:round; stroke-width:2; stroke-opacity:0.1; fill:none" points="
  1514.97,1486.45 1514.97,123.472 
  "/>
<polyline clip-path="url(#clip402)" style="stroke:#000000; stroke-linecap:butt; stroke-linejoin:round; stroke-width:2; stroke-opacity:0.1; fill:none" points="
  1910.38,1486.45 1910.38,123.472 
  "/>
<polyline clip-path="url(#clip402)" style="stroke:#000000; stroke-linecap:butt; stroke-linejoin:round; stroke-width:2; stroke-opacity:0.1; fill:none" points="
  2305.78,1486.45 2305.78,123.472 
  "/>
<polyline clip-path="url(#clip400)" style="stroke:#000000; stroke-linecap:butt; stroke-linejoin:round; stroke-width:4; stroke-opacity:1; fill:none" points="
  693.01,1486.45 2352.76,1486.45 
  "/>
<polyline clip-path="url(#clip400)" style="stroke:#000000; stroke-linecap:butt; stroke-linejoin:round; stroke-width:4; stroke-opacity:1; fill:none" points="
  724.168,1486.45 724.168,1467.55 
  "/>
<polyline clip-path="url(#clip400)" style="stroke:#000000; stroke-linecap:butt; stroke-linejoin:round; stroke-width:4; stroke-opacity:1; fill:none" points="
  1119.57,1486.45 1119.57,1467.55 
  "/>
<polyline clip-path="url(#clip400)" style="stroke:#000000; stroke-linecap:butt; stroke-linejoin:round; stroke-width:4; stroke-opacity:1; fill:none" points="
  1514.97,1486.45 1514.97,1467.55 
  "/>
<polyline clip-path="url(#clip400)" style="stroke:#000000; stroke-linecap:butt; stroke-linejoin:round; stroke-width:4; stroke-opacity:1; fill:none" points="
  1910.38,1486.45 1910.38,1467.55 
  "/>
<polyline clip-path="url(#clip400)" style="stroke:#000000; stroke-linecap:butt; stroke-linejoin:round; stroke-width:4; stroke-opacity:1; fill:none" points="
  2305.78,1486.45 2305.78,1467.55 
  "/>
<path clip-path="url(#clip400)" d="M724.168 1517.37 Q720.557 1517.37 718.728 1520.93 Q716.922 1524.47 716.922 1531.6 Q716.922 1538.71 718.728 1542.27 Q720.557 1545.82 724.168 1545.82 Q727.802 1545.82 729.607 1542.27 Q731.436 1538.71 731.436 1531.6 Q731.436 1524.47 729.607 1520.93 Q727.802 1517.37 724.168 1517.37 M724.168 1513.66 Q729.978 1513.66 733.033 1518.27 Q736.112 1522.85 736.112 1531.6 Q736.112 1540.33 733.033 1544.94 Q729.978 1549.52 724.168 1549.52 Q718.358 1549.52 715.279 1544.94 Q712.223 1540.33 712.223 1531.6 Q712.223 1522.85 715.279 1518.27 Q718.358 1513.66 724.168 1513.66 Z" fill="#000000" fill-rule="evenodd" fill-opacity="1" /><path clip-path="url(#clip400)" d="M1098.84 1544.91 L1115.16 1544.91 L1115.16 1548.85 L1093.22 1548.85 L1093.22 1544.91 Q1095.88 1542.16 1100.46 1537.53 Q1105.07 1532.88 1106.25 1531.53 Q1108.49 1529.01 1109.37 1527.27 Q1110.28 1525.51 1110.28 1523.82 Q1110.28 1521.07 1108.33 1519.33 Q1106.41 1517.6 1103.31 1517.6 Q1101.11 1517.6 1098.66 1518.36 Q1096.23 1519.13 1093.45 1520.68 L1093.45 1515.95 Q1096.27 1514.82 1098.73 1514.24 Q1101.18 1513.66 1103.22 1513.66 Q1108.59 1513.66 1111.78 1516.35 Q1114.98 1519.03 1114.98 1523.52 Q1114.98 1525.65 1114.17 1527.57 Q1113.38 1529.47 1111.27 1532.07 Q1110.69 1532.74 1107.59 1535.95 Q1104.49 1539.15 1098.84 1544.91 Z" fill="#000000" fill-rule="evenodd" fill-opacity="1" /><path clip-path="url(#clip400)" d="M1125.02 1514.29 L1143.38 1514.29 L1143.38 1518.22 L1129.3 1518.22 L1129.3 1526.7 Q1130.32 1526.35 1131.34 1526.19 Q1132.36 1526 1133.38 1526 Q1139.17 1526 1142.55 1529.17 Q1145.93 1532.34 1145.93 1537.76 Q1145.93 1543.34 1142.45 1546.44 Q1138.98 1549.52 1132.66 1549.52 Q1130.49 1549.52 1128.22 1549.15 Q1125.97 1548.78 1123.56 1548.04 L1123.56 1543.34 Q1125.65 1544.47 1127.87 1545.03 Q1130.09 1545.58 1132.57 1545.58 Q1136.57 1545.58 1138.91 1543.48 Q1141.25 1541.37 1141.25 1537.76 Q1141.25 1534.15 1138.91 1532.04 Q1136.57 1529.94 1132.57 1529.94 Q1130.69 1529.94 1128.82 1530.35 Q1126.97 1530.77 1125.02 1531.65 L1125.02 1514.29 Z" fill="#000000" fill-rule="evenodd" fill-opacity="1" /><path clip-path="url(#clip400)" d="M1489.67 1514.29 L1508.03 1514.29 L1508.03 1518.22 L1493.96 1518.22 L1493.96 1526.7 Q1494.97 1526.35 1495.99 1526.19 Q1497.01 1526 1498.03 1526 Q1503.82 1526 1507.2 1529.17 Q1510.58 1532.34 1510.58 1537.76 Q1510.58 1543.34 1507.1 1546.44 Q1503.63 1549.52 1497.31 1549.52 Q1495.14 1549.52 1492.87 1549.15 Q1490.62 1548.78 1488.22 1548.04 L1488.22 1543.34 Q1490.3 1544.47 1492.52 1545.03 Q1494.74 1545.58 1497.22 1545.58 Q1501.22 1545.58 1503.56 1543.48 Q1505.9 1541.37 1505.9 1537.76 Q1505.9 1534.15 1503.56 1532.04 Q1501.22 1529.94 1497.22 1529.94 Q1495.35 1529.94 1493.47 1530.35 Q1491.62 1530.77 1489.67 1531.65 L1489.67 1514.29 Z" fill="#000000" fill-rule="evenodd" fill-opacity="1" /><path clip-path="url(#clip400)" d="M1529.79 1517.37 Q1526.18 1517.37 1524.35 1520.93 Q1522.54 1524.47 1522.54 1531.6 Q1522.54 1538.71 1524.35 1542.27 Q1526.18 1545.82 1529.79 1545.82 Q1533.42 1545.82 1535.23 1542.27 Q1537.06 1538.71 1537.06 1531.6 Q1537.06 1524.47 1535.23 1520.93 Q1533.42 1517.37 1529.79 1517.37 M1529.79 1513.66 Q1535.6 1513.66 1538.66 1518.27 Q1541.73 1522.85 1541.73 1531.6 Q1541.73 1540.33 1538.66 1544.94 Q1535.6 1549.52 1529.79 1549.52 Q1523.98 1549.52 1520.9 1544.94 Q1517.85 1540.33 1517.85 1531.6 Q1517.85 1522.85 1520.9 1518.27 Q1523.98 1513.66 1529.79 1513.66 Z" fill="#000000" fill-rule="evenodd" fill-opacity="1" /><path clip-path="url(#clip400)" d="M1884.23 1514.29 L1906.45 1514.29 L1906.45 1516.28 L1893.91 1548.85 L1889.02 1548.85 L1900.83 1518.22 L1884.23 1518.22 L1884.23 1514.29 Z" fill="#000000" fill-rule="evenodd" fill-opacity="1" /><path clip-path="url(#clip400)" d="M1915.62 1514.29 L1933.98 1514.29 L1933.98 1518.22 L1919.9 1518.22 L1919.9 1526.7 Q1920.92 1526.35 1921.94 1526.19 Q1922.96 1526 1923.98 1526 Q1929.76 1526 1933.14 1529.17 Q1936.52 1532.34 1936.52 1537.76 Q1936.52 1543.34 1933.05 1546.44 Q1929.58 1549.52 1923.26 1549.52 Q1921.08 1549.52 1918.82 1549.15 Q1916.57 1548.78 1914.16 1548.04 L1914.16 1543.34 Q1916.25 1544.47 1918.47 1545.03 Q1920.69 1545.58 1923.17 1545.58 Q1927.17 1545.58 1929.51 1543.48 Q1931.85 1541.37 1931.85 1537.76 Q1931.85 1534.15 1929.51 1532.04 Q1927.17 1529.94 1923.17 1529.94 Q1921.29 1529.94 1919.42 1530.35 Q1917.57 1530.77 1915.62 1531.65 L1915.62 1514.29 Z" fill="#000000" fill-rule="evenodd" fill-opacity="1" /><path clip-path="url(#clip400)" d="M2265.39 1544.91 L2273.03 1544.91 L2273.03 1518.55 L2264.72 1520.21 L2264.72 1515.95 L2272.98 1514.29 L2277.66 1514.29 L2277.66 1544.91 L2285.3 1544.91 L2285.3 1548.85 L2265.39 1548.85 L2265.39 1544.91 Z" fill="#000000" fill-rule="evenodd" fill-opacity="1" /><path clip-path="url(#clip400)" d="M2304.74 1517.37 Q2301.13 1517.37 2299.3 1520.93 Q2297.49 1524.47 2297.49 1531.6 Q2297.49 1538.71 2299.3 1542.27 Q2301.13 1545.82 2304.74 1545.82 Q2308.37 1545.82 2310.18 1542.27 Q2312.01 1538.71 2312.01 1531.6 Q2312.01 1524.47 2310.18 1520.93 Q2308.37 1517.37 2304.74 1517.37 M2304.74 1513.66 Q2310.55 1513.66 2313.61 1518.27 Q2316.68 1522.85 2316.68 1531.6 Q2316.68 1540.33 2313.61 1544.94 Q2310.55 1549.52 2304.74 1549.52 Q2298.93 1549.52 2295.85 1544.94 Q2292.8 1540.33 2292.8 1531.6 Q2292.8 1522.85 2295.85 1518.27 Q2298.93 1513.66 2304.74 1513.66 Z" fill="#000000" fill-rule="evenodd" fill-opacity="1" /><path clip-path="url(#clip400)" d="M2334.9 1517.37 Q2331.29 1517.37 2329.46 1520.93 Q2327.66 1524.47 2327.66 1531.6 Q2327.66 1538.71 2329.46 1542.27 Q2331.29 1545.82 2334.9 1545.82 Q2338.54 1545.82 2340.34 1542.27 Q2342.17 1538.71 2342.17 1531.6 Q2342.17 1524.47 2340.34 1520.93 Q2338.54 1517.37 2334.9 1517.37 M2334.9 1513.66 Q2340.71 1513.66 2343.77 1518.27 Q2346.85 1522.85 2346.85 1531.6 Q2346.85 1540.33 2343.77 1544.94 Q2340.71 1549.52 2334.9 1549.52 Q2329.09 1549.52 2326.01 1544.94 Q2322.96 1540.33 2322.96 1531.6 Q2322.96 1522.85 2326.01 1518.27 Q2329.09 1513.66 2334.9 1513.66 Z" fill="#000000" fill-rule="evenodd" fill-opacity="1" /><polyline clip-path="url(#clip402)" style="stroke:#000000; stroke-linecap:butt; stroke-linejoin:round; stroke-width:2; stroke-opacity:0.1; fill:none" points="
  693.01,1367.09 2352.76,1367.09 
  "/>
<polyline clip-path="url(#clip402)" style="stroke:#000000; stroke-linecap:butt; stroke-linejoin:round; stroke-width:2; stroke-opacity:0.1; fill:none" points="
  693.01,1180.21 2352.76,1180.21 
  "/>
<polyline clip-path="url(#clip402)" style="stroke:#000000; stroke-linecap:butt; stroke-linejoin:round; stroke-width:2; stroke-opacity:0.1; fill:none" points="
  693.01,993.323 2352.76,993.323 
  "/>
<polyline clip-path="url(#clip402)" style="stroke:#000000; stroke-linecap:butt; stroke-linejoin:round; stroke-width:2; stroke-opacity:0.1; fill:none" points="
  693.01,806.441 2352.76,806.441 
  "/>
<polyline clip-path="url(#clip402)" style="stroke:#000000; stroke-linecap:butt; stroke-linejoin:round; stroke-width:2; stroke-opacity:0.1; fill:none" points="
  693.01,619.559 2352.76,619.559 
  "/>
<polyline clip-path="url(#clip402)" style="stroke:#000000; stroke-linecap:butt; stroke-linejoin:round; stroke-width:2; stroke-opacity:0.1; fill:none" points="
  693.01,432.676 2352.76,432.676 
  "/>
<polyline clip-path="url(#clip402)" style="stroke:#000000; stroke-linecap:butt; stroke-linejoin:round; stroke-width:2; stroke-opacity:0.1; fill:none" points="
  693.01,245.794 2352.76,245.794 
  "/>
<polyline clip-path="url(#clip400)" style="stroke:#000000; stroke-linecap:butt; stroke-linejoin:round; stroke-width:4; stroke-opacity:1; fill:none" points="
  693.01,1486.45 693.01,123.472 
  "/>
<polyline clip-path="url(#clip400)" style="stroke:#000000; stroke-linecap:butt; stroke-linejoin:round; stroke-width:4; stroke-opacity:1; fill:none" points="
  693.01,1367.09 707.491,1367.09 
  "/>
<polyline clip-path="url(#clip400)" style="stroke:#000000; stroke-linecap:butt; stroke-linejoin:round; stroke-width:4; stroke-opacity:1; fill:none" points="
  693.01,1180.21 707.491,1180.21 
  "/>
<polyline clip-path="url(#clip400)" style="stroke:#000000; stroke-linecap:butt; stroke-linejoin:round; stroke-width:4; stroke-opacity:1; fill:none" points="
  693.01,993.323 707.491,993.323 
  "/>
<polyline clip-path="url(#clip400)" style="stroke:#000000; stroke-linecap:butt; stroke-linejoin:round; stroke-width:4; stroke-opacity:1; fill:none" points="
  693.01,806.441 707.491,806.441 
  "/>
<polyline clip-path="url(#clip400)" style="stroke:#000000; stroke-linecap:butt; stroke-linejoin:round; stroke-width:4; stroke-opacity:1; fill:none" points="
  693.01,619.559 707.491,619.559 
  "/>
<polyline clip-path="url(#clip400)" style="stroke:#000000; stroke-linecap:butt; stroke-linejoin:round; stroke-width:4; stroke-opacity:1; fill:none" points="
  693.01,432.676 707.491,432.676 
  "/>
<polyline clip-path="url(#clip400)" style="stroke:#000000; stroke-linecap:butt; stroke-linejoin:round; stroke-width:4; stroke-opacity:1; fill:none" points="
  693.01,245.794 707.491,245.794 
  "/>
<path clip-path="url(#clip400)" d="M569.672 1352.89 Q566.061 1352.89 564.233 1356.45 Q562.427 1359.99 562.427 1367.12 Q562.427 1374.23 564.233 1377.79 Q566.061 1381.34 569.672 1381.34 Q573.307 1381.34 575.112 1377.79 Q576.941 1374.23 576.941 1367.12 Q576.941 1359.99 575.112 1356.45 Q573.307 1352.89 569.672 1352.89 M569.672 1349.18 Q575.483 1349.18 578.538 1353.79 Q581.617 1358.37 581.617 1367.12 Q581.617 1375.85 578.538 1380.46 Q575.483 1385.04 569.672 1385.04 Q563.862 1385.04 560.784 1380.46 Q557.728 1375.85 557.728 1367.12 Q557.728 1358.37 560.784 1353.79 Q563.862 1349.18 569.672 1349.18 Z" fill="#000000" fill-rule="evenodd" fill-opacity="1" /><path clip-path="url(#clip400)" d="M589.834 1378.49 L594.719 1378.49 L594.719 1384.37 L589.834 1384.37 L589.834 1378.49 Z" fill="#000000" fill-rule="evenodd" fill-opacity="1" /><path clip-path="url(#clip400)" d="M604.95 1349.81 L623.306 1349.81 L623.306 1353.74 L609.232 1353.74 L609.232 1362.22 Q610.251 1361.87 611.269 1361.71 Q612.288 1361.52 613.306 1361.52 Q619.093 1361.52 622.473 1364.69 Q625.853 1367.86 625.853 1373.28 Q625.853 1378.86 622.38 1381.96 Q618.908 1385.04 612.589 1385.04 Q610.413 1385.04 608.144 1384.67 Q605.899 1384.3 603.492 1383.56 L603.492 1378.86 Q605.575 1379.99 607.797 1380.55 Q610.019 1381.1 612.496 1381.1 Q616.501 1381.1 618.839 1379 Q621.177 1376.89 621.177 1373.28 Q621.177 1369.67 618.839 1367.56 Q616.501 1365.46 612.496 1365.46 Q610.621 1365.46 608.746 1365.87 Q606.894 1366.29 604.95 1367.17 L604.95 1349.81 Z" fill="#000000" fill-rule="evenodd" fill-opacity="1" /><path clip-path="url(#clip400)" d="M645.065 1352.89 Q641.454 1352.89 639.626 1356.45 Q637.82 1359.99 637.82 1367.12 Q637.82 1374.23 639.626 1377.79 Q641.454 1381.34 645.065 1381.34 Q648.7 1381.34 650.505 1377.79 Q652.334 1374.23 652.334 1367.12 Q652.334 1359.99 650.505 1356.45 Q648.7 1352.89 645.065 1352.89 M645.065 1349.18 Q650.876 1349.18 653.931 1353.79 Q657.01 1358.37 657.01 1367.12 Q657.01 1375.85 653.931 1380.46 Q650.876 1385.04 645.065 1385.04 Q639.255 1385.04 636.177 1380.46 Q633.121 1375.85 633.121 1367.12 Q633.121 1358.37 636.177 1353.79 Q639.255 1349.18 645.065 1349.18 Z" fill="#000000" fill-rule="evenodd" fill-opacity="1" /><path clip-path="url(#clip400)" d="M571.27 1166 Q567.658 1166 565.83 1169.57 Q564.024 1173.11 564.024 1180.24 Q564.024 1187.35 565.83 1190.91 Q567.658 1194.45 571.27 1194.45 Q574.904 1194.45 576.709 1190.91 Q578.538 1187.35 578.538 1180.24 Q578.538 1173.11 576.709 1169.57 Q574.904 1166 571.27 1166 M571.27 1162.3 Q577.08 1162.3 580.135 1166.91 Q583.214 1171.49 583.214 1180.24 Q583.214 1188.97 580.135 1193.57 Q577.08 1198.16 571.27 1198.16 Q565.459 1198.16 562.381 1193.57 Q559.325 1188.97 559.325 1180.24 Q559.325 1171.49 562.381 1166.91 Q565.459 1162.3 571.27 1162.3 Z" fill="#000000" fill-rule="evenodd" fill-opacity="1" /><path clip-path="url(#clip400)" d="M591.432 1191.61 L596.316 1191.61 L596.316 1197.49 L591.432 1197.49 L591.432 1191.61 Z" fill="#000000" fill-rule="evenodd" fill-opacity="1" /><path clip-path="url(#clip400)" d="M606.547 1162.93 L624.904 1162.93 L624.904 1166.86 L610.83 1166.86 L610.83 1175.33 Q611.848 1174.99 612.867 1174.82 Q613.885 1174.64 614.904 1174.64 Q620.691 1174.64 624.07 1177.81 Q627.45 1180.98 627.45 1186.4 Q627.45 1191.98 623.978 1195.08 Q620.505 1198.16 614.186 1198.16 Q612.01 1198.16 609.742 1197.79 Q607.496 1197.42 605.089 1196.68 L605.089 1191.98 Q607.172 1193.11 609.394 1193.67 Q611.617 1194.22 614.093 1194.22 Q618.098 1194.22 620.436 1192.12 Q622.774 1190.01 622.774 1186.4 Q622.774 1182.79 620.436 1180.68 Q618.098 1178.57 614.093 1178.57 Q612.218 1178.57 610.343 1178.99 Q608.492 1179.41 606.547 1180.29 L606.547 1162.93 Z" fill="#000000" fill-rule="evenodd" fill-opacity="1" /><path clip-path="url(#clip400)" d="M640.69 1193.55 L657.01 1193.55 L657.01 1197.49 L635.066 1197.49 L635.066 1193.55 Q637.728 1190.8 642.311 1186.17 Q646.917 1181.51 648.098 1180.17 Q650.343 1177.65 651.223 1175.91 Q652.126 1174.15 652.126 1172.46 Q652.126 1169.71 650.181 1167.97 Q648.26 1166.24 645.158 1166.24 Q642.959 1166.24 640.505 1167 Q638.075 1167.76 635.297 1169.31 L635.297 1164.59 Q638.121 1163.46 640.575 1162.88 Q643.028 1162.3 645.065 1162.3 Q650.436 1162.3 653.63 1164.99 Q656.825 1167.67 656.825 1172.16 Q656.825 1174.29 656.014 1176.21 Q655.227 1178.11 653.121 1180.7 Q652.542 1181.37 649.44 1184.59 Q646.339 1187.79 640.69 1193.55 Z" fill="#000000" fill-rule="evenodd" fill-opacity="1" /><path clip-path="url(#clip400)" d="M569.186 979.122 Q565.575 979.122 563.746 982.687 Q561.941 986.229 561.941 993.358 Q561.941 1000.46 563.746 1004.03 Q565.575 1007.57 569.186 1007.57 Q572.82 1007.57 574.626 1004.03 Q576.455 1000.46 576.455 993.358 Q576.455 986.229 574.626 982.687 Q572.82 979.122 569.186 979.122 M569.186 975.418 Q574.996 975.418 578.052 980.025 Q581.131 984.608 581.131 993.358 Q581.131 1002.08 578.052 1006.69 Q574.996 1011.27 569.186 1011.27 Q563.376 1011.27 560.297 1006.69 Q557.242 1002.08 557.242 993.358 Q557.242 984.608 560.297 980.025 Q563.376 975.418 569.186 975.418 Z" fill="#000000" fill-rule="evenodd" fill-opacity="1" /><path clip-path="url(#clip400)" d="M589.348 1004.72 L594.232 1004.72 L594.232 1010.6 L589.348 1010.6 L589.348 1004.72 Z" fill="#000000" fill-rule="evenodd" fill-opacity="1" /><path clip-path="url(#clip400)" d="M604.464 976.043 L622.82 976.043 L622.82 979.979 L608.746 979.979 L608.746 988.451 Q609.765 988.104 610.783 987.942 Q611.802 987.756 612.82 987.756 Q618.607 987.756 621.987 990.928 Q625.367 994.099 625.367 999.516 Q625.367 1005.09 621.894 1008.2 Q618.422 1011.27 612.103 1011.27 Q609.927 1011.27 607.658 1010.9 Q605.413 1010.53 603.006 1009.79 L603.006 1005.09 Q605.089 1006.23 607.311 1006.78 Q609.533 1007.34 612.01 1007.34 Q616.015 1007.34 618.353 1005.23 Q620.691 1003.13 620.691 999.516 Q620.691 995.904 618.353 993.798 Q616.015 991.692 612.01 991.692 Q610.135 991.692 608.26 992.108 Q606.408 992.525 604.464 993.404 L604.464 976.043 Z" fill="#000000" fill-rule="evenodd" fill-opacity="1" /><path clip-path="url(#clip400)" d="M647.427 980.117 L635.621 998.566 L647.427 998.566 L647.427 980.117 M646.2 976.043 L652.079 976.043 L652.079 998.566 L657.01 998.566 L657.01 1002.46 L652.079 1002.46 L652.079 1010.6 L647.427 1010.6 L647.427 1002.46 L631.825 1002.46 L631.825 997.941 L646.2 976.043 Z" fill="#000000" fill-rule="evenodd" fill-opacity="1" /><path clip-path="url(#clip400)" d="M569.51 792.24 Q565.899 792.24 564.071 795.805 Q562.265 799.346 562.265 806.476 Q562.265 813.582 564.071 817.147 Q565.899 820.689 569.51 820.689 Q573.145 820.689 574.95 817.147 Q576.779 813.582 576.779 806.476 Q576.779 799.346 574.95 795.805 Q573.145 792.24 569.51 792.24 M569.51 788.536 Q575.32 788.536 578.376 793.143 Q581.455 797.726 581.455 806.476 Q581.455 815.203 578.376 819.809 Q575.32 824.392 569.51 824.392 Q563.7 824.392 560.621 819.809 Q557.566 815.203 557.566 806.476 Q557.566 797.726 560.621 793.143 Q563.7 788.536 569.51 788.536 Z" fill="#000000" fill-rule="evenodd" fill-opacity="1" /><path clip-path="url(#clip400)" d="M589.672 817.841 L594.556 817.841 L594.556 823.721 L589.672 823.721 L589.672 817.841 Z" fill="#000000" fill-rule="evenodd" fill-opacity="1" /><path clip-path="url(#clip400)" d="M604.788 789.161 L623.144 789.161 L623.144 793.096 L609.07 793.096 L609.07 801.568 Q610.089 801.221 611.107 801.059 Q612.126 800.874 613.144 800.874 Q618.931 800.874 622.311 804.045 Q625.691 807.217 625.691 812.633 Q625.691 818.212 622.218 821.314 Q618.746 824.392 612.427 824.392 Q610.251 824.392 607.982 824.022 Q605.737 823.652 603.33 822.911 L603.33 818.212 Q605.413 819.346 607.635 819.902 Q609.857 820.457 612.334 820.457 Q616.339 820.457 618.677 818.351 Q621.015 816.244 621.015 812.633 Q621.015 809.022 618.677 806.916 Q616.339 804.809 612.334 804.809 Q610.459 804.809 608.584 805.226 Q606.732 805.642 604.788 806.522 L604.788 789.161 Z" fill="#000000" fill-rule="evenodd" fill-opacity="1" /><path clip-path="url(#clip400)" d="M645.482 804.578 Q642.334 804.578 640.482 806.73 Q638.653 808.883 638.653 812.633 Q638.653 816.36 640.482 818.536 Q642.334 820.689 645.482 820.689 Q648.63 820.689 650.459 818.536 Q652.311 816.36 652.311 812.633 Q652.311 808.883 650.459 806.73 Q648.63 804.578 645.482 804.578 M654.764 789.925 L654.764 794.184 Q653.005 793.351 651.2 792.911 Q649.417 792.471 647.658 792.471 Q643.028 792.471 640.575 795.596 Q638.144 798.721 637.797 805.041 Q639.163 803.027 641.223 801.962 Q643.283 800.874 645.76 800.874 Q650.968 800.874 653.977 804.045 Q657.01 807.193 657.01 812.633 Q657.01 817.957 653.862 821.175 Q650.714 824.392 645.482 824.392 Q639.487 824.392 636.316 819.809 Q633.144 815.203 633.144 806.476 Q633.144 798.281 637.033 793.42 Q640.922 788.536 647.473 788.536 Q649.232 788.536 651.015 788.883 Q652.82 789.231 654.764 789.925 Z" fill="#000000" fill-rule="evenodd" fill-opacity="1" /><path clip-path="url(#clip400)" d="M569.765 605.357 Q566.154 605.357 564.325 608.922 Q562.52 612.464 562.52 619.593 Q562.52 626.7 564.325 630.265 Q566.154 633.806 569.765 633.806 Q573.399 633.806 575.205 630.265 Q577.033 626.7 577.033 619.593 Q577.033 612.464 575.205 608.922 Q573.399 605.357 569.765 605.357 M569.765 601.654 Q575.575 601.654 578.631 606.26 Q581.709 610.843 581.709 619.593 Q581.709 628.32 578.631 632.927 Q575.575 637.51 569.765 637.51 Q563.955 637.51 560.876 632.927 Q557.821 628.32 557.821 619.593 Q557.821 610.843 560.876 606.26 Q563.955 601.654 569.765 601.654 Z" fill="#000000" fill-rule="evenodd" fill-opacity="1" /><path clip-path="url(#clip400)" d="M589.927 630.959 L594.811 630.959 L594.811 636.839 L589.927 636.839 L589.927 630.959 Z" fill="#000000" fill-rule="evenodd" fill-opacity="1" /><path clip-path="url(#clip400)" d="M605.043 602.279 L623.399 602.279 L623.399 606.214 L609.325 606.214 L609.325 614.686 Q610.343 614.339 611.362 614.177 Q612.38 613.992 613.399 613.992 Q619.186 613.992 622.566 617.163 Q625.945 620.334 625.945 625.751 Q625.945 631.329 622.473 634.431 Q619.001 637.51 612.681 637.51 Q610.505 637.51 608.237 637.14 Q605.992 636.769 603.584 636.028 L603.584 631.329 Q605.668 632.464 607.89 633.019 Q610.112 633.575 612.589 633.575 Q616.593 633.575 618.931 631.468 Q621.269 629.362 621.269 625.751 Q621.269 622.14 618.931 620.033 Q616.593 617.927 612.589 617.927 Q610.714 617.927 608.839 618.343 Q606.987 618.76 605.043 619.64 L605.043 602.279 Z" fill="#000000" fill-rule="evenodd" fill-opacity="1" /><path clip-path="url(#clip400)" d="M645.158 620.427 Q641.825 620.427 639.903 622.209 Q638.005 623.992 638.005 627.117 Q638.005 630.241 639.903 632.024 Q641.825 633.806 645.158 633.806 Q648.491 633.806 650.413 632.024 Q652.334 630.218 652.334 627.117 Q652.334 623.992 650.413 622.209 Q648.515 620.427 645.158 620.427 M640.482 618.436 Q637.473 617.695 635.783 615.635 Q634.116 613.575 634.116 610.612 Q634.116 606.468 637.056 604.061 Q640.019 601.654 645.158 601.654 Q650.32 601.654 653.26 604.061 Q656.2 606.468 656.2 610.612 Q656.2 613.575 654.51 615.635 Q652.843 617.695 649.857 618.436 Q653.237 619.223 655.112 621.515 Q657.01 623.806 657.01 627.117 Q657.01 632.14 653.931 634.825 Q650.876 637.51 645.158 637.51 Q639.441 637.51 636.362 634.825 Q633.306 632.14 633.306 627.117 Q633.306 623.806 635.204 621.515 Q637.103 619.223 640.482 618.436 M638.769 611.052 Q638.769 613.737 640.436 615.242 Q642.126 616.746 645.158 616.746 Q648.167 616.746 649.857 615.242 Q651.57 613.737 651.57 611.052 Q651.57 608.367 649.857 606.862 Q648.167 605.357 645.158 605.357 Q642.126 605.357 640.436 606.862 Q638.769 608.367 638.769 611.052 Z" fill="#000000" fill-rule="evenodd" fill-opacity="1" /><path clip-path="url(#clip400)" d="M569.672 418.475 Q566.061 418.475 564.233 422.04 Q562.427 425.581 562.427 432.711 Q562.427 439.817 564.233 443.382 Q566.061 446.924 569.672 446.924 Q573.307 446.924 575.112 443.382 Q576.941 439.817 576.941 432.711 Q576.941 425.581 575.112 422.04 Q573.307 418.475 569.672 418.475 M569.672 414.771 Q575.483 414.771 578.538 419.378 Q581.617 423.961 581.617 432.711 Q581.617 441.438 578.538 446.044 Q575.483 450.628 569.672 450.628 Q563.862 450.628 560.784 446.044 Q557.728 441.438 557.728 432.711 Q557.728 423.961 560.784 419.378 Q563.862 414.771 569.672 414.771 Z" fill="#000000" fill-rule="evenodd" fill-opacity="1" /><path clip-path="url(#clip400)" d="M589.834 444.077 L594.719 444.077 L594.719 449.956 L589.834 449.956 L589.834 444.077 Z" fill="#000000" fill-rule="evenodd" fill-opacity="1" /><path clip-path="url(#clip400)" d="M615.482 430.813 Q612.334 430.813 610.482 432.966 Q608.654 435.118 608.654 438.868 Q608.654 442.595 610.482 444.771 Q612.334 446.924 615.482 446.924 Q618.63 446.924 620.459 444.771 Q622.311 442.595 622.311 438.868 Q622.311 435.118 620.459 432.966 Q618.63 430.813 615.482 430.813 M624.765 416.16 L624.765 420.419 Q623.005 419.586 621.2 419.146 Q619.417 418.706 617.658 418.706 Q613.029 418.706 610.575 421.831 Q608.144 424.956 607.797 431.276 Q609.163 429.262 611.223 428.197 Q613.283 427.109 615.76 427.109 Q620.968 427.109 623.978 430.28 Q627.01 433.429 627.01 438.868 Q627.01 444.192 623.862 447.41 Q620.714 450.628 615.482 450.628 Q609.487 450.628 606.316 446.044 Q603.144 441.438 603.144 432.711 Q603.144 424.517 607.033 419.656 Q610.922 414.771 617.473 414.771 Q619.232 414.771 621.015 415.119 Q622.82 415.466 624.765 416.16 Z" fill="#000000" fill-rule="evenodd" fill-opacity="1" /><path clip-path="url(#clip400)" d="M645.065 418.475 Q641.454 418.475 639.626 422.04 Q637.82 425.581 637.82 432.711 Q637.82 439.817 639.626 443.382 Q641.454 446.924 645.065 446.924 Q648.7 446.924 650.505 443.382 Q652.334 439.817 652.334 432.711 Q652.334 425.581 650.505 422.04 Q648.7 418.475 645.065 418.475 M645.065 414.771 Q650.876 414.771 653.931 419.378 Q657.01 423.961 657.01 432.711 Q657.01 441.438 653.931 446.044 Q650.876 450.628 645.065 450.628 Q639.255 450.628 636.177 446.044 Q633.121 441.438 633.121 432.711 Q633.121 423.961 636.177 419.378 Q639.255 414.771 645.065 414.771 Z" fill="#000000" fill-rule="evenodd" fill-opacity="1" /><path clip-path="url(#clip400)" d="M571.27 231.593 Q567.658 231.593 565.83 235.157 Q564.024 238.699 564.024 245.829 Q564.024 252.935 565.83 256.5 Q567.658 260.042 571.27 260.042 Q574.904 260.042 576.709 256.5 Q578.538 252.935 578.538 245.829 Q578.538 238.699 576.709 235.157 Q574.904 231.593 571.27 231.593 M571.27 227.889 Q577.08 227.889 580.135 232.495 Q583.214 237.079 583.214 245.829 Q583.214 254.555 580.135 259.162 Q577.08 263.745 571.27 263.745 Q565.459 263.745 562.381 259.162 Q559.325 254.555 559.325 245.829 Q559.325 237.079 562.381 232.495 Q565.459 227.889 571.27 227.889 Z" fill="#000000" fill-rule="evenodd" fill-opacity="1" /><path clip-path="url(#clip400)" d="M591.432 257.194 L596.316 257.194 L596.316 263.074 L591.432 263.074 L591.432 257.194 Z" fill="#000000" fill-rule="evenodd" fill-opacity="1" /><path clip-path="url(#clip400)" d="M617.08 243.93 Q613.931 243.93 612.08 246.083 Q610.251 248.236 610.251 251.986 Q610.251 255.713 612.08 257.889 Q613.931 260.042 617.08 260.042 Q620.228 260.042 622.056 257.889 Q623.908 255.713 623.908 251.986 Q623.908 248.236 622.056 246.083 Q620.228 243.93 617.08 243.93 M626.362 229.278 L626.362 233.537 Q624.603 232.704 622.797 232.264 Q621.015 231.824 619.255 231.824 Q614.626 231.824 612.172 234.949 Q609.742 238.074 609.394 244.393 Q610.76 242.38 612.82 241.315 Q614.88 240.227 617.357 240.227 Q622.566 240.227 625.575 243.398 Q628.607 246.546 628.607 251.986 Q628.607 257.31 625.459 260.528 Q622.311 263.745 617.08 263.745 Q611.084 263.745 607.913 259.162 Q604.742 254.555 604.742 245.829 Q604.742 237.634 608.63 232.773 Q612.519 227.889 619.07 227.889 Q620.829 227.889 622.612 228.236 Q624.417 228.583 626.362 229.278 Z" fill="#000000" fill-rule="evenodd" fill-opacity="1" /><path clip-path="url(#clip400)" d="M640.69 259.139 L657.01 259.139 L657.01 263.074 L635.066 263.074 L635.066 259.139 Q637.728 256.384 642.311 251.755 Q646.917 247.102 648.098 245.759 Q650.343 243.236 651.223 241.5 Q652.126 239.741 652.126 238.051 Q652.126 235.296 650.181 233.56 Q648.26 231.824 645.158 231.824 Q642.959 231.824 640.505 232.588 Q638.075 233.352 635.297 234.903 L635.297 230.181 Q638.121 229.046 640.575 228.468 Q643.028 227.889 645.065 227.889 Q650.436 227.889 653.63 230.574 Q656.825 233.259 656.825 237.75 Q656.825 239.88 656.014 241.801 Q655.227 243.699 653.121 246.292 Q652.542 246.963 649.44 250.18 Q646.339 253.375 640.69 259.139 Z" fill="#000000" fill-rule="evenodd" fill-opacity="1" /><path clip-path="url(#clip400)" d="M1362.77 20.1573 L1351.67 50.2555 L1373.91 50.2555 L1362.77 20.1573 M1358.15 12.096 L1367.43 12.096 L1390.48 72.576 L1381.97 72.576 L1376.46 57.061 L1349.2 57.061 L1343.69 72.576 L1335.06 72.576 L1358.15 12.096 Z" fill="#000000" fill-rule="evenodd" fill-opacity="1" /><path clip-path="url(#clip400)" d="M1430.18 28.9478 L1430.18 35.9153 Q1427.02 34.1734 1423.82 33.3227 Q1420.66 32.4315 1417.42 32.4315 Q1410.17 32.4315 1406.16 37.0496 Q1402.15 41.6271 1402.15 49.9314 Q1402.15 58.2358 1406.16 62.8538 Q1410.17 67.4314 1417.42 67.4314 Q1420.66 67.4314 1423.82 66.5807 Q1427.02 65.6895 1430.18 63.9476 L1430.18 70.8341 Q1427.06 72.2924 1423.7 73.0216 Q1420.37 73.7508 1416.61 73.7508 Q1406.36 73.7508 1400.32 67.3098 Q1394.29 60.8689 1394.29 49.9314 Q1394.29 38.832 1400.36 32.472 Q1406.48 26.1121 1417.09 26.1121 Q1420.54 26.1121 1423.82 26.8413 Q1427.1 27.5299 1430.18 28.9478 Z" fill="#000000" fill-rule="evenodd" fill-opacity="1" /><path clip-path="url(#clip400)" d="M1475.79 28.9478 L1475.79 35.9153 Q1472.63 34.1734 1469.43 33.3227 Q1466.27 32.4315 1463.03 32.4315 Q1455.78 32.4315 1451.77 37.0496 Q1447.76 41.6271 1447.76 49.9314 Q1447.76 58.2358 1451.77 62.8538 Q1455.78 67.4314 1463.03 67.4314 Q1466.27 67.4314 1469.43 66.5807 Q1472.63 65.6895 1475.79 63.9476 L1475.79 70.8341 Q1472.67 72.2924 1469.31 73.0216 Q1465.99 73.7508 1462.22 73.7508 Q1451.97 73.7508 1445.94 67.3098 Q1439.9 60.8689 1439.9 49.9314 Q1439.9 38.832 1445.98 32.472 Q1452.09 26.1121 1462.71 26.1121 Q1466.15 26.1121 1469.43 26.8413 Q1472.71 27.5299 1475.79 28.9478 Z" fill="#000000" fill-rule="evenodd" fill-opacity="1" /><path clip-path="url(#clip400)" d="M1487.98 54.671 L1487.98 27.2059 L1495.44 27.2059 L1495.44 54.3874 Q1495.44 60.8284 1497.95 64.0691 Q1500.46 67.2693 1505.48 67.2693 Q1511.52 67.2693 1515 63.421 Q1518.53 59.5726 1518.53 52.9291 L1518.53 27.2059 L1525.98 27.2059 L1525.98 72.576 L1518.53 72.576 L1518.53 65.6084 Q1515.81 69.7404 1512.21 71.7658 Q1508.64 73.7508 1503.9 73.7508 Q1496.09 73.7508 1492.04 68.8897 Q1487.98 64.0286 1487.98 54.671 M1506.74 26.1121 L1506.74 26.1121 Z" fill="#000000" fill-rule="evenodd" fill-opacity="1" /><path clip-path="url(#clip400)" d="M1567.63 34.1734 Q1566.37 33.4443 1564.87 33.1202 Q1563.41 32.7556 1561.63 32.7556 Q1555.31 32.7556 1551.91 36.8875 Q1548.55 40.9789 1548.55 48.6757 L1548.55 72.576 L1541.05 72.576 L1541.05 27.2059 L1548.55 27.2059 L1548.55 34.2544 Q1550.89 30.1225 1554.66 28.1376 Q1558.43 26.1121 1563.82 26.1121 Q1564.59 26.1121 1565.52 26.2337 Q1566.45 26.3147 1567.58 26.5172 L1567.63 34.1734 Z" fill="#000000" fill-rule="evenodd" fill-opacity="1" /><path clip-path="url(#clip400)" d="M1596.06 49.7694 Q1587.03 49.7694 1583.55 51.8354 Q1580.06 53.9013 1580.06 58.8839 Q1580.06 62.8538 1582.65 65.2034 Q1585.29 67.5124 1589.78 67.5124 Q1595.98 67.5124 1599.71 63.1374 Q1603.48 58.7219 1603.48 51.4303 L1603.48 49.7694 L1596.06 49.7694 M1610.93 46.6907 L1610.93 72.576 L1603.48 72.576 L1603.48 65.6895 Q1600.92 69.8214 1597.12 71.8063 Q1593.31 73.7508 1587.8 73.7508 Q1580.83 73.7508 1576.7 69.8619 Q1572.61 65.9325 1572.61 59.3701 Q1572.61 51.7138 1577.71 47.825 Q1582.86 43.9361 1593.02 43.9361 L1603.48 43.9361 L1603.48 43.2069 Q1603.48 38.0623 1600.07 35.2672 Q1596.71 32.4315 1590.59 32.4315 Q1586.7 32.4315 1583.02 33.3632 Q1579.33 34.295 1575.93 36.1584 L1575.93 29.2718 Q1580.02 27.692 1583.87 26.9223 Q1587.72 26.1121 1591.36 26.1121 Q1601.21 26.1121 1606.07 31.2163 Q1610.93 36.3204 1610.93 46.6907 Z" fill="#000000" fill-rule="evenodd" fill-opacity="1" /><path clip-path="url(#clip400)" d="M1658.93 28.9478 L1658.93 35.9153 Q1655.77 34.1734 1652.57 33.3227 Q1649.41 32.4315 1646.17 32.4315 Q1638.92 32.4315 1634.91 37.0496 Q1630.9 41.6271 1630.9 49.9314 Q1630.9 58.2358 1634.91 62.8538 Q1638.92 67.4314 1646.17 67.4314 Q1649.41 67.4314 1652.57 66.5807 Q1655.77 65.6895 1658.93 63.9476 L1658.93 70.8341 Q1655.81 72.2924 1652.45 73.0216 Q1649.13 73.7508 1645.36 73.7508 Q1635.11 73.7508 1629.08 67.3098 Q1623.04 60.8689 1623.04 49.9314 Q1623.04 38.832 1629.12 32.472 Q1635.23 26.1121 1645.85 26.1121 Q1649.29 26.1121 1652.57 26.8413 Q1655.85 27.5299 1658.93 28.9478 Z" fill="#000000" fill-rule="evenodd" fill-opacity="1" /><path clip-path="url(#clip400)" d="M1690.77 76.7889 Q1687.61 84.8907 1684.62 87.3618 Q1681.62 89.8329 1676.59 89.8329 L1670.64 89.8329 L1670.64 83.5945 L1675.01 83.5945 Q1678.09 83.5945 1679.79 82.1361 Q1681.5 80.6778 1683.56 75.2496 L1684.9 71.8468 L1666.55 27.2059 L1674.45 27.2059 L1688.63 62.6918 L1702.8 27.2059 L1710.7 27.2059 L1690.77 76.7889 Z" fill="#000000" fill-rule="evenodd" fill-opacity="1" /><polyline clip-path="url(#clip402)" style="stroke:#009af9; stroke-linecap:butt; stroke-linejoin:round; stroke-width:4; stroke-opacity:1; fill:none" points="
  739.984,592.9 755.8,162.047 771.616,162.047 787.432,162.047 803.248,162.047 819.065,162.047 834.881,162.047 850.697,162.047 866.513,162.047 882.329,162.047 
  898.145,162.047 913.961,162.047 929.778,162.047 945.594,162.047 961.41,162.047 977.226,162.047 993.042,162.047 1008.86,162.047 1024.67,162.047 1040.49,162.047 
  1056.31,162.047 1072.12,162.047 1087.94,162.047 1103.76,162.047 1119.57,162.047 1135.39,162.047 1151.2,162.047 1167.02,162.047 1182.84,162.047 1198.65,162.047 
  1214.47,162.047 1230.28,162.047 1246.1,162.047 1261.92,162.047 1277.73,162.047 1293.55,162.047 1309.36,162.047 1325.18,162.047 1341,162.047 1356.81,162.047 
  1372.63,162.047 1388.45,162.047 1404.26,162.047 1420.08,162.047 1435.89,162.047 1451.71,162.047 1467.53,162.047 1483.34,162.047 1499.16,162.047 1514.97,162.047 
  1530.79,162.047 1546.61,162.047 1562.42,162.047 1578.24,162.047 1594.06,162.047 1609.87,162.047 1625.69,162.047 1641.5,162.047 1657.32,162.047 1673.14,162.047 
  1688.95,162.047 1704.77,162.047 1720.58,162.047 1736.4,162.047 1752.22,162.047 1768.03,162.047 1783.85,162.047 1799.67,162.047 1815.48,162.047 1831.3,162.047 
  1847.11,162.047 1862.93,162.047 1878.75,162.047 1894.56,162.047 1910.38,162.047 1926.19,162.047 1942.01,162.047 1957.83,162.047 1973.64,162.047 1989.46,162.047 
  2005.28,162.047 2021.09,162.047 2036.91,162.047 2052.72,162.047 2068.54,162.047 2084.36,162.047 2100.17,162.047 2115.99,162.047 2131.8,162.047 2147.62,162.047 
  2163.44,162.047 2179.25,162.047 2195.07,162.047 2210.89,162.047 2226.7,162.047 2242.52,162.047 2258.33,162.047 2274.15,162.047 2289.97,162.047 2305.78,162.047 
  
  "/>
<polyline clip-path="url(#clip402)" style="stroke:#e26f46; stroke-linecap:butt; stroke-linejoin:round; stroke-width:4; stroke-opacity:1; fill:none" points="
  739.984,1171.86 755.8,1447.87 771.616,1447.87 787.432,1447.87 803.248,1447.87 819.065,1447.87 834.881,1447.87 850.697,1447.87 866.513,1447.87 882.329,1447.87 
  898.145,1447.87 913.961,1447.87 929.778,1447.87 945.594,1447.87 961.41,1447.87 977.226,1447.87 993.042,1447.87 1008.86,1447.87 1024.67,1447.87 1040.49,1447.87 
  1056.31,1447.87 1072.12,1447.87 1087.94,1447.87 1103.76,1447.87 1119.57,1447.87 1135.39,1447.87 1151.2,1447.87 1167.02,1447.87 1182.84,1447.87 1198.65,1447.87 
  1214.47,1447.87 1230.28,1447.87 1246.1,1447.87 1261.92,1447.87 1277.73,1447.87 1293.55,1447.87 1309.36,1447.87 1325.18,1447.87 1341,1447.87 1356.81,1447.87 
  1372.63,1447.87 1388.45,1447.87 1404.26,1447.87 1420.08,1447.87 1435.89,1447.87 1451.71,1447.87 1467.53,1447.87 1483.34,1447.87 1499.16,1447.87 1514.97,1447.87 
  1530.79,1447.87 1546.61,1447.87 1562.42,1447.87 1578.24,1447.87 1594.06,1447.87 1609.87,1447.87 1625.69,1447.87 1641.5,1447.87 1657.32,1447.87 1673.14,1447.87 
  1688.95,1447.87 1704.77,1447.87 1720.58,1447.87 1736.4,1447.87 1752.22,1447.87 1768.03,1447.87 1783.85,1447.87 1799.67,1447.87 1815.48,1447.87 1831.3,1447.87 
  1847.11,1447.87 1862.93,1447.87 1878.75,1447.87 1894.56,1447.87 1910.38,1447.87 1926.19,1447.87 1942.01,1447.87 1957.83,1447.87 1973.64,1447.87 1989.46,1447.87 
  2005.28,1447.87 2021.09,1447.87 2036.91,1447.87 2052.72,1447.87 2068.54,1447.87 2084.36,1447.87 2100.17,1447.87 2115.99,1447.87 2131.8,1447.87 2147.62,1447.87 
  2163.44,1447.87 2179.25,1447.87 2195.07,1447.87 2210.89,1447.87 2226.7,1447.87 2242.52,1447.87 2258.33,1447.87 2274.15,1447.87 2289.97,1447.87 2305.78,1447.87 
  
  "/>
<path clip-path="url(#clip400)" d="
M114.56 324.425 L448.842 324.425 L448.842 168.905 L114.56 168.905  Z
  " fill="#ffffff" fill-rule="evenodd" fill-opacity="1"/>
<polyline clip-path="url(#clip400)" style="stroke:#000000; stroke-linecap:butt; stroke-linejoin:round; stroke-width:4; stroke-opacity:1; fill:none" points="
  114.56,324.425 448.842,324.425 448.842,168.905 114.56,168.905 114.56,324.425 
  "/>
<polyline clip-path="url(#clip400)" style="stroke:#009af9; stroke-linecap:butt; stroke-linejoin:round; stroke-width:4; stroke-opacity:1; fill:none" points="
  138.56,220.745 282.56,220.745 
  "/>
<path clip-path="url(#clip400)" d="M322.393 208.071 L316.051 225.27 L328.759 225.27 L322.393 208.071 M319.755 203.465 L325.056 203.465 L338.227 238.025 L333.366 238.025 L330.218 229.159 L314.639 229.159 L311.491 238.025 L306.56 238.025 L319.755 203.465 Z" fill="#000000" fill-rule="evenodd" fill-opacity="1" /><path clip-path="url(#clip400)" d="M347.949 221.52 L347.949 234.182 L355.449 234.182 Q359.222 234.182 361.028 232.631 Q362.856 231.057 362.856 227.84 Q362.856 224.599 361.028 223.071 Q359.222 221.52 355.449 221.52 L347.949 221.52 M347.949 207.307 L347.949 217.724 L354.87 217.724 Q358.296 217.724 359.963 216.451 Q361.653 215.154 361.653 212.516 Q361.653 209.9 359.963 208.604 Q358.296 207.307 354.87 207.307 L347.949 207.307 M343.273 203.465 L355.217 203.465 Q360.565 203.465 363.458 205.687 Q366.352 207.909 366.352 212.006 Q366.352 215.178 364.87 217.053 Q363.389 218.928 360.518 219.39 Q363.967 220.131 365.865 222.492 Q367.787 224.83 367.787 228.349 Q367.787 232.978 364.639 235.502 Q361.491 238.025 355.68 238.025 L343.273 238.025 L343.273 203.465 Z" fill="#000000" fill-rule="evenodd" fill-opacity="1" /><path clip-path="url(#clip400)" d="M400.842 206.127 L400.842 211.057 Q398.481 208.858 395.796 207.77 Q393.134 206.682 390.125 206.682 Q384.199 206.682 381.051 210.316 Q377.902 213.928 377.902 220.779 Q377.902 227.608 381.051 231.242 Q384.199 234.853 390.125 234.853 Q393.134 234.853 395.796 233.765 Q398.481 232.677 400.842 230.478 L400.842 235.363 Q398.388 237.029 395.634 237.863 Q392.902 238.696 389.847 238.696 Q382 238.696 377.486 233.904 Q372.972 229.09 372.972 220.779 Q372.972 212.446 377.486 207.654 Q382 202.84 389.847 202.84 Q392.949 202.84 395.68 203.673 Q398.435 204.483 400.842 206.127 Z" fill="#000000" fill-rule="evenodd" fill-opacity="1" /><polyline clip-path="url(#clip400)" style="stroke:#e26f46; stroke-linecap:butt; stroke-linejoin:round; stroke-width:4; stroke-opacity:1; fill:none" points="
  138.56,272.585 282.56,272.585 
  "/>
<path clip-path="url(#clip400)" d="M311.236 259.147 L311.236 272.133 L317.116 272.133 Q320.38 272.133 322.162 270.443 Q323.944 268.754 323.944 265.629 Q323.944 262.527 322.162 260.837 Q320.38 259.147 317.116 259.147 L311.236 259.147 M306.56 255.305 L317.116 255.305 Q322.926 255.305 325.889 257.944 Q328.875 260.559 328.875 265.629 Q328.875 270.744 325.889 273.36 Q322.926 275.976 317.116 275.976 L311.236 275.976 L311.236 289.865 L306.56 289.865 L306.56 255.305 Z" fill="#000000" fill-rule="evenodd" fill-opacity="1" /><path clip-path="url(#clip400)" d="M355.866 256.439 L355.866 260.999 Q353.204 259.726 350.842 259.101 Q348.481 258.476 346.282 258.476 Q342.463 258.476 340.38 259.957 Q338.319 261.439 338.319 264.17 Q338.319 266.462 339.685 267.643 Q341.074 268.8 344.917 269.518 L347.741 270.096 Q352.972 271.092 355.449 273.615 Q357.949 276.115 357.949 280.328 Q357.949 285.351 354.569 287.943 Q351.213 290.536 344.708 290.536 Q342.255 290.536 339.477 289.98 Q336.722 289.425 333.759 288.337 L333.759 283.522 Q336.606 285.119 339.338 285.929 Q342.069 286.74 344.708 286.74 Q348.713 286.74 350.889 285.166 Q353.065 283.592 353.065 280.675 Q353.065 278.129 351.491 276.693 Q349.94 275.258 346.375 274.541 L343.528 273.985 Q338.296 272.943 335.958 270.721 Q333.62 268.499 333.62 264.541 Q333.62 259.957 336.838 257.319 Q340.079 254.68 345.75 254.68 Q348.18 254.68 350.704 255.119 Q353.227 255.559 355.866 256.439 Z" fill="#000000" fill-rule="evenodd" fill-opacity="1" /><path clip-path="url(#clip400)" d="M379.268 258.476 Q374.176 258.476 371.166 262.272 Q368.18 266.068 368.18 272.619 Q368.18 279.147 371.166 282.943 Q374.176 286.74 379.268 286.74 Q384.361 286.74 387.324 282.943 Q390.31 279.147 390.31 272.619 Q390.31 266.068 387.324 262.272 Q384.361 258.476 379.268 258.476 M379.268 254.68 Q386.537 254.68 390.889 259.564 Q395.24 264.425 395.24 272.619 Q395.24 280.791 390.889 285.675 Q386.537 290.536 379.268 290.536 Q371.977 290.536 367.602 285.675 Q363.25 280.814 363.25 272.619 Q363.25 264.425 367.602 259.564 Q371.977 254.68 379.268 254.68 Z" fill="#000000" fill-rule="evenodd" fill-opacity="1" /></svg>
